<?xml version="1.0" encoding="utf-8"?>
<!-- Generator: Adobe Illustrator 16.0.0, SVG Export Plug-In . SVG Version: 6.00 Build 0)  -->
<!DOCTYPE svg PUBLIC "-//W3C//DTD SVG 1.1//EN" "http://www.w3.org/Graphics/SVG/1.1/DTD/svg11.dtd">
<svg version="1.1" id="Capa_1" xmlns="http://www.w3.org/2000/svg" xmlns:xlink="http://www.w3.org/1999/xlink" x="0px" y="0px"
	 width="612px" height="792px" viewBox="0 0 612 792" enable-background="new 0 0 612 792" xml:space="preserve">
<g>
	<g>
		<path d="M482.119,247.73c8.893,0,11.397-12.023,3.382-15.656L172.51,93.302c-19.038-8.517-41.457,0-49.974,19.163L12.945,358.198
			c-8.517,19.037,0,41.456,19.163,49.974l63.124,27.304c7.891,3.507,16.908-2.255,16.908-10.896V320.248
			c0-39.954,32.439-72.392,72.393-72.392h297.586V247.73L482.119,247.73z"/>
		<path d="M564.03,281.798H184.408c-21.167,0-38.326,17.159-38.326,38.325v268.153c0,21.166,17.159,38.325,38.326,38.325h50.975
			c-1.252-7.515-1.878-15.155-1.878-22.92c0-8.768,0.876-17.284,2.379-25.676h-41.081V449.628h358.957v128.253h-41.206
			c1.503,8.392,2.379,16.908,2.379,25.676c0,7.765-0.626,15.405-1.879,22.92h50.976c21.167,0,38.326-17.159,38.326-38.326V320.123
			C602.356,298.957,585.197,281.798,564.03,281.798z M553.761,370.598H194.804v-40.204h358.957V370.598z"/>
		<path d="M374.282,505.112c-54.357,0-98.444,44.087-98.444,98.444c0,54.356,44.087,98.443,98.444,98.443
			c54.356,0,98.443-44.087,98.443-98.443C472.726,549.199,428.639,505.112,374.282,505.112z M402.588,642.383
			c-4.259,5.26-9.895,8.768-16.407,10.521c-2.881,0.752-4.134,2.255-4.008,5.261c0.125,2.88,0,5.761,0,8.767
			c0,2.631-1.378,4.008-3.883,4.008c-3.132,0.126-6.263,0.126-9.394,0c-2.756,0-4.008-1.628-4.008-4.258c0-2.129,0-4.259,0-6.388
			c0-4.634-0.251-4.885-4.76-5.636c-5.761-0.877-11.397-2.255-16.657-4.76c-4.134-2.004-4.635-3.006-3.382-7.39
			c0.877-3.256,1.753-6.513,2.755-9.644c1.128-3.758,2.13-4.134,5.637-2.38c5.887,3.006,12.023,4.759,18.536,5.511
			c4.133,0.501,8.267,0.125,12.149-1.628c7.264-3.132,8.392-11.523,2.254-16.533c-2.129-1.753-4.384-3.006-6.889-4.008
			c-6.388-2.755-13.025-4.885-18.912-8.517c-9.77-5.761-15.906-13.777-15.155-25.676c0.752-13.401,8.392-21.667,20.666-26.176
			c5.01-1.879,5.136-1.754,5.136-7.015c0-1.753,0-3.632,0-5.385c0.125-4.009,0.751-4.635,4.759-4.76c1.253,0,2.505,0,3.632,0
			c8.518,0,8.518,0,8.518,8.517c0,6.012,0,6.012,6.012,6.889c4.509,0.752,8.893,2.004,13.15,3.883
			c2.38,1.002,3.257,2.63,2.505,5.135c-1.002,3.633-2.004,7.39-3.256,10.896c-1.128,3.382-2.255,3.883-5.511,2.38
			c-6.639-3.257-13.527-4.509-20.791-4.133c-1.879,0.125-3.758,0.375-5.511,1.127c-6.263,2.756-7.39,9.77-2.004,14.027
			c2.755,2.13,5.761,3.758,9.018,5.136c5.636,2.254,11.146,4.509,16.532,7.515C409.852,606.813,414.486,627.979,402.588,642.383z"/>
	</g>
</g>
</svg>
