<?xml version="1.0" encoding="utf-8"?>
<!-- Generator: Adobe Illustrator 16.0.0, SVG Export Plug-In . SVG Version: 6.00 Build 0)  -->
<!DOCTYPE svg PUBLIC "-//W3C//DTD SVG 1.1//EN" "http://www.w3.org/Graphics/SVG/1.1/DTD/svg11.dtd">
<svg version="1.1" id="Layer_1" xmlns="http://www.w3.org/2000/svg" xmlns:xlink="http://www.w3.org/1999/xlink" x="0px" y="0px"
	 width="448px" height="448px" viewBox="0 0 448 448" enable-background="new 0 0 448 448" xml:space="preserve">
<path d="M209.762,402.082c-14.473-0.016-27.141-9.715-30.93-23.684c-0.129-0.484-0.129-0.965-0.23-1.453L90.48,329.328
	c-2.387-1.367-5.09-2.086-7.84-2.078c-1.027,0-2.055,0.094-3.066,0.285c-1.387,0.242-2.734,0.68-4,1.297
	c-2.879,1.367-5.277,3.578-6.871,6.344c-1.395,2.438-2.133,5.191-2.145,8c-0.039,5.723,2.996,11.027,7.953,13.887l145.848,87.273
	c3.82,2.391,8.238,3.66,12.746,3.664h112.719c3.012-0.004,5.996-0.574,8.801-1.68L384,434.719v-86.184l-28.602-17.125
	c-3.723-2.23-7.984-3.41-12.328-3.41h-30.664c-4.883,0-9.746,0.641-14.461,1.902l-92.344,24.707
	c-6.48,1.797-11.172,7.414-11.785,14.109v2.617c0.055,1,0.207,1.992,0.465,2.961c1.902,6.973,8.25,11.805,15.48,11.785
	c0.973-0.082,5.68-1.043,9.328-1.883l82.848-22.168l4.125,15.457l-83.117,22.238C218.625,400.887,214.215,401.676,209.762,402.082z"
	/>
<path d="M400,320h48v128h-48V320z"/>
<path d="M0,0h48v144H0V0z"/>
<path d="M91.297,125.887c10.918,7.25,23.609,11.387,36.703,11.969V99.199c-5.91-2.156-11.434-5.258-16.352-9.184l-4.688-3.801
	l10.078-12.43l4.641,3.758c15.852,12.672,38.453,12.336,53.922-0.797l5.598-4.801l47.199,47.199
	c6.281,6.25,16.438,6.23,22.691-0.047c6.25-6.281,6.23-16.438-0.051-22.688l-56.453-56.516l11.309-11.309L225.313,48h66.016
	l-31.602-31.602C249.25,5.863,234.988-0.043,220.129,0H119.551c-3.723,0-7.395,0.871-10.727,2.535l-17.938,8.969
	c-5.996,2.988-12.645,4.43-19.344,4.191L64,15.426V120h18.398L91.297,125.887z"/>
<path d="M144,102.551V240h304V64H241.313l16,16H392v8c0,17.672,14.328,32,32,32h8v64h-8c-17.672,0-32,14.328-32,32v8H200v-8
	c0-17.672-14.328-32-32-32h-8v-64h8c10.141-0.008,19.676-4.832,25.688-13l-13.648-13.648
	C169.355,100.277,156.695,103.512,144,102.551z"/>
<path d="M239.777,139.754c-8.469,0.02-16.598-3.313-22.609-9.273l-12.07-12.082c-7.324,8.992-17.664,15.012-29.098,16.938v33.328
	c20.129,3.441,35.895,19.207,39.336,39.336h161.328c3.441-20.129,19.207-35.895,39.336-39.336v-33.328
	c-20.129-3.441-35.895-19.207-39.336-39.336H269.535c3.824,9.434,2.848,20.137-2.621,28.719
	c14.672-15.539,38.973-16.797,55.172-2.852c16.203,13.945,18.578,38.16,5.395,54.984c-13.18,16.828-37.262,20.316-54.68,7.922
	c-17.414-12.391-22.008-36.285-10.434-54.254C256.34,136.441,248.227,139.758,239.777,139.754z"/>
<path d="M320,152c0,13.254-10.746,24-24,24s-24-10.746-24-24s10.746-24,24-24S320,138.746,320,152z"/>
</svg>
