<?xml version="1.0" encoding="utf-8"?>
<!-- Generator: Adobe Illustrator 16.0.0, SVG Export Plug-In . SVG Version: 6.00 Build 0)  -->
<!DOCTYPE svg PUBLIC "-//W3C//DTD SVG 1.1//EN" "http://www.w3.org/Graphics/SVG/1.1/DTD/svg11.dtd">
<svg version="1.1" id="Capa_1" xmlns="http://www.w3.org/2000/svg" xmlns:xlink="http://www.w3.org/1999/xlink" x="0px" y="0px"
	 width="612px" height="792px" viewBox="0 0 612 792" enable-background="new 0 0 612 792" xml:space="preserve">
<g>
	<g>
		<path fill="#030104" d="M306,334.8c-50.704,0-91.8,41.114-91.8,91.8c0,50.705,41.096,91.801,91.8,91.801
			c50.692,0,91.8-41.096,91.8-91.801C397.8,375.914,356.692,334.8,306,334.8z M550.8,243H477.36
			c-10.099,0-20.979-7.833-24.168-17.417l-18.984-56.971c-3.201-9.578-14.07-17.411-24.168-17.411H201.96
			c-10.098,0-20.979,7.833-24.168,17.417l-18.984,56.971C155.607,235.167,144.738,243,134.64,243H61.2C27.54,243,0,270.54,0,304.2
			V579.6c0,33.66,27.54,61.2,61.2,61.2h489.6c33.66,0,61.2-27.54,61.2-61.2V304.2C612,270.54,584.46,243,550.8,243z M306,579.6
			c-84.499,0-153-68.501-153-153c0-84.492,68.501-153,153-153c84.486,0,153,68.507,153,153C459,511.099,390.486,579.6,306,579.6z
			 M529.38,346.997c-11.823,0-21.42-9.584-21.42-21.42c0-11.824,9.597-21.42,21.42-21.42c11.836,0,21.42,9.596,21.42,21.42
			C550.8,337.413,541.21,346.997,529.38,346.997z"/>
	</g>
</g>
</svg>
