<?xml version="1.0" encoding="utf-8"?>
<!-- Generator: Adobe Illustrator 16.0.0, SVG Export Plug-In . SVG Version: 6.00 Build 0)  -->
<!DOCTYPE svg PUBLIC "-//W3C//DTD SVG 1.1//EN" "http://www.w3.org/Graphics/SVG/1.1/DTD/svg11.dtd">
<svg version="1.1" id="Capa_1" xmlns="http://www.w3.org/2000/svg" xmlns:xlink="http://www.w3.org/1999/xlink" x="0px" y="0px"
	 width="612px" height="792px" viewBox="0 0 612 792" enable-background="new 0 0 612 792" xml:space="preserve">
<g>
	<g>
		<path d="M506.406,215.444h-15.729v-35.008c0-49.848-40.588-90.437-90.437-90.437H210.363c-49.848,0-90.437,40.589-90.437,90.437
			v35.008h-14.333c-49.848,0-90.437,40.588-90.437,90.437v145.865c0,49.848,40.589,90.437,90.437,90.437H119.8v114.662
			c0,24.861,20.294,45.155,45.155,45.155h280.442c24.86,0,45.154-20.294,45.154-45.155V542.183h15.855
			c49.848,0,90.437-40.589,90.437-90.437V305.881C596.843,256.033,556.254,215.444,506.406,215.444z M154.046,180.437
			c0-30.949,25.241-56.19,56.19-56.19h189.752c30.948,0,56.189,25.241,56.189,56.19v35.008H154.046V180.437z M456.305,657.099
			c0,5.962-4.946,10.908-10.908,10.908H164.955c-5.961,0-10.908-4.946-10.908-10.908V467.981h302.258V657.099z M562.596,451.873
			c0,30.948-25.24,56.189-56.189,56.189h-15.729v-40.081h22.578c9.513,0,17.123-7.61,17.123-17.123
			c0-9.514-7.61-17.124-17.123-17.124H94.686c-9.513,0-17.123,7.61-17.123,17.124c0,9.513,7.61,17.123,17.123,17.123h25.241v40.081
			h-14.333c-30.949,0-56.19-25.241-56.19-56.189V306.007c0-30.949,25.241-56.19,56.19-56.19h400.813
			c30.949,0,56.189,25.241,56.189,56.19V451.873z"/>
		<path d="M195.523,552.203H413.56c9.513,0,17.123-7.61,17.123-17.124c0-9.513-7.61-17.123-17.123-17.123H195.523
			c-9.513,0-17.124,7.61-17.124,17.123C178.399,544.593,186.137,552.203,195.523,552.203z"/>
		<path d="M414.955,587.972H196.792c-9.513,0-17.124,7.61-17.124,17.123s7.61,17.123,17.124,17.123h218.037
			c9.513,0,17.123-7.61,17.123-17.123S424.341,587.972,414.955,587.972z"/>
		<path d="M506.025,282.669h-34.754c-9.513,0-17.123,7.61-17.123,17.124c0,9.513,7.61,17.123,17.123,17.123h34.754
			c9.514,0,17.124-7.61,17.124-17.123C523.149,290.279,515.539,282.669,506.025,282.669z"/>
	</g>
</g>
</svg>
