<?xml version="1.0" encoding="utf-8"?>
<!-- Generator: Adobe Illustrator 16.0.0, SVG Export Plug-In . SVG Version: 6.00 Build 0)  -->
<!DOCTYPE svg PUBLIC "-//W3C//DTD SVG 1.1//EN" "http://www.w3.org/Graphics/SVG/1.1/DTD/svg11.dtd">
<svg version="1.1" id="Layer_1" xmlns="http://www.w3.org/2000/svg" xmlns:xlink="http://www.w3.org/1999/xlink" x="0px" y="0px"
	 width="612px" height="792px" viewBox="0 0 612 792" enable-background="new 0 0 612 792" xml:space="preserve">
<g>
	<g>
		<path d="M476.01,372.12L203.663,99.777C197.363,93.473,188.955,90,179.989,90s-17.375,3.473-23.674,9.777l-20.057,20.052
			c-13.051,13.066-13.051,34.301,0,47.347l228.697,228.697l-228.95,228.951c-6.299,6.304-9.777,14.707-9.777,23.668
			c0,8.972,3.478,17.375,9.777,23.685l20.056,20.046c6.304,6.305,14.708,9.777,23.674,9.777c8.966,0,17.375-3.473,23.674-9.777
			L476.01,419.632c6.314-6.324,9.782-14.768,9.763-23.744C485.792,386.877,482.324,378.438,476.01,372.12z"/>
	</g>
</g>
</svg>
