<svg height="36" viewBox="0 0 132 36" width="132" xmlns="http://www.w3.org/2000/svg"><g fill="#fff" fill-rule="evenodd"><g transform="translate(-.869663 .504)"><path d="m21.7468692 16.2598568c-.0347122-3.8626601 3.1588067-5.7418569 3.3048372-5.829345-1.8086233-2.64022351-4.6119297-3.00096217-5.5970369-3.02972538-2.3544421-.24808274-4.638263 1.41059603-5.8376281 1.41059603-1.2233044 0-3.0702308-1.38662669-5.06079379-1.3458788-2.56151816.03954942-4.95785431 1.52445043-6.27212858 3.83030155-2.71233652 4.7015873-.68945536 11.6107514 1.90916891 15.4110912 1.29991062 1.8624183 2.81886695 3.9393621 4.80703595 3.8662556 1.94507801-.0790988 2.67163951-1.2416121 5.01889981-1.2416121 2.3257149 0 3.0079884 1.2416121 5.0356575 1.1936734 2.0875176-.0311601 3.4017918-1.8684105 4.6562176-3.7476073 1.5021987-2.1308749 2.1054721-4.234185 2.1294116-4.3420471-.0478789-.0155801-4.0529442-1.5460228-4.0936412-6.1757021"/><path d="m17.9165616 4.90078359c1.0461528-1.30992478 1.7619415-3.09204568 1.5632443-4.90053286-1.5141684.06711417-3.4077767 1.0486589-4.4982174 2.32982046-.9647587 1.12895622-1.8265779 2.97938976-1.6039413 4.7195643 1.700896.12703754 3.4472768-.85930106 4.5389144-2.1488519"/></g><g transform="translate(35.348315 14.382)"><path d="m13.7020005 16.4278938h-2.7183214l-1.48903201-4.6848088h-5.17570305l-1.41841076 4.6848088h-2.64650311l5.12902118-15.94920307h3.16718554zm-4.65621757-6.65029515-1.34659249-4.16347546c-.14243956-.42665437-.41056109-1.42857305-.80316761-3.00575604h-.04787885c-.15800018.6783325-.41056109 1.68025118-.75648574 3.00575604l-1.32385004 4.16347546z"/><path d="m26.8662887 10.5362285c0 1.9558986-.5302582 3.5019215-1.5919715 4.63687-.9503951 1.010308-2.1318056 1.5148627-3.5406406 1.5148627-1.5213502 0-2.6153818-.5429057-3.2797008-1.6323125v6.034283h-2.5519424v-12.38256437c0-1.228429-.0323182-2.48801815-.0945607-3.77996592h2.2443208l.1424396 1.82406726h.0478788c.8510465-1.37464201 2.1425783-2.06136379 3.8757925-2.06136379 1.3549712 0 2.4861089.53571489 3.3910191 1.60834314.9037132 1.07502519 1.3573652 2.48681969 1.3573652 4.23778048zm-2.5998212.0934804c0-1.11936846-.2513639-2.0421883-.7564858-2.76845949-.5518036-.75623288-1.2927287-1.13614702-2.2215783-1.13614702-.6296068 0-1.201759.21093025-1.7128657.62799687-.5123036.4182651-.8474555.96596466-1.0042587 1.64549563-.0790001.31519691-.1185002.57286738-.1185002.77660682v1.91994469c0 .8341332.2561519 1.5400305.7684555 2.1176917.5123036.5752643 1.1778195.8640949 1.9965478.8640949.9611678 0 1.7092747-.3727233 2.2443208-1.1121776.5362431-.7418513.8043646-1.7198006.8043646-2.9350465z"/><path d="m40.0772588 10.5362285c0 1.9558986-.5302582 3.5019215-1.5919716 4.63687-.951592 1.010308-2.1318055 1.5148627-3.5418375 1.5148627-1.5201533 0-2.6141849-.5429057-3.2797008-1.6323125v6.034283h-2.5519424v-12.38256437c0-1.228429-.0323182-2.48801815-.0945607-3.77996592h2.2443208l.1424396 1.82406726h.0478788c.8498495-1.37464201 2.1413813-2.06136379 3.8757925-2.06136379 1.3537743 0 2.4861089.53571489 3.3922161 1.60834314.9025162 1.07502519 1.3573652 2.48681969 1.3573652 4.23778048zm-2.6010182.0934804c0-1.11936846-.2525609-2.0421883-.7576827-2.76845949-.5506067-.75623288-1.2903349-1.13614702-2.2191844-1.13614702-.6296068 0-1.201759.21093025-1.7152596.62799687-.5111067.4182651-.8462586.96596466-1.0030618 1.64549563-.0778031.31519691-.1196971.57286738-.1196971.77660682v1.91994469c0 .8341332.2573488 1.5400305.7672584 2.1176917.5123037.5740659 1.1778196.8640949 1.9989418.8640949.9623648 0 1.7104717-.3727233 2.2443208-1.1121776.5362431-.7418513.8043646-1.7198006.8043646-2.9350465z"/><path d="m54.8478822 11.9552138c0 1.356665-.4728036 2.4604534-1.4160168 3.3125636-1.036577.9300107-2.483715 1.3962145-4.3390202 1.3962145-1.7140627 0-3.0881855-.330777-4.1247625-.9935295l.5901068-2.1296764c1.119168.6627525 2.3484573.9947279 3.686671.9947279.9623648 0 1.7104717-.2181211 2.2443208-.6507678.5362431-.4350436.8055616-1.0139033.8055616-1.7377776 0-.6483708-.2226367-1.1924749-.663122-1.6347094-.4416824-.4398375-1.1718347-.85211025-2.196442-1.22842899-2.7889427-1.0414681-4.184611-2.56591852-4.184611-4.56855741 0-1.30872631.4931521-2.3801561 1.4758654-3.21788475.9839102-.83653019 2.2886087-1.25479528 3.9117015-1.25479528 1.4495321 0 2.6572759.2528766 3.6160498.75743134l-.6403796 2.0829362c-.9025162-.48897467-1.9211386-.733462-3.0606551-.733462-.9001223 0-1.6075322.22171646-2.111457.66275243-.4249248.39429575-.6415765.87488114-.6415765 1.44535158 0 .62919535.245379 1.1517271.7349402 1.56040445.4237278.37871567 1.1969711.78978996 2.3149421 1.23082594 1.3717289.5536919 2.3783816 1.19846731 3.024746 1.93912012.6499553.7406528.9731375 1.66467107.9731375 2.76726107"/><path d="m63.306877 6.84494912h-2.8128821v5.58365928c0 1.4201837.4955461 2.1284779 1.4890321 2.1284779.456046 0 .8342888-.0383509 1.1335316-.1186483l.0706213 1.9403186c-.5027279.1881594-1.1646529.2828383-1.9833811.2828383-1.0090467 0-1.7954567-.3092045-2.3652149-.9240183-.5673643-.6160122-.8510465-1.6478925-.8510465-3.1004349v-5.79698645h-1.6745625v-1.91754771h1.6745625v-2.10570707l2.5064575-.75743135v2.86313842h2.8128821z"/><path d="m75.9732252 10.5829687c0 1.7677393-.5039248 3.2190832-1.5129714 4.3540318-1.0545316 1.1673071-2.4573817 1.7509607-4.2061565 1.7509607-1.6877293 0-3.0295339-.5596842-4.0302017-1.6790527-1.0006679-1.1193685-1.5010018-2.531163-1.5010018-4.234185 0-1.78212095.5182885-3.24185414 1.5476837-4.37680269 1.0317891-1.13494855 2.4226695-1.70422052 4.1714443-1.70422052 1.6865322 0 3.0391096.56208117 4.0649138 1.68025118.9791224 1.08700985 1.4662896 2.48801815 1.4662896 4.20901723zm-2.6453061.0587249c0-1.05345279-.2274245-1.95709715-.6834705-2.71333002-.5350461-.9132321-1.3023046-1.36864968-2.2933966-1.36864968-1.0210164 0-1.8074264.45541758-2.3400785 1.36864968-.45844.75623287-.6846675 1.67545731-.6846675 2.76126872 0 1.0546512.2262275 1.9606925.6846675 2.71333.5518036.9144305 1.321456 1.3710466 2.31973 1.3710466.9743344 0 1.739199-.4674023 2.2933966-1.392619.4680157-.7742099.703819-1.6838466.703819-2.7396963z"/><path d="m84.2718259 7.17452763c-.2525609-.04674022-.5230764-.0695111-.8043646-.0695111-.8977283 0-1.5919716.33676932-2.0803358 1.01749875-.4249247.59923366-.6367886 1.35666501-.6367886 2.27109552v6.034283h-2.5519424v-7.87872415c0-1.32430639-.0251364-2.53355991-.0742122-3.62056977h2.2227753l.0933638 2.200386h.0706213c.2705155-.75623288.6942432-1.36625275 1.2759712-1.82167033.5697582-.41227276 1.1826074-.61721067 1.8445325-.61721067.2358033 0 .4488641.01797701.6379856.04674023z"/><path d="m95.6849454 10.1335434c0 .4578146-.0299243.843721-.0933638 1.1589179h-7.6546302c.0275304 1.1361471.3997884 2.0062343 1.1095922 2.605468.6451675.5345164 1.4806533.8029731 2.5040636.8029731 1.1335316 0 2.1677146-.1797701 3.0977612-.5441042l.3997883 1.7737317c-1.0868497.4733945-2.3711997.7106911-3.850656.7106911-1.781093 0-3.1791552-.5249287-4.1965807-1.5723891-1.0138345-1.0486589-1.5237442-2.459255-1.5237442-4.2233989 0-1.73298371.4716066-3.17713683 1.4196077-4.32886392.9910921-1.22962747 2.3305028-1.84444121 4.0158381-1.84444121 1.655411 0 2.9086398.61481374 3.7584892 1.84444121.6750918.97435393 1.0138346 2.18240898 1.0138346 3.61697432zm-2.4334423-.66275239c.0179546-.75862981-.1496214-1.41059603-.495546-1.96428793-.4416824-.71188959-1.1215619-1.06663591-2.032457-1.06663591-.8354858 0-1.5141684.34635705-2.0312599 1.0414681-.4249248.55249343-.6774857 1.21764279-.7552888 1.98705881z"/></g><g transform="translate(35.588764 -.064)"><path d="m7.5748472 9.21639089h-1.33701673l-.73134934-2.30225571h-2.5435636l-.69783415 2.30225571h-1.30110759l2.52082114-7.83917472h1.55606244zm-2.28860875-3.26822037-.66192503-2.04698218c-.06942432-.20973178-.19750023-.69750798-.39500046-1.47651174h-.02393942c-.08139404.33676932-.19750023.82574399-.37225801 1.47651174l-.64995531 2.04698218z"/><path d="m13.878097 3.56441902-2.1377904 5.65197187h-1.2197135l-2.06836608-5.65197187h1.34778946l.96475872 2.98897749c.1627881.49976088.3016367.97675087.4057732 1.42977151h.0347122c.0933637-.40628042.2322123-.88327041.4057732-1.42977151l.952789-2.98897749z"/><path d="m18.4289812 9.21639089-.0933638-.65076775h-.0347121c-.3830308.52373022-.9408193.77900376-1.6494262.77900376-1.0102436 0-1.7308202-.70949266-1.7308202-1.66347264 0-1.39501596 1.2077438-2.11649328 3.2988523-2.11649328v-.10426666c0-.7442482-.3950004-1.11697154-1.1730317-1.11697154-.5577885 0-1.0461527.14022068-1.4746684.41946356l-.2549548-.82574398c.5230764-.32598311 1.1730317-.48897467 1.9402902-.48897467 1.4746684 0 2.2191844.77900376 2.2191844 2.33820974v2.08173773c0 .57047044.0239394 1.01270489.081394 1.3494742zm-.1747578-2.81519973c-1.3944714 0-2.0911085.33796779-2.0911085 1.13974242 0 .59324133.3602883.88327042.8594252.88327042.6391826 0 1.2316833-.4877762 1.2316833-1.15052863z"/><path d="m22.2700614 2.63320992c-.4177429 0-.743319-.32598311-.743319-.75623288s.3363489-.7442482.7672585-.7442482c.4297126 0 .7780312.31399843.7660615.7442482 0 .45421911-.3243792.75623288-.790001.75623288zm-.6032734.9312091h1.2544257v5.65197187h-1.2544257z"/><path d="m25.1499739.97093575h1.2544257v8.24545514h-1.2544257z"/><path d="m31.7357089 9.21639089-.0945607-.65076775h-.0335152c-.3830307.52373022-.9408193.77900376-1.6494262.77900376-1.0102436 0-1.7308202-.70949266-1.7308202-1.66347264 0-1.39501596 1.2077439-2.11649328 3.2988524-2.11649328v-.10426666c0-.7442482-.3950005-1.11697154-1.1730317-1.11697154-.5577885 0-1.0461527.14022068-1.4746684.41946356l-.2561518-.82694245c.5230764-.32598311 1.1730317-.48897466 1.9402901-.48897466 1.4746684 0 2.2203814.77900375 2.2203814 2.33820973v2.08173773c0 .57047045.0239395 1.01270489.0790001 1.3494742zm-.1747578-2.81519973c-1.3944713 0-2.0911085.33796779-2.0911085 1.13974242 0 .59324133.3602883.88327042.8594253.88327042.6391826 0 1.2316832-.4877762 1.2316832-1.15052863z"/><path d="m37.864201 9.3446269c-.8007737 0-1.3920774-.33796779-1.7763051-1.00072021h-.0239395l-.0718182.8724842h-1.0676983c.0335152-.45302064.045485-.96596465.045485-1.52325196v-6.72220318h1.2568196v3.42042572h.0227425c.372258-.62799687.9755314-.94199531 1.8002445-.94199531 1.3597592 0 2.3125482 1.16371177 2.3125482 2.86074149 0 1.75455615-1.0581225 3.03451925-2.4980787 3.03451925zm-.2549549-4.90892214c-.7217735 0-1.3825016.62799688-1.3825016 1.50048109v.98873553c0 .77900376.5936977 1.41898531 1.3597592 1.41898531.9396223 0 1.4998048-.76701909 1.4998048-1.98825728-.001197-1.13974242-.5829249-1.91994465-1.4770624-1.91994465z"/><path d="m42.2187819.97093575h1.2532287v8.24545514h-1.2532287z"/><path d="m50.2995338 6.69241872h-3.7656711c.0251364 1.07023132.7313493 1.67425885 1.7763051 1.67425885.5589855 0 1.0700922-.09348046 1.5225472-.26725822l.1951063.87248421c-.5338491.23250266-1.1610619.34875399-1.8924113.34875399-1.7667293 0-2.8116851-1.11697154-2.8116851-2.84875681 0-1.73298375 1.0700922-3.03571772 2.6716395-3.03571772 1.4387593 0 2.3472603 1.07023132 2.3472603 2.68696373.003591.22051798-.0071818.41826509-.0430909.56927197zm-1.1490923-.89525508c0-.87248421-.4428793-1.48849641-1.2448499-1.48849641-.7205766 0-1.2879409.62799687-1.3717289 1.48849641z"/><path d="m57.9026942 9.3446269c-1.6494261 0-2.7183213-1.23322287-2.7183213-2.90748172 0-1.74496841 1.0916376-2.98897749 2.812882-2.98897749 1.6242898 0 2.7183214 1.17449797 2.7183214 2.89669551 0 1.76654083-1.1275468 2.9997637-2.8128821 2.9997637zm.0478789-4.97843324c-.9061071 0-1.4866381.84851486-1.4866381 2.0349975 0 1.16371177.5925007 2.01222663 1.4746684 2.01222663s1.4746684-.90723976 1.4746684-2.03619597c0-1.15052863-.580531-2.01102816-1.4626987-2.01102816z"/><path d="m67.4593115 9.21639089h-1.2520317v-3.24544949c0-.99952175-.3842278-1.50048108-1.1395165-1.50048108-.7433191 0-1.2556227.63998154-1.2556227 1.38422975v3.36170082h-1.2520318v-4.03643792c0-.49976087-.0143637-1.03547576-.0478788-1.61673241h1.1036073l.0586516.8724842h.0359091c.333955-.60402752 1.0210164-.98873553 1.7882749-.98873553 1.1826074 0 1.9606386.90723976 1.9606386 2.38375149z"/><path d="m75.6669424 4.50641434h-1.3801077v2.74449015c0 .69870645.2429851 1.04746044.7301524 1.04746044.2202427 0 .4081671-.02396935.5577885-.0587249l.0347122.95397999c-.2441821.09348045-.5709552.14022067-.9743345.14022067-.9898951 0-1.5788049-.5465011-1.5788049-1.97747107v-2.84995528h-.8223191v-.94199532h.8223191v-1.03547576l1.2304863-.37272334v1.40700064h1.3801077z"/><path d="m82.310132 9.21639089h-1.2556227v-3.22148015c0-1.01150641-.3842277-1.52325196-1.1383195-1.52325196-.6499553 0-1.2532287.44223444-1.2532287 1.33748953v3.40724258h-1.2556227v-8.24545514h1.2556227v3.39525791h.0239394c.3938035-.6160122.9647587-.91922443 1.696108-.91922443 1.1957742 0 1.9271235.93001063 1.9271235 2.40772084z"/><path d="m88.7199123 6.69241872h-3.7644741c.0239394 1.07023132.7301523 1.67425885 1.7763051 1.67425885.5601824 0 1.0700921-.09348046 1.5201533-.26725822l.1963032.87248421c-.5326521.23250266-1.1610619.34875399-1.8936083.34875399-1.7655323 0-2.8104881-1.11697154-2.8104881-2.84875681 0-1.73298375 1.0688952-3.03571772 2.6704425-3.03571772 1.4399563 0 2.3472604 1.07023132 2.3472604 2.68696373.0047878.22051798-.0071819.41826509-.041894.56927197zm-1.1502893-.89525508c0-.87248421-.4404853-1.48849641-1.242456-1.48849641-.7205766 0-1.2891378.62799687-1.3717288 1.48849641z"/></g></g></svg>