<svg height="38" viewBox="0 0 158 38" width="158" xmlns="http://www.w3.org/2000/svg" xmlns:xlink="http://www.w3.org/1999/xlink"><linearGradient id="a" x1="91.536154%" x2="-37.559231%" y1="4.5004%" y2="71.63%"><stop offset="0" stop-color="#00a0ff"/><stop offset=".00657445" stop-color="#00a1ff"/><stop offset=".2601" stop-color="#00beff"/><stop offset=".5122" stop-color="#00d2ff"/><stop offset=".7604" stop-color="#00dfff"/><stop offset="1" stop-color="#00e3ff"/></linearGradient><linearGradient id="b" x1="107.728079%" x2="-130.665025%" y1="50.196512%" y2="50.196512%"><stop offset="0" stop-color="#ffe000"/><stop offset=".4087" stop-color="#ffbd00"/><stop offset=".7754" stop-color="#ffa500"/><stop offset="1" stop-color="#ff9c00"/></linearGradient><linearGradient id="c" x1="86.389222%" x2="-49.888024%" y1="17.934532%" y2="194.512277%"><stop offset="0" stop-color="#ff3a44"/><stop offset="1" stop-color="#c31162"/></linearGradient><linearGradient id="d" x1="-18.579042%" x2="42.27485%" y1="-53.985791%" y2="24.618246%"><stop offset="0" stop-color="#32a071"/><stop offset=".0685" stop-color="#2da771"/><stop offset=".4762" stop-color="#15cf74"/><stop offset=".8009" stop-color="#06e775"/><stop offset="1" stop-color="#00f076"/></linearGradient><g fill="none" fill-rule="evenodd" transform="translate(-.591954 .5)"><g fill="#fff" transform="translate(43.157286 .115131)"><path d="m8.67856136 4.89496891c0 1.08777087-.27120504 2.03957038-.94921764 2.71942717-.81361513.81582815-1.76283278 1.22374223-2.98325547 1.22374223-1.2204227 0-2.16964034-.40791408-2.98325547-1.22374223s-1.22042269-1.76762766-1.22042269-2.99136989.40680756-2.17554174 1.22042269-2.99136989 1.76283277-1.22374222 2.98325547-1.22374222c.54241008 0 1.08482017.13597135 1.62723025.40791407.54241009.27194272.94921765.54388544 1.22042269.95179951l-.6780126.67985679c-.54241009-.67985679-1.22042269-.95179951-2.16964034-.95179951-.81361513 0-1.62723026.27194272-2.16964034.95179951-.67801261.54388544-.94921765 1.35971359-.94921765 2.3115131s.27120504 1.76762766.94921765 2.3115131c.6780126.54388543 1.35602521.95179951 2.16964034.95179951.94921765 0 1.62723025-.27194272 2.30524286-.95179951.40680756-.40791408.67801261-.95179951.67801261-1.63165631h-2.98325547v-.95179951h3.93247311z"/><path d="m14.9162773 1.49568494h-3.661268v2.58345582h3.390063v.95179951h-3.390063v2.58345581h3.661268v.95179951h-4.7460882v-8.15828151h4.7460882z"/><path d="m19.3911605 8.56619559h-1.0848201v-7.206482h-2.3052429v-.95179951h5.6953059v.95179951h-2.3052429z"/><path d="m25.6288765 8.56619559v-8.15828151h1.0848202v8.15828151z"/><path d="m31.3241824 8.56619559h-1.0848201v-7.206482h-2.3052429v-.95179951h5.5597034v.95179951h-2.3052429v7.206482z"/><path d="m44.206422 7.47842472c-.8136152.81582815-1.7628328 1.22374223-2.9832555 1.22374223s-2.1696404-.40791408-2.9832555-1.22374223-1.2204227-1.76762766-1.2204227-2.99136989c0-1.22374222.4068076-2.17554173 1.2204227-2.99136989.8136151-.81582815 1.7628328-1.22374222 2.9832555-1.22374222s2.1696403.40791407 2.9832555 1.22374222c.8136151.81582816 1.2204226 1.76762767 1.2204226 2.99136989 0 1.22374223-.4068075 2.17554174-1.2204226 2.99136989zm-5.1528959-.67985679c.5424101.54388543 1.3560253.95179951 2.1696404.95179951s1.6272302-.27194272 2.1696403-.95179951c.5424101-.54388544.9492177-1.35971359.9492177-2.3115131s-.2712051-1.76762766-.9492177-2.31151309c-.5424101-.54388544-1.3560252-.95179951-2.1696403-.95179951s-1.6272303.27194271-2.1696404.95179951c-.54241.54388543-.9492176 1.35971358-.9492176 2.31151309s.271205 1.76762766.9492176 2.3115131z"/><path d="m46.9184724 8.56619559v-8.15828151h1.2204227l3.9324731 6.39065385v-1.6316563-4.75899755h1.0848202v8.15828151h-1.0848202l-4.2036782-6.66259657v1.6316563 5.03094027z"/></g><path d="m79.9055692 20.6468061c-3.2544606 0-5.8309085 2.4474845-5.8309085 5.8467684 0 3.2633126 2.5764479 5.8467684 5.8309085 5.8467684 3.2544605 0 5.8309084-2.4474844 5.8309084-5.8467684 0-3.3992839-2.5764479-5.8467684-5.8309084-5.8467684zm0 9.2460524c-1.7628328 0-3.2544606-1.495685-3.2544606-3.5352553 0-2.0395704 1.4916278-3.5352554 3.2544606-3.5352554 1.7628327 0 3.2544605 1.3597136 3.2544605 3.5352554 0 2.0395703-1.4916278 3.5352553-3.2544605 3.5352553zm-12.6110345-9.2460524c-3.2544605 0-5.8309084 2.4474845-5.8309084 5.8467684 0 3.2633126 2.5764479 5.8467684 5.8309084 5.8467684s5.8309084-2.4474844 5.8309084-5.8467684c0-3.3992839-2.5764479-5.8467684-5.8309084-5.8467684zm0 9.2460524c-1.7628328 0-3.2544605-1.495685-3.2544605-3.5352553 0-2.0395704 1.4916277-3.5352554 3.2544605-3.5352554 1.7628327 0 3.2544605 1.3597136 3.2544605 3.5352554 0 2.0395703-1.4916278 3.5352553-3.2544605 3.5352553zm-15.0518799-7.4784247v2.4474844h5.8309084c-.1356025 1.3597136-.6780126 2.4474845-1.3560252 3.1273413-.8136151.8158281-2.1696403 1.7676276-4.4748832 1.7676276-3.6612681 0-6.3733185-2.8553985-6.3733185-6.5266252s2.8476529-6.5266252 6.3733185-6.5266252c1.8984353 0 3.390063.8158282 4.4748832 1.7676277l1.7628328-1.7676277c-1.4916278-1.3597136-3.3900631-2.4474844-6.1021135-2.4474844-4.8816907 0-9.0853689 4.0791407-9.0853689 8.9741096s4.2036782 8.9741097 9.0853689 8.9741097c2.7120504 0 4.6104857-.8158282 6.237716-2.5834558 1.6272303-1.6316563 2.1696403-3.9431694 2.1696403-5.7107971 0-.5438854 0-1.0877709-.1356025-1.4956849zm61.5635442 1.903599c-.54241-1.3597136-1.898435-3.6712267-4.88169-3.6712267-2.983256 0-5.424101 2.3115131-5.424101 5.8467684 0 3.2633126 2.440845 5.8467684 5.695306 5.8467684 2.576448 0 4.203678-1.6316563 4.746088-2.5834558l-1.898435-1.3597136c-.678013.9517996-1.491628 1.6316563-2.847653 1.6316563s-2.169641-.5438854-2.847653-1.7676276l7.729344-3.2633126zm-7.864946 1.903599c0-2.1755417 1.762833-3.399284 2.983256-3.399284.949217 0 1.898435.5438855 2.16964 1.2237423zm-6.3733183 5.5748257h2.5764483v-16.9964198h-2.5764483zm-4.0680756-9.9259092c-.6780126-.6798568-1.7628328-1.3597136-3.118858-1.3597136-2.8476529 0-5.5597034 2.5834559-5.5597034 5.8467685s2.5764479 5.710797 5.5597034 5.710797c1.3560252 0 2.4408454-.6798568 2.9832555-1.3597136h.1356025v.8158282c0 2.1755417-1.2204227 3.399284-3.118858 3.399284-1.4916277 0-2.5764479-1.0877709-2.8476529-2.0395704l-2.1696404.9517995c.6780126 1.4956849 2.3052429 3.399284 5.1528958 3.399284 2.9832555 0 5.4241009-1.7676277 5.4241009-5.9827398v-10.3338233h-2.4408454zm-2.9832555 8.0223102c-1.7628327 0-3.2544605-1.495685-3.2544605-3.5352553 0-2.0395704 1.4916278-3.5352554 3.2544605-3.5352554 1.7628328 0 3.118858 1.495685 3.118858 3.5352554 0 2.0395703-1.3560252 3.5352553-3.118858 3.5352553zm33.0870154-15.0928208h-6.102114v16.9964198h2.576448v-6.3906538h3.525666c2.847653 0 5.559703-2.0395704 5.559703-5.302883s-2.71205-5.302883-5.559703-5.302883zm.135602 8.1582815h-3.661268v-5.8467684h3.661268c1.898436 0 2.983256 1.6316563 2.983256 2.8553985-.135603 1.495685-1.220423 2.9913699-2.983256 2.9913699zm15.59429-2.4474845c-1.898435 0-3.79687.8158282-4.474883 2.5834559l2.305243.9517995c.54241-.9517995 1.356025-1.2237423 2.305243-1.2237423 1.356025 0 2.576448.8158282 2.71205 2.1755418v.1359713c-.406807-.2719427-1.491627-.6798568-2.576448-.6798568-2.440845 0-4.88169 1.3597136-4.88169 3.8071981 0 2.3115131 2.034037 3.807198 4.203678 3.807198 1.762833 0 2.576448-.8158281 3.25446-1.6316563h.135603v1.3597136h2.440845v-6.5266252c-.271205-2.9913699-2.576448-4.7589976-5.424101-4.7589976zm-.271205 9.3820238c-.813615 0-2.034038-.4079141-2.034038-1.495685 0-1.3597135 1.491628-1.7676276 2.712051-1.7676276 1.08482 0 1.62723.2719427 2.305243.5438854-.271205 1.6316563-1.627231 2.7194272-2.983256 2.7194272zm14.238265-8.9741097-2.847653 7.3424534h-.135602l-2.983256-7.3424534h-2.71205l4.474883 10.3338233-2.576448 5.710797h2.576448l6.915728-16.0446203zm-22.781224 10.8777087h2.576448v-16.9964198h-2.576448z" fill="#fff"/><g transform="translate(.900608 .115131)"><path d="m.76230607 1.22374223c-.40680757.40791407-.67801261 1.08777087-.67801261 1.90359902v30.04967025c0 .8158281.27120504 1.4956849.67801261 1.903599l.13560252.1359714 16.81471261-16.8604485v-.1359713-.1359714z" fill="url(#a)"/><path d="m23.2723246 23.9309591-5.5597034-5.5748257v-.1359713-.1359714l5.5597034-5.8467684.1356025.1359713 6.6445236 3.8071981c1.8984353 1.0877708 1.8984353 2.8553985 0 3.9431694z" fill="url(#b)"/><path d="m23.4079271 23.7949878-5.6953059-5.7107971-16.95031513 16.9964198c.6780126.6798568 1.62723025.6798568 2.84765294.1359714z" fill="url(#c)"/><path d="m23.4079271 12.3733936-19.79796809-11.28562273c-1.22042269-.67985679-2.16964034-.54388544-2.84765294.13597136l16.95031513 16.99641987z" fill="url(#d)"/><g fill="#000" transform="translate(0 23.115131)"><path d="m23.2723246.54388543-19.66236559 11.14965137c-1.08482017.6798568-2.03403782.5438855-2.71205042 0l-.13560252.1359714.13560252.1359714c.6780126.5438854 1.62723025.6798567 2.71205042 0z" opacity=".2"/><path d="m.76230607 11.6935368c-.40680757-.407914-.67801261-1.0877708-.67801261-1.90359898v.13597136c0 .81582812.27120504 1.49568492.67801261 1.90359902z" opacity=".12"/></g><path d="m30.0524507 19.8518184-6.7801261 3.807198.1356025.1359714 6.6445236-3.8071981c.9492176-.5438854 1.3560252-1.2237422 1.3560252-1.903599 0 .6798568-.5424101 1.3597136-1.3560252 1.7676277z" fill="#000" opacity=".12"/><path d="m3.60995901 1.22374223 26.44249169 15.09282077c.8136151.5438855 1.3560252 1.0877709 1.3560252 1.7676277 0-.6798568-.4068076-1.3597136-1.3560252-1.903599l-26.44249169-15.09282083c-1.89843529-1.08777087-3.39006303-.13597136-3.39006303 2.03957038v.13597136c0-2.17554174 1.49162774-3.12734125 3.39006303-2.03957038z" fill="#fff" opacity=".25"/></g></g></svg>