<?xml version="1.0" encoding="utf-8"?>
<!-- Generator: Adobe Illustrator 16.0.0, SVG Export Plug-In . SVG Version: 6.00 Build 0)  -->
<!DOCTYPE svg PUBLIC "-//W3C//DTD SVG 1.1//EN" "http://www.w3.org/Graphics/SVG/1.1/DTD/svg11.dtd">
<svg version="1.1" id="Layer_1" xmlns="http://www.w3.org/2000/svg" xmlns:xlink="http://www.w3.org/1999/xlink" x="0px" y="0px"
	 width="682px" height="682px" viewBox="0 0 682 682" enable-background="new 0 0 682 682" xml:space="preserve">
<path d="M551.452-1.043H87.882c-48.468,0-87.902,39.426-87.902,87.902v283.696c0,48.366,39.262,87.73,87.59,87.901v128.737
	l185.01-128.737h278.872c48.468,0,87.902-39.434,87.902-87.901V86.859C639.354,38.383,599.92-1.043,551.452-1.043z M601.891,370.555
	c0,27.809-22.626,50.438-50.438,50.438H260.826l-135.793,94.493v-94.493H87.882c-27.813,0-50.439-22.63-50.439-50.438V86.859
	c0-27.817,22.626-50.439,50.439-50.439h463.57c27.813,0,50.438,22.622,50.438,50.439V370.555z"/>
<path d="M171.105,131.331h297.124v37.463H171.105V131.331z"/>
<path d="M171.105,211.253h297.124v37.463H171.105V211.253z"/>
<path d="M171.105,291.175h297.124v37.463H171.105V291.175z"/>
</svg>
