<?xml version="1.0" encoding="utf-8"?>
<!-- Generator: Adobe Illustrator 16.0.0, SVG Export Plug-In . SVG Version: 6.00 Build 0)  -->
<!DOCTYPE svg PUBLIC "-//W3C//DTD SVG 1.1//EN" "http://www.w3.org/Graphics/SVG/1.1/DTD/svg11.dtd">
<svg version="1.1" id="Capa_1" xmlns="http://www.w3.org/2000/svg" xmlns:xlink="http://www.w3.org/1999/xlink" x="0px" y="0px"
	 width="612px" height="792px" viewBox="0 0 612 792" enable-background="new 0 0 612 792" xml:space="preserve">
<g>
	<path d="M306,90C137.272,90,0,227.272,0,396c0,168.729,137.272,306,306,306c168.729,0,306-137.271,306-306
		C612,227.272,474.73,90,306,90z M306,668.918c-74.965,0-142.96-30.385-192.334-79.478c-19.716-19.605-36.454-42.2-49.486-67.032
		C44.333,484.595,33.082,441.589,33.082,396c0-150.488,122.431-272.918,272.918-272.918c71.38,0,136.435,27.557,185.118,72.577
		c25.241,23.339,46.085,51.367,61.114,82.696c17.099,35.643,26.687,75.545,26.687,117.646
		C578.918,546.488,456.488,668.918,306,668.918z"/>
	<path d="M201.404,326.533c17.782,0,32.249,13.64,32.249,32.249h33.082c0-37.217-29.306-65.33-65.33-65.33
		c-36.023,0-65.33,28.113-65.33,65.33h33.082C169.156,340.173,183.625,326.533,201.404,326.533z"/>
	<path d="M410.592,326.533c17.781,0,32.248,13.64,32.248,32.249h33.081c0-37.217-29.306-65.33-65.329-65.33
		c-36.024,0-65.33,28.113-65.33,65.33h33.081C378.343,340.173,392.811,326.533,410.592,326.533z"/>
	<path d="M305.415,565.537c64,0,125.335-32.73,160.453-87.073l-27.786-17.955c-32.246,49.901-91.251,77.752-150.3,70.936
		c-46.029-5.308-88.594-31.827-113.866-70.936l-27.785,17.955c30.58,47.325,82.117,79.414,137.859,85.843
		C291.146,565.134,298.292,565.537,305.415,565.537z"/>
</g>
</svg>
