<?xml version="1.0" encoding="utf-8"?>
<!-- Generator: Adobe Illustrator 16.0.0, SVG Export Plug-In . SVG Version: 6.00 Build 0)  -->
<!DOCTYPE svg PUBLIC "-//W3C//DTD SVG 1.1//EN" "http://www.w3.org/Graphics/SVG/1.1/DTD/svg11.dtd">
<svg version="1.1" id="Capa_1" xmlns="http://www.w3.org/2000/svg" xmlns:xlink="http://www.w3.org/1999/xlink" x="0px" y="0px"
	 width="612px" height="792px" viewBox="0 0 612 792" enable-background="new 0 0 612 792" xml:space="preserve">
<g>
	<path d="M360.125,396.007l240.661-240.662c14.952-14.939,14.952-39.179,0-54.118c-14.952-14.952-39.166-14.952-54.118,0
		L306.007,341.888L65.332,101.227c-14.952-14.952-39.166-14.952-54.118,0c-14.952,14.939-14.952,39.179,0,54.118l240.674,240.662
		L11.214,636.668c-14.952,14.939-14.952,39.179,0,54.118c7.476,7.463,17.274,11.201,27.059,11.201s19.583-3.738,27.059-11.214
		l240.675-240.662l240.661,240.662c7.476,7.476,17.273,11.214,27.059,11.214s19.583-3.738,27.06-11.214
		c14.952-14.939,14.952-39.179,0-54.118L360.125,396.007z"/>
</g>
</svg>
