<svg height="120" viewBox="0 0 150 120" width="150" xmlns="http://www.w3.org/2000/svg"><g style="fill:none;fill-rule:evenodd;stroke:#1fd3c6;stroke-linecap:round;stroke-linejoin:round;stroke-width:3"><path d="m60.312 116.5h-13.412c-8.504 0-15.461-6.957-15.461-15.461v-7.349m78.204 22.81h-49.33m-28.874-96.54c0-8.502 6.957-15.46 15.461-15.46h81.078c8.504 0 15.461 6.958 15.461 15.46v81.079c0 8.504-6.957 15.46-15.461 15.46h-18.335"/><path d="m56.378 50.511c0-13.498-10.942-24.439-24.439-24.439-13.498 0-24.44 10.941-24.44 24.44 0 13.496 24.44 44.55 24.44 44.55s24.44-31.054 24.44-44.55z"/><path d="m42.064 49.566c0-5.592-4.533-10.125-10.125-10.125s-10.125 4.533-10.125 10.125 4.533 10.125 10.125 10.125 10.125-4.533 10.125-10.125zm100.922-17.699h-32.672v83.99m-9.333.084v-45.083h-52.417m5.5-10h46.917v-56"/></g></svg>