<svg height="512" viewBox="0 0 64 64" width="512" xmlns="http://www.w3.org/2000/svg"><path d="m59 3h-54a2.006 2.006 0 0 0 -2 2v37a2.006 2.006 0 0 0 2 2h54a2.006 2.006 0 0 0 2-2v-37a2.006 2.006 0 0 0 -2-2z" fill="#57565c"/><path d="m11 7h42v16h-42z" fill="#bdfdff"/><path d="m46 29h-28a2.006 2.006 0 0 0 -2 2v6h32v-6a2.006 2.006 0 0 0 -2-2z" fill="#e0e0e2"/><path d="m21 33h22v28h-22z" fill="#00eed1"/><path d="m27 61h-6v-6a6 6 0 0 1 6 6z" fill="#5eac24"/><path d="m43 55v6h-6a6 6 0 0 1 6-6z" fill="#5eac24"/><circle cx="32" cy="44" fill="#ffda44" r="8"/><path d="m33 43v-2a1 1 0 0 1 1 1h2a3 3 0 0 0 -3-3v-1h-2v1a3 3 0 0 0 0 6v2a1 1 0 0 1 -1-1h-2a3 3 0 0 0 3 3v1h2v-1a3 3 0 0 0 0-6zm-3-1a1 1 0 0 1 1-1v2a1 1 0 0 1 -1-1zm3 5v-2a1 1 0 0 1 0 2z" fill="#fff"/><path d="m18 32h28v2h-28z" fill="#2d2d30"/><g fill="#fff"><path d="m46 14v-2a1 1 0 0 1 1 1h2a3 3 0 0 0 -3-3v-1h-2v1a3 3 0 0 0 0 6v2a1 1 0 0 1 -1-1h-2a3 3 0 0 0 3 3v1h2v-1a3 3 0 0 0 0-6zm-3-1a1 1 0 0 1 1-1v2a1 1 0 0 1 -1-1zm3 5v-2a1 1 0 0 1 0 2z"/><path d="m36 14v-2a1 1 0 0 1 1 1h2a3 3 0 0 0 -3-3v-1h-2v1a3 3 0 0 0 0 6v2a1 1 0 0 1 -1-1h-2a3 3 0 0 0 3 3v1h2v-1a3 3 0 0 0 0-6zm-3-1a1 1 0 0 1 1-1v2a1 1 0 0 1 -1-1zm3 5v-2a1 1 0 0 1 0 2z"/></g></svg>