<?xml version="1.0" encoding="utf-8"?>
<!-- Generator: Adobe Illustrator 16.0.0, SVG Export Plug-In . SVG Version: 6.00 Build 0)  -->
<!DOCTYPE svg PUBLIC "-//W3C//DTD SVG 1.1//EN" "http://www.w3.org/Graphics/SVG/1.1/DTD/svg11.dtd">
<svg version="1.1" id="Layer_1" xmlns="http://www.w3.org/2000/svg" xmlns:xlink="http://www.w3.org/1999/xlink" x="0px" y="0px"
	 width="5000px" height="5000px" viewBox="0 0 5000 5000" enable-background="new 0 0 5000 5000" xml:space="preserve">
<path fill="#0C2257" d="M2512.745,3888.618l-0.328-39.998c62.706-0.514,125.803-4.986,187.539-13.294l5.334,39.643
	C2641.901,3883.499,2577.119,3888.091,2512.745,3888.618z M2432.279,3887.192c-64.292-2.81-128.882-9.723-191.974-20.548
	l6.765-39.424c61.438,10.541,124.339,17.273,186.955,20.01L2432.279,3887.192z M2784.753,3862.129l-7.424-39.305
	c61.451-11.607,122.733-27.283,182.144-46.594l12.365,38.041C2910.814,3834.105,2847.87,3850.207,2784.753,3862.129z
	 M2161.354,3850.934c-62.661-14.208-125.023-32.603-185.355-54.675l13.743-37.564c58.737,21.488,119.453,39.396,180.458,53.229
	L2161.354,3850.934z M3047.714,3787.356l-14.37-37.33c58.245-22.421,115.672-48.837,170.688-78.514l18.99,35.205
	C3166.519,3737.197,3107.537,3764.328,3047.714,3787.356z M1901.011,3766.536c-59-25.223-117.019-54.522-172.447-87.086
	l20.262-34.488c53.971,31.707,110.463,60.236,167.909,84.795L1901.011,3766.536z M3292.752,3666.69l-20.822-34.154
	c53.314-32.503,105.129-68.771,154.005-107.799l24.959,31.258C3400.706,3596.069,3347.5,3633.313,3292.752,3666.69z
	 M1660.191,3636.81c-53.527-35.378-105.366-74.555-154.076-116.443l26.081-30.328c47.438,40.795,97.922,78.949,150.05,113.4
	L1660.191,3636.81z M3512.437,3504.148l-26.564-29.904c46.738-41.518,91.302-86.43,132.455-133.49l30.111,26.332
	C3606.184,3415.405,3560.426,3461.521,3512.437,3504.148z M1446.469,3466.284c-46.41-44.354-90.454-92.101-130.911-141.915
	l31.05-25.217c39.401,48.515,82.298,95.017,127.498,138.214L1446.469,3466.284z M3699.839,3305.096l-31.452-24.715
	c38.664-49.205,74.543-101.333,106.64-154.935l34.317,20.551C3776.384,3201.039,3739.541,3254.567,3699.839,3305.096z
	 M1266.496,3260.604c-37.813-51.91-72.657-106.712-103.563-162.883l35.045-19.282c30.095,54.697,64.026,108.063,100.849,158.614
	L1266.496,3260.604z M3848.907,3075.776l-35.357-18.705c29.267-55.32,55.244-113.033,77.21-171.536l37.447,14.061
	C3905.646,2959.685,3878.966,3018.96,3848.907,3075.776z M1126.059,3026.294c-27.95-57.843-52.435-118.027-72.776-178.88
	l37.937-12.682c19.804,59.246,43.643,117.842,70.855,174.159L1126.059,3026.294z M3954.546,2823.328l-38.145-12.044
	c18.809-59.567,33.97-120.979,45.063-182.527l39.365,7.094C3989.437,2699.068,3973.864,2762.145,3954.546,2823.328z
	 M1029.799,2770.408c-17.066-61.814-30.332-125.413-39.428-189.032l39.597-5.662c8.857,61.943,21.773,123.866,38.389,184.049
	L1029.799,2770.408z M4013.005,2556.281l-39.686-5.004c7.792-61.799,11.743-124.941,11.743-187.67l-0.002-2.562l40-0.09l0.002,2.674
	C4025.063,2428.003,4021.006,2492.828,4013.005,2556.281z M981.082,2501.427c-4.077-45.51-6.144-91.879-6.144-137.819
	c0-18.327,0.33-36.886,0.979-55.163l39.975,1.421c-0.633,17.806-0.954,35.888-0.954,53.742c0,44.754,2.013,89.922,5.985,134.25
	L981.082,2501.427z M3982.893,2282.646c-3.36-62.574-10.727-125.403-21.893-186.744l39.354-7.164
	c11.467,62.994,19.031,127.512,22.482,191.763L3982.893,2282.646z M1020.721,2231.626l-39.846-3.508
	c5.641-64.065,15.422-128.288,29.07-190.885l39.082,8.521C1035.738,2106.704,1026.214,2169.241,1020.721,2231.626z
	 M3944.925,2019.192c-14.442-60.818-32.953-121.305-55.019-179.781l37.425-14.121c22.664,60.063,41.677,122.192,56.512,184.661
	L3944.925,2019.192z M1067.753,1969.646l-38.574-10.586c16.999-61.939,38.172-123.409,62.933-182.702l36.911,15.414
	C1104.917,1849.498,1084.302,1909.344,1067.753,1969.646z M3860.362,1766.99c-25.098-57.143-54.146-113.295-86.341-166.898
	l34.291-20.595c33.063,55.049,62.896,112.719,88.673,171.407L3860.362,1766.99z M1161.192,1720.151l-36.04-17.354
	c27.835-57.807,59.692-114.457,94.687-168.376l33.553,21.777C1219.316,1608.703,1188.295,1663.864,1161.192,1720.151z
	 M3731.943,1534.042c-34.938-51.779-73.554-101.878-114.775-148.905l30.08-26.367c42.326,48.287,81.978,99.729,117.854,152.898
	L3731.943,1534.042z M1297.824,1491.54l-32.359-23.514c37.722-51.91,79.153-101.959,123.145-148.756l29.145,27.396
	C1374.911,1392.243,1334.561,1440.986,1297.824,1491.54z M3563.968,1327.566c-43.629-44.799-90.541-87.26-139.431-126.203
	l24.922-31.287c50.199,39.986,98.367,83.584,143.165,129.582L3563.968,1327.566z M1472.934,1290.97l-27.667-28.887
	c46.371-44.413,96.016-86.3,147.556-124.499l23.817,32.136C1566.445,1206.921,1518.095,1247.716,1472.934,1290.97z
	 M3361.919,1154.122c-50.938-36.366-104.666-69.806-159.689-99.39l18.941-35.231c56.507,30.381,111.681,64.722,163.99,102.066
	L3361.919,1154.122z M1680.779,1124.748l-22.095-33.344c53.535-35.473,109.827-67.843,167.313-96.211l17.701,35.87
	C1787.723,1058.685,1732.909,1090.205,1680.779,1124.748z M3132.13,1019.406c-56.607-26.668-115.467-49.938-174.944-69.162
	l12.303-38.061c61.091,19.746,121.547,43.647,179.688,71.038L3132.13,1019.406z M1914.755,998.308l-15.777-36.757
	c59.015-25.331,120.234-47.1,181.956-64.702l10.97,38.467C2031.813,952.453,1972.211,973.646,1914.755,998.308z M2881.991,928.129
	c-60.337-16.013-122.385-28.313-184.423-36.559l5.271-39.651c63.714,8.468,127.441,21.102,189.412,37.549L2881.991,928.129z
	 M2167.821,915.833l-8.91-38.995c62.468-14.272,126.592-24.689,190.59-30.959l3.9,39.81
	C2291.083,891.794,2228.645,901.937,2167.821,915.833z M2619.623,883.292c-39.522-3.15-79.77-4.747-119.623-4.747
	c-22.744,0-45.761,0.521-68.41,1.547l-1.812-39.959c23.25-1.054,46.875-1.588,70.221-1.588c40.909,0,82.226,1.64,122.801,4.873
	L2619.623,883.292z"/>
<path fill="#EFECEA" d="M2466.745,3888.618l-0.328-39.998c62.706-0.514,125.803-4.986,187.539-13.294l5.334,39.643
	C2595.901,3883.499,2531.119,3888.091,2466.745,3888.618z M2386.279,3887.192c-64.292-2.81-128.882-9.723-191.974-20.548
	l6.765-39.424c61.438,10.541,124.339,17.273,186.955,20.01L2386.279,3887.192z M2738.753,3862.129l-7.424-39.305
	c61.451-11.607,122.733-27.283,182.144-46.594l12.365,38.041C2864.814,3834.105,2801.87,3850.207,2738.753,3862.129z
	 M2115.354,3850.934c-62.661-14.208-125.023-32.603-185.355-54.675l13.743-37.564c58.737,21.488,119.453,39.396,180.458,53.229
	L2115.354,3850.934z M3001.714,3787.356l-14.37-37.33c58.245-22.421,115.672-48.837,170.688-78.514l18.99,35.205
	C3120.519,3737.197,3061.537,3764.328,3001.714,3787.356z M1855.011,3766.536c-59-25.223-117.019-54.522-172.447-87.086
	l20.262-34.488c53.971,31.707,110.463,60.236,167.909,84.795L1855.011,3766.536z M3246.752,3666.69l-20.822-34.154
	c53.314-32.503,105.129-68.771,154.005-107.799l24.959,31.258C3354.706,3596.069,3301.5,3633.313,3246.752,3666.69z
	 M1614.191,3636.81c-53.527-35.378-105.366-74.555-154.076-116.443l26.081-30.328c47.438,40.795,97.922,78.949,150.05,113.4
	L1614.191,3636.81z M3466.437,3504.148l-26.564-29.904c46.738-41.518,91.302-86.43,132.455-133.49l30.111,26.332
	C3560.184,3415.405,3514.426,3461.521,3466.437,3504.148z M1400.469,3466.284c-46.41-44.354-90.454-92.101-130.911-141.915
	l31.05-25.217c39.401,48.515,82.298,95.017,127.498,138.214L1400.469,3466.284z M3653.839,3305.096l-31.452-24.715
	c38.664-49.205,74.543-101.333,106.64-154.935l34.317,20.551C3730.384,3201.039,3693.541,3254.567,3653.839,3305.096z
	 M1220.496,3260.604c-37.813-51.91-72.657-106.712-103.563-162.883l35.045-19.282c30.095,54.697,64.026,108.063,100.849,158.614
	L1220.496,3260.604z M3802.907,3075.776l-35.357-18.705c29.267-55.32,55.244-113.033,77.21-171.536l37.447,14.061
	C3859.646,2959.685,3832.966,3018.96,3802.907,3075.776z M1080.059,3026.294c-27.95-57.843-52.435-118.027-72.776-178.88
	l37.937-12.682c19.804,59.246,43.643,117.842,70.855,174.159L1080.059,3026.294z M3908.546,2823.328l-38.145-12.044
	c18.809-59.567,33.97-120.979,45.063-182.527l39.365,7.094C3943.437,2699.068,3927.864,2762.145,3908.546,2823.328z
	 M983.799,2770.408c-17.066-61.814-30.332-125.413-39.428-189.032l39.597-5.662c8.857,61.943,21.773,123.866,38.389,184.049
	L983.799,2770.408z M3967.005,2556.281l-39.686-5.004c7.792-61.799,11.743-124.941,11.743-187.67l-0.002-2.562l40-0.09l0.002,2.674
	C3979.063,2428.003,3975.006,2492.828,3967.005,2556.281z M935.082,2501.427c-4.077-45.51-6.144-91.879-6.144-137.819
	c0-18.327,0.33-36.886,0.979-55.163l39.975,1.421c-0.633,17.806-0.954,35.888-0.954,53.742c0,44.754,2.013,89.922,5.985,134.25
	L935.082,2501.427z M3936.893,2282.646c-3.36-62.574-10.727-125.403-21.893-186.744l39.354-7.164
	c11.467,62.994,19.031,127.512,22.482,191.763L3936.893,2282.646z M974.721,2231.626l-39.846-3.508
	c5.641-64.065,15.422-128.288,29.07-190.885l39.082,8.521C989.738,2106.704,980.214,2169.241,974.721,2231.626z M3898.925,2019.192
	c-14.442-60.818-32.953-121.305-55.019-179.781l37.425-14.121c22.664,60.063,41.677,122.192,56.512,184.661L3898.925,2019.192z
	 M1021.753,1969.646l-38.574-10.586c16.999-61.939,38.172-123.409,62.933-182.702l36.911,15.414
	C1058.917,1849.498,1038.302,1909.344,1021.753,1969.646z M3814.362,1766.99c-25.098-57.143-54.146-113.295-86.341-166.898
	l34.291-20.595c33.063,55.049,62.896,112.719,88.673,171.407L3814.362,1766.99z M1115.192,1720.151l-36.04-17.354
	c27.835-57.807,59.692-114.457,94.687-168.376l33.553,21.777C1173.316,1608.703,1142.295,1663.864,1115.192,1720.151z
	 M3685.943,1534.042c-34.938-51.779-73.554-101.878-114.775-148.905l30.08-26.367c42.326,48.287,81.978,99.729,117.854,152.898
	L3685.943,1534.042z M1251.824,1491.54l-32.359-23.514c37.722-51.91,79.153-101.959,123.145-148.756l29.145,27.396
	C1328.911,1392.243,1288.561,1440.986,1251.824,1491.54z M3517.968,1327.566c-43.629-44.799-90.541-87.26-139.431-126.203
	l24.922-31.287c50.199,39.986,98.367,83.584,143.165,129.582L3517.968,1327.566z M1426.934,1290.97l-27.667-28.887
	c46.371-44.413,96.016-86.3,147.556-124.499l23.817,32.136C1520.445,1206.921,1472.095,1247.716,1426.934,1290.97z
	 M3315.919,1154.122c-50.938-36.366-104.666-69.806-159.689-99.39l18.941-35.231c56.507,30.381,111.681,64.722,163.99,102.066
	L3315.919,1154.122z M1634.779,1124.748l-22.095-33.344c53.535-35.473,109.827-67.843,167.313-96.211l17.701,35.87
	C1741.723,1058.685,1686.909,1090.205,1634.779,1124.748z M3086.13,1019.406c-56.607-26.668-115.467-49.938-174.944-69.162
	l12.303-38.061c61.091,19.746,121.547,43.647,179.688,71.038L3086.13,1019.406z M1868.755,998.308l-15.777-36.757
	c59.015-25.331,120.234-47.1,181.957-64.702l10.97,38.467C1985.813,952.453,1926.211,973.646,1868.755,998.308z M2835.991,928.129
	c-60.337-16.013-122.385-28.313-184.423-36.559l5.271-39.651c63.714,8.468,127.441,21.102,189.412,37.549L2835.991,928.129z
	 M2121.821,915.833l-8.91-38.995c62.468-14.272,126.592-24.689,190.59-30.959l3.9,39.81
	C2245.083,891.794,2182.645,901.937,2121.821,915.833z M2573.623,883.292c-39.522-3.15-79.77-4.747-119.623-4.747
	c-22.744,0-45.761,0.521-68.41,1.547l-1.812-39.959c23.25-1.054,46.875-1.588,70.221-1.588c40.909,0,82.226,1.64,122.801,4.873
	L2573.623,883.292z"/>
<g>
	<path fill="#0C2257" d="M4098.19,3329.309l-34.066-20.963c273.186-443.946,352.327-942.377,222.849-1403.479
		c-129.172-460.006-460.174-845.885-932.032-1086.555l18.174-35.633c246.086,125.516,453.953,287.925,617.825,482.717
		c78.655,93.496,147.018,194.628,203.188,300.589c55.354,104.42,99.549,214.798,131.354,328.067
		c32.27,114.916,52.149,234.066,59.089,354.142c6.945,120.196,0.995,242.553-17.687,363.671
		c-18.856,122.254-50.895,244.575-95.223,363.564C4226.572,3096.464,4168.208,3215.525,4098.19,3329.309z"/>
	<g>
		<polygon fill="#0C2257" points="3991.707,3452.67 4039.413,3212.31 4087.079,3308.315 4194.069,3314.487 		"/>
	</g>
</g>
<g>
	<path fill="#EFECEA" d="M4068.19,3338.309l-34.066-20.963c273.186-443.946,352.327-942.377,222.849-1403.479
		c-129.172-460.006-460.174-845.885-932.032-1086.555l18.174-35.633c246.086,125.516,453.953,287.925,617.825,482.717
		c78.655,93.496,147.018,194.628,203.188,300.589c55.354,104.42,99.549,214.798,131.354,328.067
		c32.27,114.916,52.149,234.066,59.089,354.142c6.945,120.196,0.995,242.553-17.687,363.671
		c-18.856,122.254-50.895,244.575-95.223,363.564C4196.572,3105.464,4138.208,3224.525,4068.19,3338.309z"/>
	<g>
		<polygon fill="#EFECEA" points="3961.707,3461.67 4009.413,3221.31 4057.079,3317.315 4164.069,3323.487 		"/>
	</g>
</g>
<g>
	<g>
		<path fill="#474646" d="M2815.689,397.459h-744.746c-36.1,0-65.041,29.259-65.041,65.677v1418.481l831.119-1480.685
			C2830.309,398.607,2823.156,397.459,2815.689,397.459z"/>
		<path fill="#282828" d="M2837.047,400.801l-831.144,1480.816v12.997c0,36.418,28.941,65.243,65.041,65.243h744.746
			c36.1,0,65.859-28.824,65.859-65.243V463.136C2881.549,434.251,2862.792,409.72,2837.047,400.801z"/>
	</g>
	<path fill="#E8EFEE" d="M2513.043,1887.526c0,16.038-12.732,28.864-28.629,28.864h-90.021c-15.897,0-28.258-12.826-28.258-28.864
		v-79.535c0-16.037,12.361-28.607,28.258-28.607h90.021c15.897,0,28.629,12.57,28.629,28.607V1887.526z M2503.565,1808.463
		c0-10.691-9.021-19.38-19.62-19.38h-90.203c-10.598,0-19.315,8.688-19.315,19.38v79.719c0,10.692,8.717,19.721,19.315,19.721
		h90.203c10.598,0,19.62-9.029,19.62-19.721V1808.463z"/>
	<path fill="#E8EFEE" d="M2650.475,477.291c0,9.338-7.254,16.899-16.511,16.899h-368.995c-9.257,0-17.309-7.561-17.309-16.899
		v-0.021c0-9.338,8.052-17.028,17.309-17.028h368.995c9.257,0,16.511,7.689,16.511,17.028V477.291z"/>
	<ellipse fill="#050505" cx="2321.418" cy="477.216" rx="8.965" ry="9.044"/>
	<ellipse fill="#050505" cx="2276.155" cy="477.216" rx="8.965" ry="9.044"/>
	<ellipse fill="#050505" cx="2369.382" cy="477.216" rx="8.965" ry="9.044"/>
	<ellipse fill="#050505" cx="2405.981" cy="477.408" rx="7.958" ry="8.028"/>
	<ellipse fill="#050505" cx="2447.358" cy="477.408" rx="7.958" ry="8.028"/>
	<ellipse fill="#050505" cx="2490.535" cy="477.408" rx="7.958" ry="8.028"/>
	<ellipse fill="#050505" cx="2573.291" cy="477.408" rx="7.958" ry="8.028"/>
	<ellipse fill="#050505" cx="2532.513" cy="477.408" rx="7.958" ry="8.028"/>
	<ellipse fill="#050505" cx="2613.469" cy="477.408" rx="7.958" ry="8.028"/>
	<path fill="#F0F7F0" d="M2266.272,1406.092"/>
	<rect x="2094.188" y="559.383" fill="#BFD1CF" width="699.078" height="1160.312"/>
	<rect x="2224.122" y="1036.36" fill="#BCBBBB" width="461.396" height="67.511"/>
	<rect x="2244.417" y="1149.845" fill="#9B9A9A" width="12.425" height="219.184"/>
	<rect x="2256.842" y="1149.845" fill="#919090" width="12.425" height="219.184"/>
	<rect x="2269.268" y="1149.845" fill="#7C7B7B" width="12.426" height="219.184"/>
	<rect x="2369.913" y="1149.845" fill="#9B9A9A" width="12.839" height="219.184"/>
	<rect x="2382.752" y="1149.845" fill="#919090" width="12.011" height="219.184"/>
	<rect x="2394.764" y="1149.845" fill="#7C7B7B" width="12.839" height="219.184"/>
	<rect x="2498.309" y="1149.845" fill="#9B9A9A" width="12.84" height="219.184"/>
	<rect x="2511.148" y="1149.845" fill="#919090" width="12.839" height="219.184"/>
	<rect x="2523.987" y="1149.845" fill="#7C7B7B" width="12.012" height="219.184"/>
	<rect x="2627.118" y="1149.845" fill="#9B9A9A" width="12.839" height="219.184"/>
	<rect x="2639.957" y="1149.845" fill="#919090" width="12.012" height="219.184"/>
	<rect x="2651.969" y="1149.845" fill="#7C7B7B" width="12.84" height="219.184"/>
	<rect x="2226.607" y="1395.537" fill="#767577" width="453.111" height="12.425"/>
	<rect x="2213.768" y="1407.962" fill="#9B9A9A" width="478.377" height="12.84"/>
	<rect x="2202.171" y="1420.802" fill="#767577" width="500.741" height="12.839"/>
	<rect x="2191.816" y="1433.641" fill="#9B9A9A" width="524.35" height="16.153"/>
	<rect x="2180.634" y="1449.794" fill="#767577" width="549.614" height="12.011"/>
	<rect x="2169.036" y="1461.805" fill="#9B9A9A" width="572.396" height="11.597"/>
	<rect x="2153.298" y="1473.402" fill="#767577" width="602.63" height="12.839"/>
	<g>
		<path fill="#9B9A9A" d="M2237.368,1348.32c-4.36,0-7.861,3.907-7.861,8.549v0.199c0,4.642,3.501,8.233,7.861,8.233h0.008v12.839
			h-4.125c-5.186,0-9.129,3.508-9.129,8.15v0.199c0,4.643,3.944,8.218,9.129,8.218h29.804v-46.388H2237.368z"/>
		<path fill="#7C7B7B" d="M2293.046,1378.141h-5.14v-12.839h-0.271c4.36,0,8.141-3.591,8.141-8.233v-0.199
			c0-4.642-3.781-8.549-8.141-8.549h-24.579v46.388h29.991c5.186,0,9.356-3.575,9.356-8.218v-0.199
			C2302.402,1381.649,2298.231,1378.141,2293.046,1378.141z"/>
	</g>
	<g>
		<path fill="#9B9A9A" d="M2362.999,1348.32c-4.359,0-7.996,3.907-7.996,8.549v0.199c0,4.642,3.636,8.233,7.996,8.233h-0.126v12.839
			h-3.99c-5.186,0-9.264,3.508-9.264,8.15v0.199c0,4.643,4.078,8.218,9.264,8.218h29.669v-46.388H2362.999z"/>
		<path fill="#7C7B7B" d="M2418.676,1378.141h-5.274v-12.839h-0.137c4.359,0,8.007-3.591,8.007-8.233v-0.199
			c0-4.642-3.647-8.549-8.007-8.549h-24.714v46.388h30.125c5.186,0,9.222-3.575,9.222-8.218v-0.199
			C2427.898,1381.649,2423.862,1378.141,2418.676,1378.141z"/>
	</g>
	<g>
		<path fill="#9B9A9A" d="M2491.22,1348.32c-4.36,0-7.407,3.907-7.407,8.549v0.199c0,4.642,3.047,8.233,7.407,8.233h0.048v12.839
			h-4.165c-5.186,0-9.503,3.508-9.503,8.15v0.199c0,4.643,4.317,8.218,9.503,8.218h29.843v-46.388H2491.22z"/>
		<path fill="#7C7B7B" d="M2546.897,1378.141h-5.101v-12.839h-0.311c4.359,0,8.18-3.591,8.18-8.233v-0.199
			c0-4.642-3.82-8.549-8.18-8.549h-24.54v46.388h29.951c5.186,0,9.81-3.575,9.81-8.218v-0.199
			C2556.707,1381.649,2552.083,1378.141,2546.897,1378.141z"/>
	</g>
	<g>
		<path fill="#9B9A9A" d="M2619.872,1348.32c-4.359,0-8.079,3.907-8.079,8.549v0.199c0,4.642,3.72,8.233,8.079,8.233h-0.209v12.839
			h-3.907c-5.186,0-9.347,3.508-9.347,8.15v0.199c0,4.643,4.161,8.218,9.347,8.218h29.172v-46.388H2619.872z"/>
		<path fill="#7C7B7B" d="M2675.55,1378.141h-5.357v-12.839h-0.054c4.359,0,7.924-3.591,7.924-8.233v-0.199
			c0-4.642-3.564-8.549-7.924-8.549h-25.211v46.388h30.622c5.186,0,9.553-3.575,9.553-8.218v-0.199
			C2685.103,1381.649,2680.735,1378.141,2675.55,1378.141z"/>
	</g>
	<g>
		<path fill="#9B9A9A" d="M2236.936,1149.845c-4.359,0-7.844-3.603-7.844-8.245v-0.199c0-4.642,3.484-8.538,7.844-8.538h0.026
			v-12.425h-4.142c-5.186,0-9.112-3.618-9.112-8.26v-0.199c0-4.642,3.926-8.108,9.112-8.108h29.407v45.974H2236.936z"/>
		<path fill="#7C7B7B" d="M2292.614,1120.438h-5.537v12.425h0.125c4.359,0,7.744,3.896,7.744,8.538v0.199
			c0,4.642-3.385,8.245-7.744,8.245h-24.976v-45.974h30.388c5.186,0,9.374,3.466,9.374,8.108v0.199
			C2301.988,1116.821,2297.8,1120.438,2292.614,1120.438z"/>
	</g>
	<g>
		<path fill="#9B9A9A" d="M2620.304,1149.845c-4.359,0-7.683-3.603-7.683-8.245v-0.199c0-4.642,3.323-8.538,7.683-8.538h0.188
			v-12.425h-4.304c-5.186,0-9.364-3.618-9.364-8.26v-0.199c0-4.642,4.179-8.108,9.364-8.108h29.568v45.974H2620.304z"/>
		<path fill="#7C7B7B" d="M2675.981,1120.438h-5.375v12.425h-0.036c4.359,0,7.905,3.896,7.905,8.538v0.199
			c0,4.642-3.546,8.245-7.905,8.245h-24.814v-45.974h30.226c5.186,0,9.536,3.466,9.536,8.108v0.199
			C2685.518,1116.821,2681.167,1120.438,2675.981,1120.438z"/>
	</g>
	<g>
		<path fill="#9B9A9A" d="M2491.22,1149.845c-4.36,0-7.407-3.603-7.407-8.245v-0.199c0-4.642,3.047-8.538,7.407-8.538h0.048v-12.425
			h-4.165c-5.186,0-9.503-3.618-9.503-8.26v-0.199c0-4.642,4.317-8.108,9.503-8.108h29.843v45.974H2491.22z"/>
		<path fill="#7C7B7B" d="M2546.897,1120.438h-5.101v12.425h-0.311c4.359,0,8.18,3.896,8.18,8.538v0.199
			c0,4.642-3.82,8.245-8.18,8.245h-24.54v-45.974h29.951c5.186,0,9.81,3.466,9.81,8.108v0.199
			C2556.707,1116.821,2552.083,1120.438,2546.897,1120.438z"/>
	</g>
	<g>
		<path fill="#9B9A9A" d="M2362.566,1149.845c-4.359,0-7.978-3.603-7.978-8.245v-0.199c0-4.642,3.619-8.538,7.978-8.538h-0.108
			v-12.425h-4.008c-5.186,0-9.246-3.618-9.246-8.26v-0.199c0-4.642,4.061-8.108,9.246-8.108h29.272v45.974H2362.566z"/>
		<path fill="#7C7B7B" d="M2418.245,1120.438h-5.671v12.425h0.26c4.359,0,8.024,3.896,8.024,8.538v0.199
			c0,4.642-3.665,8.245-8.024,8.245h-25.11v-45.974h30.522c5.186,0,9.653,3.466,9.653,8.108v0.199
			C2427.898,1116.821,2423.431,1120.438,2418.245,1120.438z"/>
	</g>
	<g>
		<polygon fill="#7C7B7B" points="2205.274,1036.36 2703.717,1036.36 2455.419,887.858 		"/>
		<path fill="#7C7B7B" d="M2455.409,895.167l226.383,135.395h-454.449L2455.409,895.167 M2455.419,887.858l-250.145,148.502h498.442
			L2455.419,887.858L2455.419,887.858z"/>
	</g>
	<polygon fill="#2E5452" points="2703.717,1036.36 2679.123,1021.864 2455.352,888.209 2230.387,1021.864 2205.274,1036.36 
		2184.75,1036.36 2227.403,1009.853 2455.367,874.417 2682.121,1009.853 2723.9,1036.36 	"/>
	<path fill="#7C7B7B" d="M2675.576,1091.86h-442.342v-48.045h442.342V1091.86z M2238.618,1085.647h430.746v-36.033h-430.746
		V1085.647z"/>
	<g>
		<path fill="#6D6C6C" d="M2401.977,1067.108c3.279,1.547,5.019,3.558,5.219,6.031c-0.334,4.97-4.104,7.602-11.312,7.895
			l-21.074-0.018v-26.357h19.875c6.309,0.258,9.638,2.843,9.987,7.754C2404.557,1064.758,2403.657,1066.323,2401.977,1067.108z
			 M2382.326,1065.227h10.486c3.013-0.035,4.561-1.131,4.645-3.288c-0.083-1.289-1.606-1.969-4.569-2.04h-10.562V1065.227z
			 M2382.326,1076.902h12.234c3.512-0.035,5.31-1.307,5.394-3.815c-0.084-1.688-1.856-2.567-5.318-2.637h-12.31V1076.902z"/>
		<path fill="#6D6C6C" d="M2412.688,1081.017l14.981-26.375h7.491l14.957,26.357l-7.965,0.018l-2.247-4.044h-16.979l-2.248,4.044
			H2412.688z M2431.615,1061.675l-5.693,10.022h11.236L2431.615,1061.675z"/>
		<path fill="#6D6C6C" d="M2455.71,1081.017v-26.375h2.497l23.471,16.528v-16.528h7.491v26.375h-2.747l-23.221-16.353v16.353
			H2455.71z"/>
		<path fill="#6D6C6C" d="M2497.009,1054.642h7.491v10.55l12.484-10.55h8.415l-14.657,12.308l17.729,14.067h-9.738l-14.232-11.394
			v11.394h-7.491V1054.642z"/>
	</g>
	<g>
		<path fill="#F2BA8C" d="M2911.563,1638.056c43.838-3.409,76.719-43.14,73.441-88.743l-0.017-0.231
			c-3.276-45.603-41.47-79.808-85.308-76.399l-153.805,11.96c-43.836,3.409-76.717,43.14-73.44,88.743l0.017,0.231
			c3.277,45.603,41.471,79.808,85.308,76.398L2911.563,1638.056z"/>
		<path fill="#F2BA8C" d="M2938.189,1425.81c47.996-3.732,83.996-47.233,80.408-97.162l-0.018-0.253
			c-3.588-49.929-45.404-87.378-93.4-83.646l-168.395,13.094c-47.996,3.732-83.997,47.233-80.409,97.162l0.019,0.253
			c3.588,49.929,45.404,87.378,93.4,83.646L2938.189,1425.81z"/>
		<path fill="#F2BA8C" d="M2935.094,1204.006c51.455-4.001,90.259-47.72,86.671-97.649l-0.019-0.253
			c-3.588-49.929-48.208-87.161-99.662-83.16l-180.531,14.038c-51.454,4.001-90.258,47.72-86.67,97.648l0.018,0.253
			c3.588,49.929,48.208,87.161,99.663,83.16L2935.094,1204.006z"/>
		<path fill="#F2BA8C" d="M2926.849,962.641c47.996-3.732,83.996-47.233,80.408-97.162l-0.019-0.253
			c-3.587-49.929-45.404-87.379-93.399-83.646l-168.396,13.094c-47.996,3.732-83.996,47.233-80.408,97.162l0.018,0.253
			c3.588,49.929,45.405,87.378,93.4,83.646L2926.849,962.641z"/>
		<path fill="#F2BA8C" d="M1563.376,1326.413L1563.376,1326.413c0,0,63.602-23.771,82.007-121.746
			c18.405-97.973,155.817-163.97,191.229-216.542c35.412-52.571,135.747-107.325,135.747-107.325l409.28-130.715
			c0,0,64.613,92.479-10.716,157.21c-75.328,64.73-116.293,43.12-116.293,43.12l-160.443,98.041c0,0,74.059,263.804-88.284,438.378
			v394.784l-442.527,61.275V1326.413z"/>
	</g>
	<g>
		<g>
			<g>
				<g>
					<path fill="#D0D2D8" d="M1563.363,1314.629c0.22-40.301-1.85-75.044-38.134-73.755l-192.63-1.287
						c-47.53-0.318-85.623,32.626-85.843,72.927l-1.857,339.793l316.607,2.115L1563.363,1314.629z"/>
					<path fill="#BFC0C4" d="M1561.918,2008.707l-0.405-355.721l-316.606-2.115l-1.944,355.72
						c-0.22,40.301,37.518,72.174,85.048,72.492l194.056-0.156C1561.513,2079.083,1561.698,2049.008,1561.918,2008.707z"/>
				</g>
				<g>
					<path fill="#1C8191" d="M1355.801,1256.39c0.22-40.301,15.83-89.215-31.699-89.532L1.039,1165.457L0,1651.632l1353.633,1.401
						L1355.801,1256.39z"/>
					<path fill="#16727C" d="M1351.464,2049.743l2.177-398.145L0,1651.632v475.042l1311.307-0.064
						C1358.837,2126.928,1351.244,2090.044,1351.464,2049.743z"/>
				</g>
			</g>
		</g>
		<ellipse fill="#0A2B34" cx="1241.763" cy="2020.647" rx="61.407" ry="70.656"/>
		<ellipse fill="#0A2B34" cx="1094.198" cy="2020.647" rx="61.407" ry="70.656"/>
		<ellipse fill="#0A2B34" cx="952.867" cy="2020.647" rx="61.407" ry="70.656"/>
	</g>
	<g>
		<path fill="#4F638C" d="M2846.93,303.447c-0.178-0.02-0.355-0.024-0.533-0.043l11.188-50.765c0.178,0.018,0.354,0.023,0.532,0.042
			c98.769,10.554,160.525,103.524,137.668,207.248l-48.339-5.165C2964.134,379.034,2919.042,311.152,2846.93,303.447z"/>
		<path fill="#4F638C" d="M2870.922,219.169c-1.948-0.208-3.896-0.383-5.845-0.535l11.188-50.774
			c1.948,0.162,3.896,0.336,5.844,0.545c143.314,15.314,232.928,150.218,199.76,300.724l-48.34-5.165
			C3060.528,341.45,2987.582,231.636,2870.922,219.169z"/>
		<path fill="#4F638C" d="M2888.09,136.66c-1.615-0.173-3.231-0.308-4.849-0.453l11.188-50.765c1.616,0.148,3.232,0.279,4.848,0.452
			c186.583,19.938,303.249,195.57,260.069,391.513l-48.34-5.166C3148.018,304.29,3048.019,153.749,2888.09,136.66z"/>
	</g>
</g>
<g>
	<g>
		<path fill="#282828" d="M2181.269,2924.51h744.746c36.1,0,65.04,29.498,65.04,66.213v1430.066l-831.119-1492.777
			C2166.649,2925.667,2173.802,2924.51,2181.269,2924.51z"/>
		<path fill="#474646" d="M2159.911,2927.879l831.144,1492.91v13.104c0,36.716-28.94,65.775-65.04,65.775h-744.746
			c-36.1,0-65.859-29.06-65.859-65.775v-1443.17C2115.409,2961.602,2134.166,2936.871,2159.911,2927.879z"/>
	</g>
	<path fill="#E8EFEE" d="M2483.915,4346.563c0-16.169,12.732-28.842,28.63-28.842h90.021c15.897,0,28.258,12.673,28.258,28.842
		v80.184c0,16.169-12.36,29.1-28.258,29.1h-90.021c-15.897,0-28.63-12.931-28.63-29.1V4346.563z M2493.393,4427.408
		c0,10.778,9.021,19.882,19.62,19.882h90.202c10.599,0,19.315-9.104,19.315-19.882v-80.37c0-10.778-8.717-19.538-19.315-19.538
		h-90.202c-10.599,0-19.62,8.76-19.62,19.538V4427.408z"/>
	<path fill="#E8EFEE" d="M2346.484,3004.993c0,9.415,7.253,17.038,16.51,17.038h368.995c9.257,0,17.31-7.623,17.31-17.038v-0.021
		c0-9.415-8.053-17.167-17.31-17.167h-368.995c-9.257,0-16.51,7.752-16.51,17.167V3004.993z"/>
	<ellipse fill="#050505" cx="2675.541" cy="3004.918" rx="8.965" ry="9.118"/>
	<ellipse fill="#050505" cx="2720.803" cy="3004.918" rx="8.965" ry="9.118"/>
	<ellipse fill="#050505" cx="2627.576" cy="3004.918" rx="8.965" ry="9.118"/>
	<ellipse fill="#050505" cx="2590.978" cy="3005.111" rx="7.958" ry="8.094"/>
	<ellipse fill="#050505" cx="2549.6" cy="3005.111" rx="7.958" ry="8.094"/>
	<ellipse fill="#050505" cx="2506.423" cy="3005.111" rx="7.958" ry="8.094"/>
	<ellipse fill="#050505" cx="2423.668" cy="3005.111" rx="7.958" ry="8.094"/>
	<ellipse fill="#050505" cx="2464.446" cy="3005.111" rx="7.958" ry="8.094"/>
	<ellipse fill="#050505" cx="2383.489" cy="3005.111" rx="7.958" ry="8.094"/>
	<path fill="#F0F7F0" d="M2730.687,3941.38"/>
	<rect x="2203.692" y="3087.756" fill="#BFD1CF" width="699.079" height="1169.787"/>
	<g>
		<g>
			<path fill="#FF8B86" d="M2592.938,3583.133c-65.134,0-124.729,15.51-170.643,41.189c15.673,10.943,30.477,26.537,30.477,26.537
				c7.666,9.582-33.731,43.697-34.499,26.065c-0.767-17.633-39.482-46.765-78.197-52.897c-24.682-3.91-38.923-18.568-46.006-28.683
				c-0.161-0.065-0.248-0.102-0.248-0.102s3.201,32.767,61.291,86.47c-12.531,17.395-20.737,36.554-23.71,56.238h-37.387
				c-17.496,0-31.515,14.469-31.515,31.965v28.773c0,0.343-0.026,0.684-0.016,1.023c7.813,5.948,18.794,12.025,31.105,11.999
				c24.084-0.052,48.151-13.343,46.144-23.255c0,0,105.368,49.295,224.784,29.225c96.46-16.212,209.288-108.376,216.841-180.764
				C2740.624,3602.617,2675.549,3583.133,2592.938,3583.133z"/>
			<path fill="#FE6D65" d="M2340.077,3624.027c38.715,6.133,77.43,35.265,78.197,52.897c0.767,17.632,42.165-16.483,34.499-26.065
				c0,0-14.803-15.594-30.477-26.537c-0.062,0.034-0.123,0.067-0.184,0.102c-17.283-10.456-41.122-20.549-67.739-19.492
				c-32.36,1.283-57.582-8.49-60.302-9.587C2301.154,3605.459,2315.396,3620.117,2340.077,3624.027z"/>
		</g>
		<g>
			<path fill="none" d="M2841.82,3629.896c-1.494-1.595-3.556-2.596-5.973-2.782c-1.207-0.094-2.498,0.021-3.813,0.334
				c-0.658,0.157-1.323,0.362-1.987,0.612c-0.331,0.133-0.664,0.263-0.994,0.415l-0.125,0.055l-0.063,0.027
				c-0.029,0.014,0.05-0.028-0.021,0.007l-0.305,0.147c-0.143,0.072-0.24,0.115-0.407,0.205c-1.212,0.64-2.439,1.51-3.589,2.506
				c-1.152,0.997-2.234,2.128-3.204,3.341c-1.938,2.419-3.46,5.206-4.11,7.948c-0.324,1.367-0.423,2.707-0.258,3.942
				c0.165,1.237,0.589,2.374,1.289,3.419c0.697,1.045,1.684,1.99,2.869,2.802c1.183,0.813,2.553,1.491,4.006,2.046
				c2.916,1.112,6.135,1.752,9.352,2.142c0.194,0.023,0.389,0.043,0.582,0.063c1.876-2.047,3.646-4.273,5.202-6.697
				c0.729-1.139,1.41-2.318,2.026-3.538c0.141-0.287,0.283-0.576,0.425-0.865l0.243-0.554l0.175-0.417
				c0.108-0.24,0.223-0.563,0.337-0.858c0.102-0.3,0.218-0.602,0.307-0.904c0.769-2.419,1.09-4.94,0.777-7.293
				C2844.263,3633.646,2843.325,3631.481,2841.82,3629.896z"/>
			<path fill="#FE6D65" d="M2887.764,3630.525c-0.111-0.846-0.215-1.491-0.296-1.924c-0.077-0.433-0.117-0.656-0.117-0.656
				s0.021,0.227,0.062,0.664c0.044,0.437,0.093,1.087,0.131,1.935c0.065,1.689,0.104,4.197-0.456,7.28
				c-0.284,1.536-0.737,3.209-1.455,4.924s-1.726,3.461-3.071,5.094c-1.35,1.629-3.044,3.133-5.046,4.37
				c-1.001,0.618-2.075,1.173-3.21,1.647c-1.133,0.471-2.339,0.872-3.552,1.139c-0.15,0.033-0.301,0.063-0.441,0.088l-0.471,0.074
				c-0.337,0.053-0.676,0.107-1.017,0.162c-0.682,0.104-1.37,0.209-2.065,0.315c-1.391,0.204-2.808,0.405-4.251,0.588
				c-2.884,0.373-5.869,0.694-8.936,0.935c-0.749,0.059-1.502,0.111-2.26,0.159c0.073-0.136,0.148-0.27,0.221-0.406
				c0.826-1.563,1.594-3.194,2.279-4.896c0.174-0.447,0.349-0.896,0.523-1.346l0.206-0.568l0.248-0.718
				c0.181-0.517,0.309-0.968,0.454-1.444c0.13-0.479,0.27-0.953,0.381-1.443c0.471-1.946,0.785-3.985,0.865-6.092
				c0.087-2.104-0.06-4.277-0.506-6.449c-0.443-2.17-1.19-4.342-2.293-6.39c-1.1-2.046-2.559-3.964-4.344-5.583
				c-1.781-1.62-3.892-2.93-6.166-3.79c-2.271-0.868-4.689-1.289-7.05-1.293c-2.364-0.008-4.663,0.392-6.801,1.064
				c-1.069,0.336-2.103,0.739-3.097,1.195c-0.492,0.234-0.983,0.47-1.457,0.728l-0.398,0.212l-0.293,0.169
				c-0.252,0.146-0.55,0.32-0.771,0.462c-1.9,1.197-3.539,2.575-5.026,4.062c-1.483,1.488-2.806,3.092-3.983,4.801
				c-1.177,1.709-2.205,3.526-3.049,5.461c-0.842,1.933-1.498,3.991-1.849,6.175c-0.348,2.177-0.379,4.502,0.114,6.806
				c0.479,2.299,1.528,4.532,2.972,6.343c1.438,1.824,3.209,3.222,5.022,4.278c1.819,1.062,3.697,1.807,5.557,2.369
				c1.861,0.563,3.712,0.943,5.538,1.213c0.345,0.051,0.688,0.095,1.031,0.138c-3.629,3.148-7.309,5.739-10.684,7.884
				c-2.266,1.435-4.396,2.666-6.34,3.724c-7.813-13.753-34.045-48.221-69.334-61.462c29.274,97.994-82.306,188.948-178.766,205.16
				c-119.417,20.07-224.784-29.225-224.784-29.225c2.007,9.912-22.077,23.203-46.161,23.255
				c-12.311,0.026-23.31-6.107-31.122-12.055c0.537,17.022,14.411,30.6,31.564,30.6h62.59c20.334,27.398,51.374,50.599,89.547,67.45
				l-28.616,75.396h90.389l35.309-49.104c16.095,2.016,32.71,3.063,49.703,3.063c25.786,0,49.861-2.953,72.023-8.358l37.692,54.399
				h90.388l-36.931-97.228c46.743-35.989,72.971-86.651,72.971-137.631c0-17.758-3.184-34.301-9.306-49.457
				c2.441-1.563,5.188-3.435,8.151-5.675c3.769-2.86,7.897-6.306,12.022-10.574c2.063-2.131,4.114-4.48,6.086-7.066
				c0.799-1.051,1.581-2.146,2.34-3.283c1.933-0.21,3.831-0.455,5.687-0.732c3.126-0.471,6.144-1.014,9.045-1.6
				c1.451-0.289,2.873-0.596,4.266-0.9c0.694-0.158,1.383-0.313,2.064-0.468c0.341-0.079,0.68-0.158,1.016-0.236l0.537-0.128
				c0.193-0.051,0.374-0.104,0.552-0.158c1.414-0.441,2.703-1,3.927-1.635c1.219-0.636,2.356-1.352,3.404-2.129
				c2.097-1.557,3.818-3.372,5.135-5.268c1.313-1.9,2.229-3.866,2.833-5.738c0.604-1.876,0.925-3.651,1.082-5.255
				C2888.229,3634.728,2887.971,3632.214,2887.764,3630.525z M2843.783,3643.291c-0.089,0.303-0.205,0.604-0.307,0.904
				c-0.114,0.295-0.229,0.618-0.337,0.858l-0.175,0.417l-0.243,0.554c-0.142,0.289-0.284,0.578-0.425,0.865
				c-0.616,1.22-1.297,2.399-2.026,3.538c-1.556,2.424-3.326,4.65-5.202,6.697c-0.193-0.021-0.388-0.04-0.582-0.063
				c-3.217-0.39-6.436-1.029-9.352-2.142c-1.453-0.555-2.823-1.232-4.006-2.046c-1.186-0.812-2.172-1.757-2.869-2.802
				c-0.7-1.045-1.124-2.182-1.289-3.419c-0.165-1.235-0.066-2.575,0.258-3.942c0.65-2.742,2.173-5.529,4.11-7.948
				c0.97-1.213,2.052-2.344,3.204-3.341c1.149-0.996,2.377-1.866,3.589-2.506c0.167-0.09,0.265-0.133,0.407-0.205l0.305-0.147
				c0.071-0.035-0.008,0.007,0.021-0.007l0.063-0.027l0.125-0.055c0.33-0.152,0.663-0.282,0.994-0.415
				c0.664-0.25,1.329-0.455,1.987-0.612c1.315-0.313,2.606-0.428,3.813-0.334c2.417,0.187,4.479,1.188,5.973,2.782
				c1.505,1.586,2.442,3.751,2.74,6.103C2844.873,3638.351,2844.552,3640.872,2843.783,3643.291z"/>
		</g>
		<g>
			<path fill="#212020" d="M2284.762,3779.016c1.382,7.861-1.104,8.671-4.249,9.224c-3.144,0.554-5.757,0.64-7.139-7.222
				c-1.383-7.861-1.011-20.693,2.134-21.246S2283.38,3771.154,2284.762,3779.016z"/>
			<ellipse fill="#DBD2D2" cx="2391.581" cy="3727.813" rx="10.65" ry="20.314"/>
			<ellipse fill="#212020" cx="2387.439" cy="3734.912" rx="4.142" ry="11.242"/>
			<path fill="#212020" d="M2642.589,3625.763c-0.956,0-1.927-0.158-2.88-0.492c-28.289-9.901-56.708-9.409-75.566-7.253
				c-20.704,2.368-34.799,7.208-34.938,7.257c-4.545,1.58-9.515-0.821-11.099-5.364s0.807-9.51,5.348-11.099
				c0.631-0.221,15.702-5.436,38.2-8.06c13.192-1.54,26.266-1.873,38.856-0.992c15.842,1.109,30.968,4.154,44.959,9.052
				c4.546,1.591,6.94,6.565,5.35,11.11C2649.562,3623.514,2646.19,3625.763,2642.589,3625.763z"/>
			<path fill="#F5605C" d="M2468.737,3973.653l32.728-61.325c0,0-39.702-0.434-91.501-33.813c0,0,298.011,52.546,418.79-130.389
				c0,0,0,74.359-72.641,128.096l36.929,97.565h-48.439l-37.069-68.769c0,0-77.591,33.771-164.298,19.105l-35.309,49.019
				L2468.737,3973.653z"/>
		</g>
		<path fill="#FE6D65" d="M2339.581,3642.104c0,0,17.978,29.992,28.631,35.318c10.654,5.326,32.626,3.995,37.288,0
			c4.661-3.995-33.292-32.684-53.268-35.318C2332.257,3639.469,2341.579,3635.416,2339.581,3642.104z"/>
	</g>
	<g>
		<circle fill="#D6C561" cx="2598.973" cy="3290.782" r="65.812"/>
		<path fill="#A87611" d="M2576.356,3341.646c-28.091-12.454-40.812-45.438-28.358-73.529s45.438-40.812,73.529-28.358
			c28.09,12.453,40.812,45.438,28.358,73.529C2637.432,3341.377,2604.447,3354.099,2576.356,3341.646z M2619.091,3245.252
			c-25.061-11.109-54.487,0.239-65.599,25.3c-11.11,25.062,0.239,54.488,25.3,65.599c25.062,11.11,54.488-0.238,65.599-25.3
			C2655.501,3285.79,2644.151,3256.363,2619.091,3245.252z"/>
		<g>
			<path fill="#A87611" d="M2584.031,3316.674l2.939-6.632c-3.779-1.754-7.194-4.683-8.766-7.343l3.526-3.7
				c1.665,2.624,4.526,5.385,8.203,7.015c4.662,2.066,9.007,0.772,10.667-2.971c1.601-3.611,0.029-6.979-3.956-11.103
				c-5.532-5.595-8.33-10.45-5.798-16.162c2.416-5.45,8.124-7.868,14.602-6.176l2.939-6.632l4.071,1.806l-2.823,6.369
				c3.881,1.878,6.107,4.121,7.516,6.081l-3.563,3.606c-1.029-1.399-3.081-4.037-7.283-5.9c-5.056-2.241-8.299-0.065-9.463,2.562
				c-1.514,3.414,0.158,6.198,4.823,11.094c5.54,5.757,7.44,10.685,4.851,16.528c-2.3,5.187-8.065,8.445-15.323,6.563l-3.027,6.828
				L2584.031,3316.674z"/>
		</g>
		<circle fill="#D6C561" cx="2484.311" cy="3157.335" r="65.813"/>
		<path fill="#A87611" d="M2461.694,3208.199c-28.091-12.454-40.812-45.439-28.358-73.529
			c12.454-28.091,45.438-40.813,73.529-28.358c28.091,12.453,40.812,45.438,28.358,73.528
			C2522.77,3207.931,2489.784,3220.652,2461.694,3208.199z M2504.428,3111.806c-25.061-11.11-54.487,0.239-65.598,25.3
			s0.239,54.488,25.3,65.599s54.488-0.239,65.599-25.3S2529.489,3122.916,2504.428,3111.806z"/>
		<g>
			<path fill="#A87611" d="M2469.368,3183.227l2.939-6.631c-3.779-1.754-7.194-4.683-8.765-7.343l3.526-3.7
				c1.665,2.623,4.526,5.385,8.203,7.015c4.662,2.066,9.007,0.772,10.666-2.971c1.601-3.611,0.03-6.979-3.956-11.103
				c-5.532-5.596-8.33-10.45-5.797-16.162c2.416-5.45,8.124-7.869,14.601-6.176l2.939-6.632l4.071,1.806l-2.823,6.368
				c3.881,1.878,6.107,4.122,7.517,6.083l-3.563,3.605c-1.03-1.399-3.081-4.037-7.283-5.9c-5.056-2.241-8.299-0.065-9.463,2.562
				c-1.514,3.414,0.159,6.198,4.823,11.095c5.54,5.756,7.441,10.684,4.85,16.527c-2.3,5.187-8.065,8.444-15.323,6.563l-3.027,6.828
				L2469.368,3183.227z"/>
		</g>
		<circle fill="#D6C561" cx="2484.736" cy="3412.352" r="65.812"/>
		<path fill="#A87611" d="M2509.188,3462.358c-27.589,13.528-61.04,2.089-74.568-25.5s-2.089-61.04,25.5-74.568
			c27.589-13.528,61.041-2.089,74.569,25.5S2536.777,3448.83,2509.188,3462.358z M2462.766,3367.687
			c-24.613,12.069-34.818,41.913-22.749,66.526c12.069,24.613,41.913,34.818,66.525,22.749
			c24.613-12.069,34.819-41.912,22.75-66.526C2517.223,3365.822,2487.379,3355.617,2462.766,3367.687z"/>
		<g>
			<path fill="#A87611" d="M2494.98,3440.436l-3.194-6.513c-3.771,1.77-8.21,2.506-11.258,2.001l-0.57-5.08
				c3.08,0.409,7.034-0.01,10.646-1.78c4.578-2.245,6.378-6.407,4.575-10.083c-1.739-3.547-5.329-4.506-11.05-4.101
				c-7.843,0.646-13.36-0.328-16.111-5.938c-2.625-5.353-0.812-11.281,4.646-15.157l-3.193-6.513l3.998-1.961l3.067,6.255
				c3.933-1.769,7.082-2.032,9.49-1.854l0.475,5.047c-1.734-0.11-5.073-0.232-9.201,1.792c-4.965,2.435-5.381,6.317-4.116,8.897
				c1.644,3.353,4.852,3.86,11.601,3.431c7.97-0.549,12.968,1.16,15.782,6.899c2.498,5.095,1.291,11.606-4.813,15.959l3.289,6.706
				L2494.98,3440.436z"/>
		</g>
		<circle fill="#D6C561" cx="2584.693" cy="3533.922" r="65.813"/>
		<path fill="#A87611" d="M2538.646,3565.198c-17.292-25.399-10.697-60.132,14.702-77.425
			c25.399-17.292,60.132-10.697,77.425,14.703c17.293,25.398,10.697,60.132-14.702,77.424
			C2590.671,3597.193,2555.938,3590.598,2538.646,3565.198z M2625.805,3505.858c-15.428-22.659-46.414-28.544-69.074-13.116
			s-28.544,46.414-13.116,69.074c15.427,22.66,46.413,28.543,69.073,13.116C2635.348,3559.505,2641.231,3528.519,2625.805,3505.858z
			"/>
		<g>
			<path fill="#A87611" d="M2558.34,3548.033l5.996-4.082c-2.285-3.483-3.642-7.773-3.572-10.861l4.947-1.283
				c0.031,3.107,1.005,6.962,3.269,10.287c2.87,4.215,7.244,5.407,10.628,3.104c3.266-2.224,3.708-5.913,2.497-11.519
				c-1.748-7.673-1.563-13.272,3.602-16.789c4.928-3.354,11.053-2.398,15.662,2.457l5.996-4.082l2.507,3.681l-5.76,3.921
				c2.307,3.644,3.014,6.724,3.177,9.133l-4.929,1.184c-0.137-1.732-0.487-5.056-3.074-8.855c-3.112-4.571-7.016-4.434-9.391-2.816
				c-3.087,2.102-3.135,5.349-1.756,11.97c1.67,7.813,0.685,13.002-4.6,16.599c-4.689,3.193-11.306,2.919-16.479-2.509l-6.174,4.204
				L2558.34,3548.033z"/>
		</g>
	</g>
	<g>
		<path fill="#E8B187" d="M2085.396,4175.239c-43.837-3.437-76.718-43.493-73.441-89.468l0.017-0.233
			c3.277-45.975,41.47-80.459,85.308-77.022l153.805,12.057c43.836,3.438,76.717,43.493,73.44,89.469l-0.017,0.232
			c-3.276,45.975-41.47,80.459-85.308,77.022L2085.396,4175.239z"/>
		<path fill="#E8B187" d="M2058.769,3961.26c-47.996-3.763-83.996-47.619-80.408-97.955l0.018-0.256
			c3.588-50.336,45.404-88.092,93.4-84.33l168.395,13.201c47.996,3.764,83.996,47.619,80.408,97.956l-0.018,0.255
			c-3.587,50.336-45.405,88.092-93.4,84.33L2058.769,3961.26z"/>
		<path fill="#E8B187" d="M2061.865,3737.644c-51.455-4.034-90.259-48.109-86.671-98.446l0.019-0.255
			c3.588-50.337,48.208-87.873,99.663-83.839l180.531,14.152c51.454,4.034,90.258,48.109,86.671,98.446l-0.019,0.255
			c-3.587,50.337-48.208,87.873-99.663,83.839L2061.865,3737.644z"/>
		<path fill="#E8B187" d="M2070.109,3494.308c-47.996-3.763-83.996-47.618-80.408-97.955l0.019-0.255
			c3.587-50.337,45.404-88.093,93.4-84.33l168.395,13.201c47.996,3.763,83.996,47.619,80.408,97.955l-0.018,0.256
			c-3.588,50.336-45.405,88.092-93.4,84.329L2070.109,3494.308z"/>
		<path fill="#E8B187" d="M3433.582,3861.051L3433.582,3861.051c0,0-63.603-23.966-82.007-122.74
			c-18.405-98.773-155.817-165.31-191.229-218.311s-135.747-108.202-135.747-108.202l-409.28-131.782
			c0,0-64.613,93.234,10.716,158.494c75.329,65.259,116.294,43.473,116.294,43.473l160.443,98.841c0,0-74.06,265.958,88.283,441.959
			v398.007l442.527,61.776V3861.051z"/>
	</g>
	<g>
		<g>
			<g>
				<g>
					<path fill="#D0D2D8" d="M3433.596,3849.17c-0.221-40.63,1.85-75.657,38.133-74.357l192.631-1.297
						c47.529-0.32,85.622,32.892,85.843,73.521l1.856,342.568l-316.605,2.133L3433.596,3849.17z"/>
					<path fill="#BFC0C4" d="M3435.04,4548.917l0.405-358.626l316.606-2.133l1.944,358.626c0.22,40.63-37.519,72.764-85.048,73.084
						l-194.056-0.157C3435.445,4619.868,3435.26,4589.547,3435.04,4548.917z"/>
				</g>
				<g>
					<path fill="#F2C406" d="M3641.157,3790.456c-0.22-40.631-15.83-89.943,31.699-90.264L5000,3698.779l1.039,490.146
						l-1357.714,1.412L3641.157,3790.456z"/>
					<path fill="#CCAC0D" d="M3645.494,4590.289l-2.176-401.397l1357.721,0.034v478.922l-1315.388-0.064
						C3638.121,4668.104,3645.715,4630.918,3645.494,4590.289z"/>
				</g>
			</g>
		</g>
		<ellipse fill="#0A2B34" cx="3755.195" cy="4560.955" rx="61.407" ry="71.233"/>
		<ellipse fill="#0A2B34" cx="3902.761" cy="4560.955" rx="61.407" ry="71.233"/>
		<ellipse fill="#0A2B34" cx="4044.092" cy="4560.955" rx="61.406" ry="71.233"/>
	</g>
	<g>
		<path fill="#4F638C" d="M2150.029,2829.729c0.178-0.019,0.355-0.023,0.533-0.043l-11.187-51.179
			c-0.178,0.018-0.355,0.023-0.533,0.043c-98.769,10.64-160.525,104.369-137.668,208.94l48.34-5.207
			C2032.825,2905.934,2077.916,2837.498,2150.029,2829.729z"/>
		<path fill="#4F638C" d="M2126.036,2744.764c1.949-0.209,3.897-0.386,5.845-0.539l-11.188-51.188
			c-1.948,0.163-3.896,0.339-5.843,0.549c-143.315,15.439-232.928,151.445-199.76,303.18l48.34-5.207
			C1936.43,2868.043,2009.376,2757.332,2126.036,2744.764z"/>
		<path fill="#4F638C" d="M2108.868,2661.581c1.616-0.175,3.232-0.312,4.849-0.457l-11.188-51.179
			c-1.616,0.149-3.232,0.281-4.848,0.455c-186.583,20.101-303.249,197.167-260.068,394.711l48.339-5.208
			C1848.941,2830.579,1948.94,2678.809,2108.868,2661.581z"/>
	</g>
	<g>
		<circle fill="#D6C561" cx="2632.173" cy="2316.015" r="113.25"/>
		<path fill="#A87611" d="M2593.255,2403.541c-48.338-21.43-70.229-78.19-48.799-126.528c21.431-48.338,78.19-70.229,126.528-48.799
			c48.338,21.431,70.229,78.19,48.799,126.528C2698.354,2403.079,2641.593,2424.971,2593.255,2403.541z M2666.792,2237.668
			c-43.124-19.118-93.763,0.412-112.881,43.536c-19.119,43.125,0.411,93.763,43.536,112.882
			c43.124,19.118,93.763-0.412,112.881-43.536C2729.447,2307.425,2709.917,2256.787,2666.792,2237.668z"/>
		<g>
			<path fill="#A87611" d="M2606.461,2360.569l5.059-11.411c-6.503-3.019-12.381-8.058-15.082-12.636l6.067-6.368
				c2.865,4.515,7.788,9.266,14.116,12.072c8.021,3.556,15.499,1.328,18.354-5.112c2.756-6.214,0.053-12.009-6.807-19.105
				c-9.521-9.629-14.334-17.981-9.977-27.812c4.158-9.378,13.979-13.541,25.125-10.627l5.06-11.412l7.006,3.106l-4.859,10.959
				c6.679,3.231,10.51,7.093,12.935,10.466l-6.131,6.205c-1.771-2.408-5.302-6.947-12.532-10.153
				c-8.7-3.857-14.28-0.112-16.284,4.407c-2.605,5.875,0.273,10.666,8.299,19.092c9.534,9.904,12.805,18.385,8.347,28.44
				c-3.957,8.926-13.878,14.532-26.367,11.293l-5.21,11.75L2606.461,2360.569z"/>
		</g>
		<circle fill="#D6C561" cx="2434.863" cy="2086.381" r="113.25"/>
		<path fill="#A87611" d="M2395.944,2173.906c-48.338-21.43-70.229-78.19-48.799-126.528c21.43-48.338,78.19-70.229,126.528-48.799
			c48.339,21.43,70.229,78.19,48.8,126.528C2501.042,2173.445,2444.281,2195.336,2395.944,2173.906z M2469.481,2008.034
			c-43.124-19.119-93.763,0.411-112.882,43.535c-19.118,43.125,0.412,93.764,43.536,112.882
			c43.124,19.119,93.763-0.411,112.882-43.536S2512.605,2027.152,2469.481,2008.034z"/>
		<g>
			<path fill="#A87611" d="M2409.149,2130.936l5.06-11.412c-6.503-3.018-12.381-8.057-15.083-12.635l6.067-6.368
				c2.866,4.515,7.789,9.267,14.116,12.071c8.022,3.557,15.499,1.329,18.354-5.111c2.755-6.215,0.052-12.01-6.807-19.106
				c-9.521-9.628-14.335-17.982-9.977-27.812c4.158-9.377,13.979-13.541,25.125-10.626l5.06-11.412l7.005,3.106l-4.859,10.959
				c6.679,3.231,10.51,7.093,12.935,10.466l-6.131,6.205c-1.771-2.407-5.302-6.947-12.533-10.153
				c-8.7-3.857-14.28-0.112-16.284,4.407c-2.604,5.875,0.273,10.667,8.3,19.091c9.534,9.905,12.804,18.385,8.346,28.441
				c-3.957,8.926-13.878,14.532-26.367,11.293l-5.209,11.75L2409.149,2130.936z"/>
		</g>
		<circle fill="#D6C561" cx="2435.594" cy="2525.212" r="113.25"/>
		<path fill="#A87611" d="M2477.673,2611.264c-47.476,23.279-105.038,3.595-128.317-43.88
			c-23.279-47.476-3.595-105.038,43.88-128.317c47.475-23.279,105.038-3.595,128.317,43.88S2525.147,2587.984,2477.673,2611.264z
			 M2397.789,2448.353c-42.354,20.769-59.916,72.123-39.147,114.478s72.123,59.916,114.478,39.147s59.916-72.123,39.147-114.478
			S2440.144,2427.584,2397.789,2448.353z"/>
		<g>
			<path fill="#A87611" d="M2453.223,2573.539l-5.496-11.207c-6.49,3.045-14.128,4.312-19.373,3.442l-0.982-8.741
				c5.301,0.704,12.105-0.017,18.319-3.063c7.879-3.863,10.975-11.025,7.873-17.351c-2.993-6.104-9.17-7.754-19.015-7.057
				c-13.495,1.111-22.989-0.564-27.724-10.219c-4.516-9.211-1.397-19.412,7.996-26.083l-5.496-11.208l6.88-3.373l5.278,10.764
				c6.767-3.043,12.188-3.498,16.33-3.189l0.817,8.684c-2.983-0.188-8.73-0.399-15.832,3.084c-8.545,4.189-9.26,10.872-7.083,15.311
				c2.83,5.771,8.35,6.643,19.963,5.903c13.715-0.944,22.315,1.997,27.158,11.873c4.299,8.767,2.222,19.972-8.283,27.462
				l5.659,11.541L2453.223,2573.539z"/>
		</g>
		<circle fill="#D6C561" cx="2607.602" cy="2734.41" r="113.25"/>
		<path fill="#A87611" d="M2528.362,2788.23c-29.757-43.707-18.407-103.475,25.3-133.232c43.707-29.757,103.475-18.407,133.231,25.3
			s18.408,103.475-25.3,133.231C2617.887,2843.287,2558.119,2831.938,2528.362,2788.23z M2678.345,2686.118
			c-26.548-38.993-79.869-49.118-118.862-22.57s-49.118,79.868-22.57,118.862c26.547,38.992,79.869,49.118,118.862,22.57
			C2694.768,2778.434,2704.893,2725.111,2678.345,2686.118z"/>
		<g>
			<path fill="#A87611" d="M2562.252,2758.693l10.318-7.025c-3.932-5.995-6.267-13.377-6.146-18.691l8.514-2.208
				c0.052,5.348,1.728,11.981,5.623,17.702c4.938,7.254,12.466,9.306,18.289,5.341c5.618-3.825,6.38-10.175,4.297-19.821
				c-3.008-13.202-2.69-22.838,6.197-28.89c8.48-5.772,19.02-4.127,26.951,4.229l10.318-7.025l4.313,6.335l-9.91,6.746
				c3.97,6.27,5.187,11.57,5.467,15.715l-8.481,2.037c-0.234-2.979-0.839-8.698-5.29-15.237c-5.355-7.866-12.072-7.63-16.159-4.847
				c-5.313,3.616-5.396,9.205-3.021,20.597c2.873,13.444,1.178,22.373-7.915,28.563c-8.07,5.495-19.456,5.023-28.357-4.316
				l-10.624,7.232L2562.252,2758.693z"/>
		</g>
	</g>
</g>
</svg>
