<svg xmlns="http://www.w3.org/2000/svg" viewBox="0 0 72 72"><defs><style>.a,.b{fill:none;}.a{stroke:#009cde;stroke-linecap:round;stroke-linejoin:round;stroke-width:0.9794px;}</style></defs><title>icon.MoneyBackGuarantee.72x72</title><path class="a" d="M26.91387,36.63075l7.23548,6.45357L57.97511,15.08965c-9.92665-.99475-18.80328-4.67219-22.05345-7.46156-3.79772,3.25483-15.95354,7.71885-26.9426,7.71885,0,17.69167,9.91221,38.921,26.9426,47.59951,14.5782-7.428,23.65949-24.06469,25.93143-39.42525"/><path class="a" d="M16.80233,44.50921c-.31769,0-6.22758.874-8.522,4.04247l.21851,11.03484s2.94991-4.58874,18.2358-2.954"/><path class="a" d="M1.06949,64.28451A4.50139,4.50139,0,0,1,5.87675,63.192c3.05916.9833,6.66461,1.9666,8.63121.21851l.21851-6.44609"/><line class="a" x1="0.85677" y1="57.61905" x2="1.06949" y2="64.28451"/><path class="a" d="M8.06187,51.9386S2.92684,50.846.74173,54.01446l.115,3.60459"/><path class="a" d="M8.49889,59.58651s2.29437,2.40363,6.00907-.32777"/><path class="a" d="M55.19767,44.50921c.31769,0,6.22758.874,8.522,4.04247l-.21851,11.03484s-2.94991-4.58874-18.2358-2.954"/><path class="a" d="M70.93051,64.28451A4.50139,4.50139,0,0,0,66.12325,63.192c-3.05916.9833-6.66461,1.9666-8.63121.21851l-.21851-6.44609"/><line class="a" x1="71.14323" y1="57.61905" x2="70.93051" y2="64.28451"/><path class="a" d="M63.93813,51.9386s5.135-1.09256,7.32014,2.07586l-.115,3.60459"/><path class="a" d="M63.50111,59.58651s-2.29437,2.40363-6.00907-.32777"/><rect class="b" width="72" height="72"/></svg>