<svg height="102" viewBox="0 0 280 102" width="280" xmlns="http://www.w3.org/2000/svg"><g style="stroke:#1fd3c6;stroke-width:2;fill:none;fill-rule:evenodd;stroke-linecap:round;stroke-linejoin:round"><path d="m138.24694 10.4217173c-8.363385 8.9887177-20.279053 12.6493355-32.476539 12.9533317-1.000098.0210979-1.913169.5845386-2.395213 1.478045s-.19737 5.5650801-.19737 6.3680307m.525569 10.4701548c3.268863 27.5232048 16.921403 45.4533828 35.780315 51.1877973.537459.1612309 1.111556.1612309 1.649015 0 21.651419-6.5835291 36.867283-32.4537055 36.867283-66.6380629.000183-1.5137247-1.229857-2.7497307-2.767991-2.7814148-12.318802-.2963328-24.415962-4.2757577-32.86253-13.0378818-.590577-.61958029-3.644179-.50193047-4.122539 0" fill-rule="nonzero"/><path d="m123 51.7653562 12.153168 12.2346438 22.846832-23"/></g></svg>