<svg height="102" viewBox="0 0 280 102" width="280" xmlns="http://www.w3.org/2000/svg"><g fill="none" fill-rule="evenodd"><path d="m170.383455 48.9476364c.540909 18.3909091-13.97091 34.3709091-31.598364 34.8932727l-31.817818-.0309091c1.900909-2.652 4.228363-5.9407273 6.092182-8.7318182l1.304363-1.9472727-1.523818-1.7803636c-4.942364-5.78-7.671636-12.855091-7.894182-20.4618182-.531636-18.1436364 13.711273-33.3385455 31.756-33.8732728.327637-.0123636.986-.0154545.986-.0154545 13.005497 0 24.171556 7.4830221 29.454019 18.4963851" fill-rule="nonzero" stroke="#1fd3c6" stroke-linecap="round" stroke-linejoin="round" stroke-width="2"/><g fill="#1fd3c6"><path d="m149.688121 49.4545455c-.346182 0-.698545.0741818-1.032363.234909-1.205455.5718182-1.721637 2.0214546-1.149819 3.233091.414182.8778181 1.279637 1.390909 2.185273 1.390909.346182 0 .698546-.0772727 1.032364-.234909 1.205454-.5718182 1.721636-2.0214546 1.149818-3.233091-.411091-.8778181-1.279636-1.390909-2.185273-1.390909"/><path d="m137.324419 49.4545455c-.346182 0-.698545.0741818-1.029272.234909-1.208546.5718182-1.724728 2.0214546-1.15291 3.233091.414182.8778181 1.279637 1.390909 2.185273 1.390909.346182 0 .698546-.0772727 1.032364-.234909 1.205454-.5718182 1.721636-2.0214546 1.149818-3.233091-.411091-.8778181-1.279636-1.390909-2.185273-1.390909"/><path d="m124.960848 49.4545455c-.346181 0-.698545.0741818-1.032363.234909-1.205455.5718182-1.721637 2.0214546-1.149818 3.233091.414181.8778181 1.279636 1.390909 2.185272 1.390909.346182 0 .698546-.0772727 1.032364-.234909 1.205455-.5718182 1.721636-2.0214546 1.149818-3.233091-.414182-.8778181-1.282727-1.390909-2.185273-1.390909"/></g></g></svg>