<?xml version="1.0" encoding="iso-8859-1"?>
<!-- Generator: Adobe Illustrator 16.0.0, SVG Export Plug-In . SVG Version: 6.00 Build 0)  -->
<!DOCTYPE svg PUBLIC "-//W3C//DTD SVG 1.1//EN" "http://www.w3.org/Graphics/SVG/1.1/DTD/svg11.dtd">
<svg version="1.1" id="Capa_1" xmlns="http://www.w3.org/2000/svg" xmlns:xlink="http://www.w3.org/1999/xlink" x="0px" y="0px"
	 width="591.605px" height="591.605px" viewBox="0 0 591.605 591.605" style="enable-background:new 0 0 591.605 591.605;"
	 xml:space="preserve">
<g>
	<g>
		<path d="M9.324,591.604h192.685c5.15,0,6.371-2.953,2.729-6.591l-28.253-28.253c-3.641-3.642-3.641-9.544,0-13.186
			l119.315-119.315l119.315,119.315c3.642,3.642,3.642,9.544,0,13.186l-28.253,28.253c-3.642,3.642-2.417,6.591,2.729,6.591h192.686
			c5.149,0,9.324-4.174,9.324-9.323V389.595c0-5.149-2.953-6.371-6.592-2.729l-28.253,28.253c-3.642,3.642-9.544,3.642-13.186,0
			L424.26,295.803l119.315-119.315c3.642-3.642,9.544-3.642,13.186,0l28.253,28.253c3.642,3.642,6.592,2.417,6.592-2.729V9.326
			c0-5.15-4.174-9.324-9.324-9.324H389.596c-5.149,0-6.37,2.953-2.729,6.591l28.254,28.253c3.641,3.642,3.641,9.544,0,13.186
			L295.804,167.347L176.485,48.031c-3.641-3.641-3.641-9.544,0-13.186l28.253-28.253c3.642-3.641,2.417-6.591-2.729-6.591H9.324
			C4.174,0.002,0,4.176,0,9.326v192.685c0,5.15,2.953,6.371,6.591,2.729l28.253-28.253c3.642-3.642,9.544-3.642,13.186,0
			l119.318,119.315L48.033,415.118c-3.641,3.642-9.544,3.642-13.186,0L6.594,386.865c-3.641-3.642-6.591-2.417-6.591,2.729V582.28
			C0,587.43,4.174,591.604,9.324,591.604z"/>
	</g>
</g>
<g>
</g>
<g>
</g>
<g>
</g>
<g>
</g>
<g>
</g>
<g>
</g>
<g>
</g>
<g>
</g>
<g>
</g>
<g>
</g>
<g>
</g>
<g>
</g>
<g>
</g>
<g>
</g>
<g>
</g>
</svg>
