<svg height="320" viewBox="0 0 260 320" width="260" xmlns="http://www.w3.org/2000/svg" xmlns:xlink="http://www.w3.org/1999/xlink"><mask id="a" fill="#fff"><path d="m0 0h260v320h-260z" fill="#fff" fill-rule="evenodd"/></mask><g style="stroke:#1fd3c6;stroke-linecap:round;stroke-linejoin:round;stroke-width:3;mask:url(#a);fill:none;fill-rule:evenodd"><path d="m60.56 136a26.38 26.38 0 0 0 -40.56 30.38c-8.818 1.812-14.842 9.991-13.957 18.95.886 8.958 8.395 15.8 17.397 15.85h58.56m29.58-37.82a7.38 7.38 0 0 1 14.76 0v12.64"/><path d="m96.84 163.36a7.38 7.38 0 0 1 14.76 0v12.64"/><path d="m82 168.5h-19.06a16.76 16.76 0 0 1 -16.42-13.38l22 .34v-87.46a8.44 8.44 0 0 1 8.42-8.42h113.8a8.46 8.46 0 0 1 8.52 8.42v71.5m-42.82 15.62h66.58a16.78 16.78 0 0 1 -16.44 13.4h-57.6m51.7-157.38a26.38 26.38 0 0 1 40.52 30.28c8.818 1.812 14.842 9.991 13.957 18.95-.886 8.958-8.395 15.8-17.397 15.85h-38.5m-56.06-23.64a17.2 17.2 0 0 1 13.86-10.58v-.96a20.1 20.1 0 0 1 33.72-14.8m2.46 234.52 5.48 5.46 13.4-13.4"/><path d="m228.98 220.68a5.3 5.3 0 0 0 -5.28-5.28h-40.92a5.3 5.3 0 0 0 -5.28 5.28v7.84h51.48v56.58"/><path d="m177.5 303.38a5.3 5.3 0 0 0 5.28 5.28h40.9a5.3 5.3 0 0 0 5.28-5.28v-9.6h-51.46v-44.76a8 8 0 0 0 -8-8h-39.02c-5.887 0-10.66 4.773-10.66 10.66v-.14c0 5.887 4.773 10.66 10.66 10.66s10.66-4.773 10.66-10.66v-88.18a7.38 7.38 0 0 0 -14.76 0m-60.82 112.64c9.12-.055 16.473-7.48 16.44-16.6v-119.4a7.38 7.38 0 0 1 14.76 0v35.48m36.96-74.92h13.06v25.34l-27.82.02v-25.36h6.34m-.02 0v-7.18a7.58 7.58 0 0 1 15.16 0"/></g></svg>