<svg height="320" viewBox="0 0 260 320" width="260" xmlns="http://www.w3.org/2000/svg"><g style="fill:none;fill-rule:evenodd;stroke:#1fd3c6;stroke-linecap:round;stroke-linejoin:round;stroke-width:3"><path d="m158.125 62.44a23.354 23.354 0 0 1 14.03-4.657c12.944 0 23.436 10.492 23.436 23.441 0 2.858-.513 5.593-1.45 8.128 7.154 1.423 12.549 7.737 12.549 15.312 0 8.622-6.99 15.612-15.612 15.612h-56.298m-27.784-20.934.067-.075c2.016-5.03 6.76-8.711 12.318-9.382-.015-.283-.02-.57-.02-.853 0-9.866 7.998-17.863 17.861-17.863a17.81 17.81 0 0 1 12.1 4.72m-53.791 24.038c0 10.285-8.337 18.624-18.627 18.624-10.287 0-18.625-8.34-18.625-18.624 0-10.29 8.338-18.63 18.625-18.63 10.29 0 18.627 8.34 18.627 18.63zm-19.646-8.307v7.664m-18.239-42.75v13.297m18.239-50.868v-12.206m-24.677 123.261v75.476m17.167-62.73v92.505m16.094-92.505v32.941m-29.205 48.391a24.27 24.27 0 0 0 -14.59-4.844c-13.462 0-24.372 10.912-24.372 24.376 0 2.974.534 5.817 1.51 8.451-7.446 1.482-13.055 8.047-13.055 15.927 0 8.964 7.273 16.236 16.239 16.236h58.544m28.894-21.771-.067-.077c-2.099-5.23-7.03-9.062-12.81-9.757.015-.295.023-.593.023-.888 0-10.26-8.317-18.578-18.577-18.578a18.518 18.518 0 0 0 -12.584 4.91m-17.607-168.779h60.184"/><path d="m110.108 211.665c-5.352 0-9.694-4.342-9.694-9.698v-71.949h6.583v-68.205m-12.025 8.017v-19.132h-.042l-18.323-31.735-18.328 31.735h22.326m3.655 79.32h-37.447v-68.205m70.78 207.539.02 28.969m7.206-57.091.017 27.07m78.759-65.494-.032-21.434m35.132 133.617c-5.834 0-10.569-4.73-10.569-10.569l-.014-35.074m-86.752-84.119-.027-16.939m32.214-38.203-.026-14.918m17.093 153.717 47.994-.02m-48.033-17.166h15.207m-41.511-87.979h10.591m-43.329 60.083h12.022m-36.28 45.082 52.19-.02m-.001-27.636.017 27.07-.017-.002c0 8.59 6.963 15.556 15.558 15.556 8.587 0 15.553-6.967 15.553-15.556h.04l-.01-16.184-.03-.012c-7.448-3.18-12.42-8.896-12.423-15.421-.002-3.226 1.21-6.253 3.334-8.88l-.01.037 22.638-25.03 22.674 25.027-.055-.085c2.154 2.634 3.385 5.682 3.388 8.928.004 6.535-4.967 12.255-12.42 15.432-.014 0-.009 17.24-.009 17.24m-53.472-91.681h18.88m-29.847 18.863 11.006-20.163v-12.005l.013.03c-5.181-2.213-8.638-6.192-8.645-10.733 0-2.246.845-4.355 2.322-6.18l-.008.026 15.759-17.42 15.779 17.418-.04-.061c1.5 1.836 2.357 3.957 2.36 6.215 0 4.547-3.46 8.529-8.645 10.742-.013 0-.002 11.996-.002 11.996l13.576 24.807m-79.149 40.028h14.027l-.016-17.064-.057.02c-5.885-2.512-9.814-7.031-9.818-12.187 0-2.55.958-4.946 2.636-7.018l-.005.027 17.888-19.781 17.922 19.781-.044-.069c1.703 2.083 2.676 4.49 2.68 7.058 0 5.163-3.928 9.685-9.818 12.196l-.004 17.037m-8.42-.261h21.079"/></g></svg>