<svg height="31" viewBox="0 0 84 31" width="84" xmlns="http://www.w3.org/2000/svg"><g fill="#333" fill-rule="evenodd" opacity=".8"><path d="m78.981 12.095c0-.933.709-1.688 1.573-1.688.87 0 1.57.755 1.57 1.688 0 .934-.7 1.689-1.57 1.689-.864 0-1.573-.755-1.573-1.69zm1.573 1.289c.661 0 1.2-.58 1.2-1.29 0-.706-.539-1.28-1.2-1.28-.658 0-1.2.574-1.2 1.28 0 .71.542 1.29 1.2 1.29zm-.214-.55h-.322v-1.486h.584c.119 0 .252.007.354.082a.466.466 0 0 1 .176.373.396.396 0 0 1 -.237.375l.252.657h-.358l-.213-.583h-.236v.583zm0-.835h.18c.066 0 .142.002.197-.03.055-.037.08-.11.08-.173 0-.056-.032-.123-.08-.15-.048-.033-.145-.025-.2-.025h-.177zm-23.846-11.128-.43 2.862c-.935-.508-1.623-.707-2.357-.707-1.959 0-3.344 2.034-3.344 4.937 0 2.006.93 3.214 2.46 3.214.649 0 1.362-.213 2.235-.68l-.46 3.012c-.965.284-1.595.385-2.325.385-2.838 0-4.603-2.186-4.603-5.695 0-4.72 2.439-8.015 5.927-8.015.45 0 .853.045 1.18.142l1.085.29c.323.13.396.15.632.255zm-8.734 1.962a1.417 1.417 0 0 0 -.269-.028c-.867 0-1.357.469-2.162 1.747l.234-1.63h-2.384l-1.616 10.728h2.644c.946-6.558 1.188-7.69 2.455-7.69.078 0 .085 0 .193.01.234-1.292.554-2.243.995-3.11l-.09-.028zm-15.754 10.687c-.715.243-1.28.353-1.888.353-1.343 0-2.076-.835-2.076-2.36 0-.299.022-.621.075-.962l.163-1.046.12-.854 1.142-7.322h2.616l-.3 1.592h1.346l-.37 2.608h-1.342l-.695 4.478c-.024.198-.044.344-.044.445 0 .55.274.795.896.795.304 0 .532-.033.708-.1l-.35 2.373zm-10.373-7.206c0 1.354.611 2.29 1.994 2.99 1.06.539 1.228.696 1.228 1.184 0 .667-.47.975-1.506.975-.78 0-1.51-.133-2.352-.43l-.364 2.476.119.025.483.105c.155.034.384.064.686.097.627.06 1.109.089 1.449.089 2.76 0 4.037-1.139 4.037-3.582 0-1.469-.532-2.337-1.847-2.987-1.098-.534-1.222-.66-1.222-1.158 0-.582.435-.881 1.28-.881.516 0 1.215.062 1.883.16l.374-2.478a16.094 16.094 0 0 0 -2.308-.212c-2.93 0-3.945 1.647-3.934 3.627zm55.821 7.336h-2.49l.13-1.05c-.725.83-1.47 1.192-2.431 1.192-1.925 0-3.186-1.77-3.186-4.453 0-3.57 1.96-6.582 4.287-6.582 1.023 0 1.796.452 2.524 1.469l.573-3.77h2.594l-2.001 13.195zm-3.884-2.526c1.23 0 2.089-1.49 2.089-3.614 0-1.364-.49-2.107-1.4-2.107-1.192 0-2.04 1.498-2.04 3.609 0 1.405.456 2.112 1.351 2.112zm-33.229 2.301c-.9.29-1.77.435-2.703.431-2.935 0-4.468-1.65-4.468-4.803 0-3.687 1.95-6.401 4.601-6.401 2.162 0 3.551 1.521 3.551 3.905 0 .79-.093 1.56-.328 2.647h-5.232a2.178 2.178 0 0 0 -.025.332c0 1.254.782 1.886 2.314 1.886.938 0 1.784-.208 2.73-.682zm-1.476-6.389c.015-.224.019-.407.019-.543 0-.877-.464-1.389-1.246-1.389-.835 0-1.433.684-1.678 1.925zm-27.796 6.614h-2.63l1.507-10.137-3.365 10.137h-1.802l-.218-10.08-1.586 10.08h-2.462l2.054-13.194h3.789l.104 8.165 2.558-8.165h4.088zm6.774-4.779a4.31 4.31 0 0 0 -.59-.046c-1.49 0-2.246.554-2.246 1.638 0 .668.372 1.094.946 1.094 1.07 0 1.846-1.094 1.89-2.686zm1.914 4.78h-2.18l.048-1.114c-.664.888-1.551 1.3-2.757 1.3-1.43 0-2.407-1.196-2.407-2.923 0-2.62 1.706-4.14 4.624-4.14.298 0 .68.023 1.07.08.083-.356.105-.509.105-.697 0-.709-.457-.977-1.69-.977-.745 0-1.6.115-2.189.306l-.365.108-.23.07.361-2.407c1.314-.416 2.18-.577 3.154-.577 2.261 0 3.46 1.09 3.46 3.146 0 .534-.039.93-.218 2.128l-.55 3.802-.09.686-.068.547-.046.374zm41.27-4.78a4.255 4.255 0 0 0 -.585-.046c-1.497 0-2.255.554-2.255 1.638 0 .668.376 1.094.95 1.094 1.076 0 1.843-1.094 1.89-2.686zm1.915 4.78h-2.182l.051-1.114c-.664.888-1.553 1.3-2.757 1.3-1.43 0-2.411-1.196-2.411-2.923 0-2.62 1.705-4.14 4.629-4.14.296 0 .68.023 1.07.08.08-.356.104-.509.104-.697 0-.709-.458-.977-1.69-.977-.75 0-1.601.115-2.185.306l-.375.108-.227.07.366-2.407c1.315-.416 2.179-.577 3.147-.577 2.264 0 3.463 1.09 3.463 3.146 0 .534-.045.93-.216 2.128l-.555 3.802-.081.686-.074.547-.048.374zm7.351-10.818a1.287 1.287 0 0 0 -.265-.028c-.864 0-1.358.469-2.167 1.747l.235-1.63h-2.38l-1.61 10.729h2.636c.946-6.558 1.195-7.69 2.454-7.69.081 0 .076-.008.184.01.238-1.292.56-2.243 1.002-3.11l-.09-.028z"/><path d="m59.251 24.056c0 2.433-.737 3.865-1.9 3.865-.848.027-1.362-.939-1.362-2.383 0-1.708.751-3.645 1.957-3.645.97 0 1.305 1.05 1.305 2.163zm2.588.045c0-2.703-1.308-4.808-3.767-4.808-2.83 0-4.663 2.56-4.663 6.326 0 2.698 1.083 4.903 3.763 4.903 2.704 0 4.667-1.956 4.667-6.42zm-7.584-6.706-.403 2.86c-.874-.505-1.51-.715-2.199-.715-1.839 0-3.123 2.043-3.123 4.946 0 2.005.86 3.217 2.293 3.217.61 0 1.28-.213 2.09-.68l-.426 3.01c-.91.286-1.503.384-2.178.384-2.65 0-4.3-2.187-4.3-5.696 0-4.722 2.278-8.017 5.54-8.017.422 0 .796.055 1.105.142l1.007.292c.31.126.375.148.594.257zm-16.272 1.965a.944.944 0 0 0 -.252-.03c-.798 0-1.266.47-2.014 1.744l.217-1.627h-2.224l-1.502 10.73h2.457c.884-6.564 1.118-7.693 2.296-7.693.07 0 .077 0 .18.012.221-1.298.52-2.25.933-3.118l-.09-.018zm32.097 10.703h-2.323l.12-1.048c-.675.826-1.378 1.192-2.277 1.192-1.79 0-2.972-1.774-2.972-4.456 0-3.563 1.835-6.585 4.004-6.585.957 0 1.684.462 2.355 1.479l.542-3.773h2.418l-1.868 13.19zm-3.634-2.524c1.158 0 1.956-1.49 1.956-3.616 0-1.367-.456-2.101-1.301-2.101-1.118 0-1.912 1.491-1.912 3.61 0 1.397.426 2.107 1.257 2.107zm-51.505 2.479a7.42 7.42 0 0 1 -2.517.437c-2.744 0-4.176-1.652-4.176-4.805 0-3.682 1.822-6.398 4.295-6.398 2.025 0 3.317 1.518 3.317 3.902 0 .788-.088 1.56-.298 2.648h-4.898c-.015.16-.02.24-.02.333 0 1.251.734 1.883 2.159 1.883.878 0 1.672-.21 2.552-.68zm-1.374-6.384c.012-.226.019-.407.019-.545 0-.875-.432-1.387-1.162-1.387-.785 0-1.343.689-1.568 1.921zm30.604 6.384a7.45 7.45 0 0 1 -2.518.437c-2.75 0-4.18-1.652-4.18-4.805 0-3.682 1.824-6.398 4.295-6.398 2.026 0 3.321 1.518 3.321 3.902 0 .788-.091 1.56-.309 2.648h-4.887c-.015.16-.024.24-.024.333 0 1.251.732 1.883 2.157 1.883.879 0 1.675-.21 2.555-.68zm-1.381-6.384c.016-.226.025-.407.025-.545 0-.875-.435-1.387-1.162-1.387-.785 0-1.343.689-1.57 1.921zm35.674 6.384a7.506 7.506 0 0 1 -2.525.437c-2.744 0-4.18-1.652-4.18-4.805 0-3.682 1.827-6.398 4.299-6.398 2.025 0 3.315 1.518 3.315 3.902 0 .788-.084 1.56-.302 2.648h-4.891c-.017.16-.02.24-.02.333 0 1.251.734 1.883 2.159 1.883.879 0 1.671-.21 2.554-.68l-.408 2.68zm-1.382-6.384c.011-.226.018-.407.018-.545 0-.875-.43-1.387-1.161-1.387-.785 0-1.34.689-1.568 1.921zm-69.414-3.789c-.482-.329-1.133-.616-2.053-.616-.994 0-1.793.21-1.793 1.29 0 1.906 3.622 1.194 3.622 5.276 0 3.718-2.39 4.682-4.553 4.682-.962 0-2.07-.325-2.885-.695l.587-2.732c.493.457 1.486.77 2.298.77.774 0 1.987-.216 1.987-1.596 0-2.16-3.62-1.357-3.62-5.148 0-3.468 2.114-4.507 4.154-4.507 1.15 0 2.228.172 2.861.602zm14.468 10.169c-.506.25-1.183.413-2.182.413-2.148 0-3.48-2.192-3.48-4.861 0-3.494 1.927-6.28 4.762-6.28.619 0 1.563.273 2.307.714l-.543 2.562c-.527-.353-1.076-.578-1.641-.578-1.314 0-2.252 1.23-2.252 3.433 0 1.268.68 2.309 1.756 2.309.64 0 1.09-.138 1.641-.467zm9.192-2.686a43.18 43.18 0 0 0 -.313 2.782h-2.366l.2-1.735h-.024c-.741 1.18-1.508 1.982-2.847 1.982-1.485 0-2.29-1.596-2.29-3.68 0-.72.044-1.125.201-2.247l.67-4.966h2.632l-.706 4.981c-.071.535-.172 1.066-.172 1.62 0 .627.28 1.262.99 1.223 1.079 0 1.716-1.348 1.897-2.92l.726-4.904h2.549zm49.588 2.652h-.398v-1.78h-.576v-.38h1.55v.38h-.576zm2.639 0h-.372v-1.806h-.005l-.355 1.806h-.39l-.347-1.806h-.006v1.806h-.37v-2.16h.58l.345 1.703h.005l.34-1.704h.575z"/></g></svg>