<svg height="33" viewBox="0 0 72 33" width="72" xmlns="http://www.w3.org/2000/svg"><g fill="#333" fill-rule="evenodd" opacity=".8"><path d="m14.6 17.417-3.591 9.956-.383-2.023c-.895-2.48-2.832-5.082-5.088-6.137l3.287 12.785 3.885-.002 5.777-14.58h-3.887zm2.938 14.609 2.297-14.61h3.67l-2.298 14.61zm16.552-13.994a8.84 8.84 0 0 0 -3.288-.615c-3.631 0-6.181 1.983-6.204 4.82-.023 2.102 1.824 3.274 3.213 3.972 1.433.714 1.911 1.173 1.907 1.812-.014.979-1.147 1.425-2.2 1.425-1.466 0-2.248-.22-3.45-.764l-.477-.233-.514 3.27c.859.407 2.443.76 4.091.778 3.853 0 6.36-1.961 6.39-4.99.015-1.666-.965-2.928-3.085-3.97-1.28-.676-2.07-1.125-2.059-1.812.002-.606.664-1.256 2.103-1.256a6.278 6.278 0 0 1 2.747.562l.327.168.5-3.167zm4.824 8.798c.304-.838 1.462-4.083 1.462-4.083-.022.04.301-.845.488-1.392l.245 1.26.852 4.216h-3.047zm4.526-9.413h-2.836c-.879 0-1.537.257-1.925 1.212l-5.449 13.387h3.854s.63-1.802.773-2.197c.42 0 4.164.009 4.699.009.113.51.447 2.188.447 2.188h3.408l-2.972-14.6z"/><path d="m7.8 17.417h-5.92l-.034.25c4.602 1.21 7.639 4.182 8.903 7.695l-1.287-6.715c-.22-.923-.865-1.198-1.662-1.23m-2.76-3.614h-2.34l-2.7-12.509 2.587-.444 1.847 9.789 4.705-9.66h2.484zm8.886-7.643c-.864 0-1.671.704-2.052 2.166h3.456c.064-1.388-.36-2.165-1.404-2.165m3.285 3.552h-5.581c-.153 1.74.634 2.499 1.966 2.499 1.117 0 2.098-.426 3.155-1.11l-.008 1.738c-1.036.667-2.234 1.093-3.639 1.093-2.43 0-4.035-1.425-3.553-4.645.435-2.905 2.39-4.663 4.66-4.663 2.61 0 3.478 2.017 3.098 4.552-.027.185-.079.407-.098.536m3.638-1.091-.768 5.125h-2.16l1.338-8.937h1.836l.002 1.795c.731-1.036 1.725-1.906 3.087-1.98l.012 2.202c-1.364.092-2.591.833-3.347 1.795m5.98-5.311c-.72 0-1.219-.518-1.108-1.258a1.52 1.52 0 0 1 1.49-1.295c.702 0 1.198.536 1.084 1.295a1.492 1.492 0 0 1 -1.465 1.257zm-2.661 10.436 1.338-8.937h2.16l-1.338 8.937zm9.482-11.379c-.74 0-1.185.333-1.304 1.128l-.197 1.314h1.656l-.001 1.813h-1.926l-1.067 7.124h-2.141l1.067-7.124h-1.26l.27-1.813h1.261l.23-1.536c.297-1.98 1.632-2.72 3.413-2.72.379 0 .661.037.872.074l.016 1.814a5.33 5.33 0 0 0 -.889-.074m2.684.943c-.72 0-1.219-.518-1.108-1.258a1.52 1.52 0 0 1 1.49-1.295c.703 0 1.198.536 1.085 1.295a1.492 1.492 0 0 1 -1.467 1.258zm-2.661 10.436 1.338-8.937h2.16l-1.338 8.937zm8.59-7.587c-.865 0-1.672.704-2.053 2.166h3.457c.063-1.388-.36-2.165-1.404-2.165m3.284 3.552h-5.58c-.153 1.74.633 2.499 1.966 2.499 1.116 0 2.098-.426 3.155-1.11l-.009 1.738c-1.036.667-2.234 1.093-3.638 1.093-2.43 0-4.035-1.425-3.553-4.645.435-2.905 2.39-4.663 4.659-4.663 2.61 0 3.478 2.017 3.099 4.552-.028.185-.08.407-.099.536m7.121-2.831c-.5-.259-.896-.388-1.634-.388-1.134 0-2.103.944-2.397 2.905-.26 1.74.338 2.554 1.292 2.554.792 0 1.476-.481 2.163-1.222zm-.721 6.865.005-1.24c-.726.76-1.672 1.426-2.878 1.426-1.819 0-3.068-1.389-2.617-4.405.499-3.33 2.503-4.81 4.52-4.81.827 0 1.471.148 1.966.332l.645-4.31 2.213-.352-2 13.36h-1.854zm9.679-5.424c-.546 0-1.093.379-1.578.883l-.46 3.07c.323.126.546.182 1.01.182 1.036 0 1.76-.645 1.991-2.187.195-1.303-.227-1.948-.963-1.948m-1.207 5.509a7.53 7.53 0 0 1 -2.633-.449l1.421-9.49 1.676-.265-.614 4.106c.49-.448 1.17-.897 2.002-.897 1.391 0 2.322 1.066 1.983 3.336-.374 2.495-1.871 3.659-3.835 3.659m7.69.28c-.836 1.668-1.664 2.186-2.932 2.186a1.96 1.96 0 0 1 -.59-.07l-.01-1.388c.21.057.435.099.749.099.477 0 .893-.225 1.171-.715l.217-.449-1.388-6.671 1.739-.224.805 4.82 2.18-4.722h1.623z"/></g></svg>