<?xml version="1.0" encoding="utf-8"?>
<!-- Generator: Adobe Illustrator 16.0.0, SVG Export Plug-In . SVG Version: 6.00 Build 0)  -->
<!DOCTYPE svg PUBLIC "-//W3C//DTD SVG 1.1//EN" "http://www.w3.org/Graphics/SVG/1.1/DTD/svg11.dtd">
<svg version="1.1" id="Layer_1" xmlns="http://www.w3.org/2000/svg" xmlns:xlink="http://www.w3.org/1999/xlink" x="0px" y="0px"
	 width="414px" height="400px" viewBox="472 0 414 400" enable-background="new 472 0 414 400" xml:space="preserve">
<g>
	<g>
		<path fill="#FFFFFF" d="M693.66,188.19v-74.723c7.446,2.766,13.944,7.84,18.462,14.702c3.999,6.071,12.161,7.752,18.229,3.754
			c6.071-3.997,7.752-12.158,3.753-18.229c-9.455-14.356-24.024-24.103-40.444-27.538V65.25c0-7.268-5.893-13.161-13.161-13.161
			s-13.161,5.893-13.161,13.161v20.867c-29.128,6.073-51.078,31.941-51.078,62.844s21.952,56.775,51.078,62.848v74.723
			c-7.446-2.766-13.944-7.84-18.462-14.702c-3.999-6.07-12.16-7.754-18.229-3.754c-6.071,3.996-7.752,12.158-3.753,18.229
			c9.455,14.356,24.024,24.104,40.444,27.538v20.904c0,7.269,5.893,13.161,13.161,13.161s13.161-5.893,13.161-13.161v-20.865
			c29.128-6.072,51.078-31.94,51.078-62.844S722.788,194.263,693.66,188.19L693.66,188.19z M642.581,148.962
			c0-16.269,10.329-30.132,24.757-35.485v70.97C652.91,179.094,642.581,165.23,642.581,148.962z M693.66,286.521v-70.971
			c14.428,5.354,24.757,19.217,24.757,35.485S708.09,281.168,693.66,286.521z"/>
	</g>
	<g>
		<path fill="#FFFFFF" d="M829.187,329.806h-14.542v-14.543c0-2.676-2.171-4.848-4.849-4.848c-2.675,0-4.847,2.172-4.847,4.848
			v14.543h-14.542c-2.679,0-4.847,2.172-4.847,4.849s2.17,4.847,4.847,4.847h14.542v14.542c0,2.679,2.172,4.849,4.847,4.849
			c2.678,0,4.849-2.17,4.849-4.849v-14.542h14.542c2.679,0,4.849-2.17,4.849-4.847S831.865,329.806,829.187,329.806z"/>
		<path fill="#FFFFFF" d="M809.798,286.155c-26.743,0-48.499,21.756-48.499,48.499c0,26.741,21.756,48.499,48.499,48.499
			s48.499-21.758,48.499-48.499C858.297,307.911,836.541,286.155,809.798,286.155z M809.798,376.77
			c-23.223,0-42.117-18.893-42.117-42.115s18.895-42.117,42.117-42.117s42.117,18.895,42.117,42.117S833.021,376.77,809.798,376.77z
			"/>
	</g>
	<path fill="#FFFFFF" d="M765.516,351.398c-25.146,14.177-54.15,22.28-85.017,22.28c-95.767,0-173.678-77.913-173.678-173.68
		S584.732,26.321,680.499,26.321s173.678,77.911,173.678,173.678c0,33.452-9.516,64.719-25.969,91.254
		c8.502,3.056,15.898,8.419,21.445,15.334c19.524-30.876,30.845-67.433,30.845-106.588C880.498,89.72,790.78,0,680.499,0
		C570.22,0,480.5,89.72,480.5,199.999c0,110.279,89.72,199.999,199.999,199.999c36.183,0,70.152-9.658,99.466-26.532
		C773.294,367.65,768.222,360.051,765.516,351.398z"/>
</g>
</svg>
