<?xml version="1.0" encoding="utf-8"?>
<!-- Generator: Adobe Illustrator 16.0.0, SVG Export Plug-In . SVG Version: 6.00 Build 0)  -->
<!DOCTYPE svg PUBLIC "-//W3C//DTD SVG 1.1//EN" "http://www.w3.org/Graphics/SVG/1.1/DTD/svg11.dtd">
<svg version="1.1" id="Layer_1" xmlns="http://www.w3.org/2000/svg" xmlns:xlink="http://www.w3.org/1999/xlink" x="0px" y="0px"
	 width="414px" height="400px" viewBox="472 0 414 400" enable-background="new 472 0 414 400" xml:space="preserve">
<g>
	<path fill="none" stroke="#FFFFFF" stroke-miterlimit="10" d="M880.5,50c0-10-6.667-16.667-16.667-16.667H497.167
		c-10,0-16.667,6.667-16.667,16.667v33.333c0,10,6.667,16.667,16.667,16.667h366.666c10,0,16.667-6.667,16.667-16.667V50z"/>
	<path fill="none" stroke="#FFFFFF" stroke-miterlimit="10" d="M880.5,183.333c0-10-6.667-16.667-16.667-16.667H497.167
		c-10,0-16.667,6.667-16.667,16.667v33.333c0,10,6.667,16.668,16.667,16.668h366.666c10,0,16.667-6.668,16.667-16.668V183.333z"/>
	<path fill="none" stroke="#FFFFFF" stroke-miterlimit="10" d="M880.5,316.667c0-10-6.667-16.667-16.667-16.667H497.167
		c-10,0-16.667,6.667-16.667,16.667V350c0,10,6.667,16.667,16.667,16.667h366.666c10,0,16.667-6.667,16.667-16.667V316.667z"/>
</g>
</svg>
