<?xml version="1.0" encoding="utf-8"?>
<!-- Generator: Adobe Illustrator 16.0.0, SVG Export Plug-In . SVG Version: 6.00 Build 0)  -->
<!DOCTYPE svg PUBLIC "-//W3C//DTD SVG 1.1//EN" "http://www.w3.org/Graphics/SVG/1.1/DTD/svg11.dtd">
<svg version="1.1" id="Capa_1" xmlns="http://www.w3.org/2000/svg" xmlns:xlink="http://www.w3.org/1999/xlink" x="0px" y="0px"
	 width="399px" height="400px" viewBox="482 0 399 400" enable-background="new 482 0 399 400" xml:space="preserve">
<path fill="none" stroke="#FFFFFF" stroke-miterlimit="10" d="M867.721,364.337l-95.201-99.014
	c24.479-29.099,37.89-65.709,37.89-103.823c0-89.05-72.45-161.5-161.5-161.5s-161.5,72.45-161.5,161.5
	c0,89.049,72.45,161.5,161.5,161.5c33.431,0,65.288-10.084,92.525-29.225l95.924,99.765c4.01,4.164,9.402,6.46,15.181,6.46
	c5.471,0,10.659-2.086,14.599-5.877C875.508,386.069,875.774,372.714,867.721,364.337z M648.909,42.13
	c65.821,0,119.369,53.548,119.369,119.37c0,65.822-53.548,119.369-119.369,119.369S529.54,227.322,529.54,161.5
	C529.54,95.678,583.088,42.13,648.909,42.13z"/>
</svg>
