<?xml version="1.0" encoding="utf-8"?>
<!-- Generator: Adobe Illustrator 16.0.0, SVG Export Plug-In . SVG Version: 6.00 Build 0)  -->
<!DOCTYPE svg PUBLIC "-//W3C//DTD SVG 1.1//EN" "http://www.w3.org/Graphics/SVG/1.1/DTD/svg11.dtd">
<svg version="1.1" id="Capa_1" xmlns="http://www.w3.org/2000/svg" xmlns:xlink="http://www.w3.org/1999/xlink" x="0px" y="0px"
	 width="414px" height="400px" viewBox="473 0 414 400" enable-background="new 473 0 414 400" xml:space="preserve">
<g>
	<g>
		<path fill="#FFFFFF" d="M860.025,158.011l-28.076-4.763c-2.924-9.442-6.685-18.55-11.28-27.24l16.545-23.146
			c7.019-9.86,5.933-23.313-2.674-31.836l-24.9-24.9c-4.68-4.679-10.863-7.27-17.464-7.27c-5.181,0-10.111,1.587-14.289,4.596
			l-23.229,16.544c-9.024-4.763-18.466-8.69-28.243-11.615l-4.679-27.741c-2.006-11.949-12.283-20.639-24.399-20.639h-35.179
			c-12.116,0-22.394,8.69-24.399,20.639l-4.846,28.41c-9.359,2.925-18.467,6.769-27.157,11.448l-22.979-16.544
			c-4.178-3.008-9.191-4.596-14.372-4.596c-6.602,0-12.868,2.59-17.464,7.27l-24.984,24.9c-8.522,8.523-9.692,21.976-2.674,31.836
			l16.712,23.48c-4.596,8.773-8.272,17.881-11.113,27.324l-27.742,4.679c-11.948,2.005-20.639,12.283-20.639,24.399v35.178
			c0,12.117,8.69,22.395,20.639,24.4l28.41,4.846c2.925,9.359,6.769,18.467,11.448,27.156l-16.462,22.896
			c-7.019,9.859-5.933,23.313,2.675,31.835l24.9,24.901c4.679,4.679,10.862,7.27,17.464,7.27c5.181,0,10.11-1.588,14.288-4.596
			l23.48-16.712c8.439,4.429,17.297,8.021,26.404,10.862l4.68,28.076c2.005,11.949,12.283,20.639,24.399,20.639h35.262
			c12.116,0,22.394-8.689,24.399-20.639l4.763-28.076c9.442-2.925,18.551-6.685,27.24-11.28l23.146,16.545
			c4.178,3.008,9.191,4.596,14.372,4.596l0,0c6.601,0,12.784-2.591,17.464-7.27l24.9-24.901c8.523-8.522,9.692-21.976,2.674-31.836
			l-16.545-23.229c4.596-8.774,8.439-17.883,11.28-27.24l28.076-4.68c11.949-2.006,20.64-12.283,20.64-24.399V182.41
			C880.664,170.294,871.975,160.017,860.025,158.011z M858.104,217.589c0,1.086-0.752,2.005-1.838,2.173l-35.095,5.849
			c-4.429,0.752-7.938,4.011-9.024,8.272c-3.176,12.283-8.021,24.064-14.54,35.012c-2.256,3.844-2.089,8.605,0.502,12.283
			l20.639,29.078c0.585,0.836,0.502,2.089-0.251,2.841l-24.9,24.9c-0.585,0.585-1.17,0.669-1.587,0.669
			c-0.502,0-0.92-0.167-1.254-0.418l-28.995-20.639c-3.593-2.591-8.439-2.758-12.283-0.502
			c-10.946,6.518-22.728,11.364-35.011,14.539c-4.346,1.087-7.604,4.68-8.272,9.024l-5.933,35.095
			c-0.167,1.087-1.087,1.839-2.173,1.839h-35.179c-1.086,0-2.005-0.752-2.172-1.839l-5.85-35.095
			c-0.752-4.429-4.011-7.938-8.272-9.024c-11.948-3.091-23.479-7.854-34.259-14.037c-1.755-1.003-3.761-1.505-5.683-1.505
			c-2.256,0-4.596,0.669-6.518,2.09L570.911,339c-0.418,0.251-0.836,0.418-1.254,0.418c-0.334,0-1.002-0.084-1.587-0.669
			l-24.901-24.9c-0.752-0.752-0.835-1.922-0.25-2.841l20.556-28.828c2.59-3.676,2.757-8.523,0.501-12.367
			c-6.518-10.861-11.531-22.644-14.706-34.927c-1.17-4.262-4.68-7.521-9.024-8.272l-35.346-6.017
			c-1.087-0.167-1.839-1.086-1.839-2.173v-35.178c0-1.086,0.752-2.005,1.839-2.173l34.844-5.849
			c4.429-0.752,8.021-4.011,9.108-8.356c3.092-12.283,7.854-24.148,14.288-35.095c2.257-3.844,2.006-8.606-0.585-12.2
			l-20.806-29.246c-0.585-0.835-0.502-2.089,0.251-2.841l24.9-24.901c0.585-0.585,1.17-0.668,1.587-0.668
			c0.502,0,0.92,0.167,1.254,0.418l28.828,20.556c3.677,2.59,8.522,2.757,12.366,0.501c10.863-6.518,22.645-11.531,34.928-14.706
			c4.262-1.17,7.521-4.679,8.272-9.024l6.017-35.346c0.167-1.086,1.086-1.838,2.172-1.838h35.179c1.086,0,2.006,0.752,2.173,1.838
			l5.849,34.844c0.752,4.429,4.011,8.021,8.356,9.108c12.617,3.175,24.649,8.105,35.847,14.707
			c3.844,2.256,8.606,2.089,12.283-0.501l28.828-20.723c0.417-0.25,0.835-0.418,1.253-0.418c0.334,0,1.003,0.084,1.588,0.668
			l24.9,24.901c0.752,0.752,0.836,1.922,0.251,2.841l-20.64,28.995c-2.59,3.593-2.757,8.439-0.501,12.283
			c6.518,10.946,11.364,22.728,14.539,35.011c1.087,4.345,4.68,7.604,9.024,8.272l35.095,5.933c1.087,0.167,1.839,1.086,1.839,2.172
			v35.179H858.104z"/>
		<path fill="#FFFFFF" d="M680.541,113.641c-47.629,0-86.317,38.688-86.317,86.317c0,47.628,38.688,86.316,86.317,86.316
			c47.628,0,86.316-38.688,86.316-86.316C766.857,152.329,728.169,113.641,680.541,113.641z M680.541,263.713
			c-35.179,0-63.756-28.576-63.756-63.755s28.577-63.756,63.756-63.756c35.178,0,63.755,28.577,63.755,63.756
			S715.719,263.713,680.541,263.713z"/>
	</g>
</g>
</svg>
