<?xml version="1.0" encoding="utf-8"?>
<!-- Generator: Adobe Illustrator 16.0.0, SVG Export Plug-In . SVG Version: 6.00 Build 0)  -->
<!DOCTYPE svg PUBLIC "-//W3C//DTD SVG 1.1//EN" "http://www.w3.org/Graphics/SVG/1.1/DTD/svg11.dtd">
<svg version="1.1" id="Capa_1" xmlns="http://www.w3.org/2000/svg" xmlns:xlink="http://www.w3.org/1999/xlink" x="0px" y="0px"
	 width="612px" height="792px" viewBox="0 0 612 792" enable-background="new 0 0 612 792" xml:space="preserve">
<g id="Close">
	<path d="M378.736,396l218.201-218.201c20.085-20.085,20.085-52.651,0-72.734c-20.086-20.085-52.648-20.085-72.734,0L306,323.27
		L87.796,105.063c-20.085-20.086-52.648-20.086-72.733,0c-20.083,20.085-20.083,52.651,0,72.733l218.204,218.201L15.063,614.201
		c-20.083,20.085-20.083,52.65,0,72.733c20.085,20.085,52.648,20.085,72.733,0L306,468.73l218.203,218.204
		c20.083,20.085,52.648,20.085,72.734,0c20.085-20.086,20.085-52.648,0-72.733L378.736,396z"/>
</g>
</svg>
