<?xml version="1.0" encoding="utf-8"?>
<!-- Generator: Adobe Illustrator 16.0.0, SVG Export Plug-In . SVG Version: 6.00 Build 0)  -->
<!DOCTYPE svg PUBLIC "-//W3C//DTD SVG 1.1//EN" "http://www.w3.org/Graphics/SVG/1.1/DTD/svg11.dtd">
<svg version="1.1" id="Capa_1" xmlns="http://www.w3.org/2000/svg" xmlns:xlink="http://www.w3.org/1999/xlink" x="0px" y="0px"
	 width="612px" height="792px" viewBox="0 0 612 792" enable-background="new 0 0 612 792" xml:space="preserve">
<g>
	<g>
		<path d="M559.182,606.197l-43.783-72.981c-20.221-33.685-30.906-72.268-30.906-111.537V357.75
			c0-80.708-53.855-148.971-127.5-170.978V141c0-28.127-22.874-51-51-51c-28.127,0-51,22.874-51,51v45.772
			c-73.643,22.007-127.499,90.27-127.499,170.978v63.929c0,39.27-10.685,77.826-30.881,111.512l-43.783,72.981
			c-2.372,3.953-2.423,8.849-0.153,12.852c2.27,4.004,6.478,6.478,11.068,6.478h484.5c4.59,0,8.822-2.473,11.093-6.451
			C561.604,615.071,561.528,610.123,559.182,606.197z"/>
	</g>
</g>
<g>
	<g>
		<path d="M225.693,651c14.382,30.039,44.829,51,80.299,51c35.469,0,65.917-20.961,80.3-51H225.693z"/>
	</g>
</g>
</svg>
