<svg id="Capa_1" enable-background="new 0 0 512 512" height="512" viewBox="0 0 512 512" width="512" xmlns="http://www.w3.org/2000/svg"><path d="m45 392h75v-181h-29.306c3.723-40.779 22.465-79.267 52.131-106.962l20.821 20.821c5.307-2.964 36.079-34.859 92.354-34.859 56.027 0 87.107 31.929 92.354 34.859l20.821-20.821c29.666 27.695 48.408 66.182 52.131 106.962h-29.306v180.99h28.491c-6.969 34.192-37.271 60.01-73.491 60.01h-15v-30h-76c-24.813 0-45 20.187-45 45s20.187 45 45 45h76v-30h15c52.805 0 96.623-39.183 103.924-90h16.076c24.813 0 45-20.187 45-45v-91c0-24.813-20.187-45-45-45h-15.596c-3.789-49.182-25.546-94.71-61.006-128.185l21.481-21.481c-6.657-3.952-59.187-61.334-155.879-61.334-96.294 0-149.835 57.746-155.879 61.335l21.481 21.481c-35.445 33.46-57.215 78.981-61.006 128.184h-15.596c-24.813 0-45 20.187-45 45v91c0 24.813 20.187 45 45 45zm257 90h-46c-8.271 0-15-6.729-15-15s6.729-15 15-15h46zm180-226v91c0 8.271-6.729 15-15 15-14.05 0-30.905 0-45 0v-121h45c8.271 0 15 6.729 15 15zm-226-226c39.954 0 78.701 11.972 110.798 33.989l-21.552 21.551c-26.121-16.543-57.335-25.54-89.246-25.54s-63.125 8.997-89.246 25.541l-21.552-21.551c32.097-22.018 70.844-33.99 110.798-33.99zm-226 226c0-8.271 6.729-15 15-15h45v121c-14.095 0-30.95 0-45 0-8.271 0-15-6.729-15-15z"/></svg>