<?xml version="1.0" encoding="utf-8"?>
<!-- Generator: Adobe Illustrator 16.0.0, SVG Export Plug-In . SVG Version: 6.00 Build 0)  -->
<!DOCTYPE svg PUBLIC "-//W3C//DTD SVG 1.1//EN" "http://www.w3.org/Graphics/SVG/1.1/DTD/svg11.dtd">
<svg version="1.1" id="Capa_1" xmlns="http://www.w3.org/2000/svg" xmlns:xlink="http://www.w3.org/1999/xlink" x="0px" y="0px"
	 width="612px" height="792px" viewBox="0 0 612 792" enable-background="new 0 0 612 792" xml:space="preserve">
<g>
	<g>
		<path fill="#010002" d="M48.398,207.119l220.44,174.612c9.996,7.909,23.771,11.424,37.15,10.765
			c13.357,0.659,27.132-2.834,37.128-10.765l220.44-174.612c17.663-13.907,13.665-25.309-8.744-25.309H306.011H57.208
			C34.777,181.81,30.779,193.212,48.398,207.119z"/>
		<path fill="#010002" d="M579.485,253.188L338.592,436.083c-9.008,6.767-20.806,10.062-32.559,9.908
			c-11.776,0.153-23.573-3.163-32.581-9.908L32.515,253.188C14.631,239.633,0,246.905,0,269.336v300.079
			c0,22.431,18.366,40.797,40.797,40.797h265.192h265.214c22.431,0,40.797-18.366,40.797-40.797V269.336
			C612,246.905,597.368,239.633,579.485,253.188z"/>
	</g>
</g>
</svg>
