<?xml version="1.0" encoding="utf-8"?>
<!-- Generator: Adobe Illustrator 16.0.0, SVG Export Plug-In . SVG Version: 6.00 Build 0)  -->
<!DOCTYPE svg PUBLIC "-//W3C//DTD SVG 1.1//EN" "http://www.w3.org/Graphics/SVG/1.1/DTD/svg11.dtd">
<svg version="1.1" id="Capa_1" xmlns="http://www.w3.org/2000/svg" xmlns:xlink="http://www.w3.org/1999/xlink" x="0px" y="0px"
	 width="67.025px" height="67.025px" viewBox="0 0 67.025 67.025" enable-background="new 0 0 67.025 67.025" xml:space="preserve">
<g>
	<g>
		<g>
			<polygon points="41.441,29.477 44.576,31.269 50.848,27.685 41.441,22.086 			"/>
			<path d="M60.48,18.052l2.24-4.031c1.791-3.137-3.359-6.721-5.824-8.063c-2.465-1.346-8.063-4.257-9.855-0.896l-3.137,5.376
				c-3.137-0.672-6.721-1.12-10.304-1.12C15.008,9.317,0,19.398,0,31.718C0,44.036,15.008,54.116,33.6,54.116c0,0,0,0,0.225,0
				c0.224,2.688-2.912,7.168-7.393,9.406c17.697,0,25.761-13.216,25.761-13.216c8.959-4.032,14.783-10.752,14.783-18.592
				C67.424,26.565,64.736,21.861,60.48,18.052z M15.455,37.99c-1.792,0-3.136-1.347-3.136-3.139s1.344-3.136,3.136-3.136
				s3.136,1.344,3.136,3.136S17.025,37.99,15.455,37.99z M23.743,37.99c-1.792,0-3.136-1.347-3.136-3.139s1.344-3.136,3.136-3.136
				s3.136,1.344,3.136,3.136S25.535,37.99,23.743,37.99z M32.032,37.99c-1.792,0-3.137-1.347-3.137-3.139s1.345-3.136,3.137-3.136
				s3.136,1.344,3.136,3.136S33.824,37.99,32.032,37.99z M51.969,28.357l-6.496,3.584l-5.377,2.911v-6.047v-7.392l8.961-15.456
				c0.446-0.896,3.584,0,6.942,1.792c3.359,1.792,5.601,4.031,4.929,4.928L51.969,28.357z"/>
		</g>
	</g>
</g>
</svg>
