<?xml version="1.0" encoding="utf-8"?>
<!-- Generator: Adobe Illustrator 16.0.0, SVG Export Plug-In . SVG Version: 6.00 Build 0)  -->
<!DOCTYPE svg PUBLIC "-//W3C//DTD SVG 1.1//EN" "http://www.w3.org/Graphics/SVG/1.1/DTD/svg11.dtd">
<svg version="1.1" id="Capa_1" xmlns="http://www.w3.org/2000/svg" xmlns:xlink="http://www.w3.org/1999/xlink" x="0px" y="0px"
	 width="511.625px" height="511.625px" viewBox="0 0 511.625 511.625" enable-background="new 0 0 511.625 511.625"
	 xml:space="preserve">
<g>
	<path d="M477.372,127.44c-22.844-28.074-53.871-50.249-93.076-66.523c-39.205-16.272-82.035-24.41-128.479-24.41
		c-34.643,0-67.762,4.805-99.357,14.417c-31.595,9.611-58.812,22.602-81.653,38.97c-22.845,16.37-41.018,35.832-54.534,58.385
		C6.757,170.833,0,194.484,0,219.228c0,28.549,8.61,55.3,25.837,80.233c17.227,24.932,40.778,45.871,70.664,62.812
		c-2.096,7.61-4.57,14.847-7.426,21.692c-2.855,6.853-5.424,12.475-7.708,16.852c-2.286,4.377-5.376,9.232-9.281,14.563
		c-3.899,5.328-6.849,9.088-8.848,11.275c-1.997,2.189-5.28,5.811-9.851,10.848c-4.565,5.049-7.517,8.33-8.848,9.855
		c-0.193,0.09-0.953,0.951-2.285,2.566c-1.331,1.615-1.999,2.424-1.999,2.424l-1.713,2.566c-0.953,1.43-1.381,2.334-1.287,2.707
		c0.096,0.373-0.094,1.33-0.57,2.85c-0.477,1.527-0.428,2.67,0.142,3.434v0.285c0.765,3.428,2.43,6.186,4.998,8.275
		c2.568,2.092,5.474,2.951,8.708,2.564c12.375-1.523,23.223-3.607,32.548-6.277c49.87-12.758,93.649-35.781,131.334-69.096
		c14.272,1.521,28.072,2.285,41.396,2.285c46.441,0,89.271-8.138,128.479-24.417c39.209-16.272,70.234-38.448,93.072-66.517
		c22.844-28.063,34.264-58.663,34.264-91.781C511.625,186.108,500.208,155.509,477.372,127.44z"/>
</g>
</svg>
