<?xml version="1.0" encoding="utf-8"?>
<!-- Generator: Adobe Illustrator 16.0.0, SVG Export Plug-In . SVG Version: 6.00 Build 0)  -->
<!DOCTYPE svg PUBLIC "-//W3C//DTD SVG 1.1//EN" "http://www.w3.org/Graphics/SVG/1.1/DTD/svg11.dtd">
<svg version="1.1" id="Capa_1" xmlns="http://www.w3.org/2000/svg" xmlns:xlink="http://www.w3.org/1999/xlink" x="0px" y="0px"
	 width="612px" height="792px" viewBox="0 0 612 792" enable-background="new 0 0 612 792" xml:space="preserve">
<g>
	<g id="Layer_5_45_">
		<g>
			<g>
				<path d="M197.417,633.465c0,15.512-12.691,28.203-28.203,28.203H52.642c-15.512,0-28.203-12.691-28.203-28.203V505.611
					c0-15.512,12.691-28.202,28.203-28.202h116.572c15.512,0,28.203,12.69,28.203,28.202V633.465z"/>
			</g>
			<g>
				<path d="M404.708,633.465c0,15.512-12.69,28.203-28.202,28.203H259.934c-15.512,0-28.203-12.691-28.203-28.203v-195.54
					c0-15.512,12.691-28.203,28.203-28.203h116.572c15.512,0,28.202,12.691,28.202,28.203V633.465z"/>
			</g>
			<g>
				<path d="M612,633.465c0,15.512-12.691,28.203-28.203,28.203H467.225c-15.512,0-28.203-12.691-28.203-28.203V362.717
					c0-15.512,12.691-28.203,28.203-28.203h116.572c15.512,0,28.203,12.691,28.203,28.203V633.465z"/>
			</g>
			<path d="M587.603,130.858l-126.678,30.82c-10.052,2.433-12.291,10.407-4.979,17.719l27.032,26.4
				c2.27,2.587-0.424,6.028-2.56,7.485c-17.021,11.62-44.034,28.669-81.373,48.15C195.768,367.489,28.199,360.983,25.68,360.869
				c-13.451-0.683-24.952,9.679-25.647,23.153c-0.694,13.48,9.669,24.975,23.15,25.668c0.991,0.051,5.021,0.233,11.795,0.233
				c43.445,0,199.509-7.496,386.681-105.148c44.288-23.106,74.984-43.034,92.908-55.65c2.534-1.785,6.951-4.86,11.027-0.711
				l29.566,29.564c7.312,7.313,15.246,5.062,17.638-5l28.739-128.25C603.925,134.666,597.652,128.426,587.603,130.858z"/>
		</g>
	</g>
</g>
</svg>
