<?xml version="1.0" encoding="utf-8"?>
<!-- Generator: Adobe Illustrator 16.0.0, SVG Export Plug-In . SVG Version: 6.00 Build 0)  -->
<!DOCTYPE svg PUBLIC "-//W3C//DTD SVG 1.1//EN" "http://www.w3.org/Graphics/SVG/1.1/DTD/svg11.dtd">
<svg version="1.1" id="Capa_1" xmlns="http://www.w3.org/2000/svg" xmlns:xlink="http://www.w3.org/1999/xlink" x="0px" y="0px"
	 width="612px" height="792px" viewBox="0 0 612 792" enable-background="new 0 0 612 792" xml:space="preserve">
<g>
	<path d="M600.027,352.804c-0.567-1.369-1.392-2.604-2.415-3.638L464.097,215.66c-4.352-4.351-11.384-4.351-15.734,0
		c-4.351,4.351-4.351,11.383,0,15.734l114.533,114.533H322.702c-6.153,0-11.127,4.974-11.127,11.127s4.974,11.127,11.127,11.127
		h240.193L448.362,482.715c-4.351,4.351-4.351,11.383,0,15.734c2.17,2.169,5.019,3.26,7.867,3.26s5.697-1.091,7.867-3.26
		l133.516-133.517c1.035-1.023,1.848-2.259,2.415-3.627C601.151,358.59,601.151,355.519,600.027,352.804z"/>
	<path d="M400.593,412.691c-6.153,0-11.127,4.974-11.127,11.127v178.036H278.193V179.018c0-4.852-3.138-9.135-7.756-10.604
		l-176.5-56.16h295.529v178.037c0,6.153,4.974,11.127,11.127,11.127s11.128-4.974,11.128-11.127V101.127
		c0-6.154-4.975-11.127-11.128-11.127H22.266c-0.356,0-0.667,0.167-1.013,0.2c-0.623,0.056-1.168,0.2-1.758,0.356
		c-1.046,0.278-1.981,0.657-2.882,1.202c-0.289,0.178-0.634,0.178-0.912,0.378c-0.345,0.256-0.612,0.579-0.924,0.857
		c-0.189,0.178-0.389,0.334-0.567,0.523c-0.846,0.913-1.536,1.925-2.047,3.038c-0.1,0.223-0.156,0.445-0.245,0.668
		c-0.467,1.246-0.779,2.548-0.779,3.906v511.854c0,1.392,0.323,2.704,0.801,3.95c0.156,0.412,0.39,0.757,0.59,1.146
		c0.412,0.79,0.879,1.514,1.469,2.181c0.323,0.356,0.646,0.679,1.001,1.002c0.646,0.567,1.369,1.034,2.147,1.446
		c0.412,0.223,0.79,0.456,1.235,0.623c0.189,0.066,0.334,0.2,0.523,0.268l244.8,77.891c1.091,0.334,2.226,0.512,3.36,0.512
		c2.337,0,4.64-0.734,6.565-2.137c2.871-2.092,4.562-5.43,4.562-8.99v-66.764h122.4c6.153,0,11.128-4.975,11.128-11.128V423.818
		C411.721,417.665,406.735,412.691,400.593,412.691z"/>
</g>
</svg>
