<?xml version="1.0" encoding="utf-8"?>
<!-- Generator: Adobe Illustrator 16.0.0, SVG Export Plug-In . SVG Version: 6.00 Build 0)  -->
<!DOCTYPE svg PUBLIC "-//W3C//DTD SVG 1.1//EN" "http://www.w3.org/Graphics/SVG/1.1/DTD/svg11.dtd">
<svg version="1.1" id="Layer_1" xmlns="http://www.w3.org/2000/svg" xmlns:xlink="http://www.w3.org/1999/xlink" x="0px" y="0px"
	 width="1280px" height="800px" viewBox="0 0 1280 800" enable-background="new 0 0 1280 800" xml:space="preserve">
<g>
	<g>
		<path fill="#001E6B" d="M492.193,353.418c0-2.536,1.698-4.753,4.159-5.363c5.151-1.28,11.326-2.491,18.533-3.633
			c9.259-1.468,18.984-2.201,29.17-2.201c10.34,0,18.947,1.354,25.816,4.053c6.867,2.699,12.306,6.52,16.322,11.46
			c4.012,4.94,6.868,10.805,8.568,17.597c1.696,6.793,2.546,14.354,2.546,22.689v63.208c0,3.068-2.489,5.558-5.558,5.558h-23.381
			c-3.071,0-5.558-2.489-5.558-5.558v-59.04c0-11.113-1.47-18.985-4.399-23.615c-2.935-4.634-8.415-6.946-16.439-6.946
			c-2.47,0-5.091,0.113-7.872,0.346c-2.777,0.233-5.25,0.504-7.409,0.809v88.481c0,3.049-2.474,5.522-5.525,5.522h-23.45
			c-3.051,0-5.523-2.474-5.523-5.522V353.418z"/>
		<path fill="#001E6B" d="M655.852,388.734c3.395-3.681,6.901-7.517,10.526-11.505c3.62-3.992,7.13-7.942,10.522-11.858
			c3.396-3.912,6.591-7.632,9.599-11.163c2.273-2.667,4.305-5.071,6.094-7.215c1.053-1.263,2.604-1.994,4.249-1.994h26.224
			c4.762,0,7.284,5.638,4.129,9.208c-5.383,6.094-10.681,11.998-15.889,17.71c-7.796,8.549-16.324,17.362-25.584,26.451
			c4.63,4.176,9.412,9.166,14.354,14.963c4.937,5.796,9.725,11.786,14.354,17.977c4.63,6.183,8.874,12.365,12.734,18.549
			c1.882,3.019,3.618,5.907,5.206,8.668c2.121,3.684-0.562,8.263-4.81,8.263h-27.259c-1.916,0-3.681-0.982-4.692-2.607
			c-2.062-3.315-4.335-6.893-6.825-10.737c-3.156-4.875-6.509-9.747-10.052-14.62c-3.548-4.874-7.28-9.554-11.209-14.04
			s-7.822-8.275-11.673-11.373v47.852c0,3.053-2.474,5.526-5.524,5.526h-23.446c-3.053,0-5.526-2.474-5.526-5.526V297.382
			c0-2.712,1.97-5.024,4.648-5.454l23.444-3.778c3.359-0.542,6.404,2.053,6.404,5.456V388.734z"/>
		<path fill="#001E6B" d="M937.6,469.104c-10.035-0.156-18.176-1.238-24.427-3.244c-6.25-2.001-11.194-4.823-14.818-8.448
			c-3.627-3.627-6.099-8.024-7.408-13.199c-1.313-5.167-1.968-10.997-1.968-17.479V297.382c0-2.712,1.968-5.024,4.646-5.454
			l23.446-3.778c3.359-0.542,6.404,2.053,6.404,5.456v126.182c0,3.086,0.232,5.868,0.694,8.335c0.465,2.47,1.35,4.554,2.663,6.252
			c1.31,1.7,3.201,3.086,5.674,4.164c2.466,1.083,5.788,1.778,9.955,2.087L937.6,469.104z"/>
		<path fill="#001E6B" d="M402.385,371.467c18.793,0,34.081,15.289,34.081,34.082c0,18.79-15.288,34.081-34.081,34.081
			c-18.792,0-34.081-15.291-34.081-34.081C368.305,386.755,383.593,371.467,402.385,371.467 M402.385,342.222
			c-34.972,0-63.324,28.352-63.324,63.327c0,34.974,28.352,63.323,63.324,63.323c34.974,0,63.324-28.35,63.324-63.323
			C465.709,370.574,437.359,342.222,402.385,342.222L402.385,342.222z"/>
		<path fill="#001E6B" d="M465.767,372.784v-23.642c0-3.31-2.898-5.891-6.185-5.497c-1.894,0.227-3.769,0.484-5.621,0.778
			c-7.206,1.142-13.382,2.353-18.531,3.633c-2.461,0.61-4.161,2.827-4.161,5.363v16.479c0,0.649,0.119,1.293,0.35,1.899
			l12.213,31.962c0.441,1.157,0.467,2.43,0.071,3.602l-12.355,36.625c-0.186,0.549-0.279,1.124-0.279,1.702v15.573
			c0,3.053,2.474,5.526,5.526,5.526h23.445c3.039,0,5.526-2.485,5.526-5.526V372.784z"/>
		<g>
			<path fill="#001E6B" d="M812.219,371.467c18.793,0,34.081,15.289,34.081,34.082c0,18.79-15.288,34.081-34.081,34.081
				s-34.081-15.291-34.081-34.081C778.138,386.755,793.426,371.467,812.219,371.467 M812.219,342.222
				c-34.974,0-63.324,28.352-63.324,63.327c0,34.974,28.351,63.323,63.324,63.323c34.972,0,63.323-28.35,63.323-63.323
				C875.542,370.574,847.19,342.222,812.219,342.222L812.219,342.222z"/>
			<path fill="#001E6B" d="M748.837,372.784v-23.642c0-3.31,2.898-5.891,6.185-5.497c1.895,0.227,3.771,0.484,5.622,0.778
				c7.206,1.142,13.382,2.353,18.53,3.633c2.463,0.61,4.161,2.827,4.161,5.363v16.479c0,0.649-0.119,1.293-0.352,1.899
				l-12.212,31.962c-0.44,1.157-0.467,2.43-0.072,3.602l12.356,36.625c0.185,0.549,0.279,1.124,0.279,1.702v60.705
				c0,3.055-2.474,5.528-5.526,5.528h-23.445c-3.039,0-5.526-2.489-5.526-5.528V372.784z"/>
		</g>
		<path fill="#001E6B" d="M1065.612,371.19l0.019-0.017c-0.06-0.093-0.13-0.175-0.189-0.268c-0.74-1.131-1.544-2.212-2.355-3.291
			c-0.433-0.581-0.844-1.17-1.302-1.739c-0.742-0.924-1.54-1.797-2.334-2.679c-0.48-0.534-0.91-1.097-1.412-1.618
			c-0.13-0.134-0.271-0.244-0.399-0.376c-0.861-0.876-1.779-1.692-2.69-2.519c-0.652-0.593-1.285-1.22-1.958-1.78
			c-0.826-0.687-1.704-1.312-2.563-1.955c-0.81-0.61-1.598-1.254-2.43-1.815c-0.732-0.499-1.514-0.93-2.27-1.399
			c-0.995-0.614-1.976-1.265-2.994-1.819c-0.774-0.42-1.589-0.766-2.381-1.157c-1.04-0.51-2.065-1.057-3.127-1.507
			c-1.044-0.443-2.134-0.796-3.205-1.185c-0.849-0.307-1.68-0.66-2.537-0.928c-1.098-0.346-2.236-0.599-3.359-0.886
			c-0.871-0.219-1.732-0.487-2.61-0.669c-0.977-0.205-1.98-0.326-2.974-0.484c-1.068-0.173-2.134-0.374-3.209-0.491
			c-0.863-0.093-1.747-0.112-2.621-0.171c-1.231-0.082-2.463-0.177-3.699-0.186c-0.183-0.003-0.359-0.03-0.544-0.03
			c-0.714,0-1.408,0.086-2.118,0.108c-1.2,0.041-2.397,0.075-3.596,0.182c-0.989,0.089-1.959,0.236-2.934,0.369
			c-1.063,0.147-2.128,0.287-3.185,0.487c-1.03,0.195-2.038,0.443-3.053,0.688c-0.989,0.238-1.977,0.473-2.957,0.759
			c-1.008,0.297-1.992,0.64-2.979,0.982c-0.964,0.337-1.926,0.671-2.878,1.055c-0.952,0.385-1.877,0.813-2.805,1.241
			c-0.949,0.439-1.896,0.875-2.826,1.362c-0.904,0.476-1.778,0.989-2.654,1.506c-0.9,0.528-1.797,1.049-2.675,1.624
			c-0.9,0.59-1.764,1.229-2.63,1.862c-0.797,0.581-1.596,1.148-2.37,1.771c-0.936,0.755-1.819,1.561-2.712,2.366
			c-0.526,0.476-1.084,0.896-1.598,1.395c-0.133,0.126-0.244,0.268-0.374,0.398c-0.878,0.863-1.698,1.782-2.526,2.695
			c-0.591,0.651-1.215,1.282-1.772,1.951c-0.69,0.828-1.315,1.708-1.962,2.571c-0.606,0.806-1.248,1.592-1.811,2.422
			c-0.506,0.744-0.943,1.533-1.415,2.299c-0.608,0.986-1.25,1.955-1.801,2.965c-0.43,0.789-0.785,1.624-1.183,2.433
			c-0.501,1.023-1.038,2.031-1.481,3.077c-0.448,1.053-0.806,2.15-1.196,3.231c-0.303,0.837-0.652,1.661-0.918,2.509
			c-0.349,1.108-0.604,2.254-0.892,3.389c-0.22,0.859-0.481,1.711-0.664,2.582c-0.206,0.98-0.325,1.991-0.487,2.991
			c-0.169,1.062-0.37,2.121-0.485,3.188c-0.095,0.871-0.115,1.756-0.173,2.634c-0.082,1.229-0.177,2.456-0.188,3.688
			c0,0.186-0.026,0.362-0.026,0.547c0,0.718,0.083,1.411,0.107,2.122c0.039,1.199,0.073,2.396,0.181,3.592
			c0.088,0.989,0.236,1.957,0.37,2.934c0.146,1.065,0.286,2.126,0.485,3.183c0.195,1.034,0.445,2.044,0.69,3.058
			c0.238,0.988,0.471,1.974,0.757,2.95c0.296,1.012,0.64,1.998,0.986,2.987c0.334,0.962,0.668,1.924,1.051,2.872
			c0.385,0.952,0.813,1.881,1.242,2.809c0.438,0.947,0.875,1.894,1.36,2.822c0.474,0.906,0.991,1.782,1.51,2.662
			c0.524,0.896,1.048,1.793,1.62,2.667c0.592,0.9,1.229,1.766,1.864,2.632c0.58,0.796,1.147,1.595,1.771,2.368
			c0.752,0.938,1.561,1.823,2.364,2.712c0.477,0.528,0.898,1.087,1.396,1.6c0.126,0.132,0.27,0.242,0.396,0.372
			c0.867,0.882,1.786,1.702,2.701,2.53c0.649,0.591,1.28,1.213,1.946,1.771c0.835,0.693,1.72,1.322,2.589,1.976
			c0.8,0.599,1.581,1.238,2.403,1.797c0.748,0.506,1.544,0.944,2.313,1.421c0.98,0.606,1.946,1.246,2.952,1.795
			c0.793,0.434,1.628,0.787,2.442,1.186c1.02,0.5,2.024,1.037,3.065,1.479c1.061,0.452,2.167,0.811,3.258,1.203
			c0.829,0.302,1.646,0.647,2.482,0.912c1.107,0.346,2.251,0.601,3.382,0.889c0.863,0.22,1.719,0.483,2.591,0.666
			c0.98,0.204,1.99,0.327,2.988,0.485c1.063,0.171,2.122,0.37,3.193,0.487c0.869,0.095,1.756,0.113,2.636,0.173
			c1.226,0.082,2.453,0.175,3.683,0.187c0.185,0.002,0.363,0.027,0.547,0.027v-0.043c15.83,0,31.68-5.852,43.97-17.712
			l-20.305-21.045c-6.732,6.495-15.469,9.657-24.155,9.531c-0.252-0.004-0.499-0.03-0.748-0.037
			c-0.876-0.032-1.752-0.074-2.625-0.171c-0.041-0.006-0.08-0.016-0.123-0.021c-3.189-0.372-6.337-1.192-9.336-2.461
			c-2.986-1.274-5.755-2.966-8.234-4.995c-0.039-0.031-0.082-0.06-0.119-0.091c-0.675-0.558-1.313-1.157-1.941-1.767
			c-0.183-0.176-0.37-0.333-0.549-0.514c-0.559-0.562-1.081-1.159-1.598-1.76c-0.218-0.249-0.447-0.493-0.655-0.748
			c-0.478-0.588-0.923-1.203-1.361-1.821c-0.212-0.295-0.43-0.587-0.629-0.889c-0.391-0.586-0.748-1.196-1.101-1.808
			c-0.213-0.371-0.432-0.739-0.629-1.113c-0.291-0.548-0.551-1.113-0.812-1.68c-0.218-0.476-0.438-0.948-0.632-1.43
			c-0.076-0.188-0.138-0.384-0.209-0.573h63.583h20.558h5.037c2.788,0,5.171-2.07,5.5-4.84c0.285-2.407,0.438-4.854,0.438-7.338
			C1075.791,392.872,1072.028,381.091,1065.612,371.19z M980.587,393.621c-0.015-0.019-0.015-0.021-0.028-0.041
			c1.321-3.512,3.207-6.749,5.547-9.6c0.028-0.035,0.053-0.073,0.082-0.108c0.557-0.675,1.159-1.312,1.766-1.942
			c0.175-0.181,0.334-0.37,0.513-0.549c0.563-0.56,1.161-1.083,1.762-1.6c0.249-0.216,0.493-0.446,0.748-0.655
			c0.59-0.48,1.205-0.922,1.824-1.363c0.294-0.21,0.585-0.426,0.882-0.625c0.59-0.389,1.202-0.75,1.815-1.103
			c0.368-0.212,0.733-0.43,1.105-0.627c0.55-0.292,1.119-0.553,1.687-0.813c0.475-0.216,0.943-0.435,1.425-0.63
			c0.482-0.195,0.976-0.363,1.466-0.538c0.59-0.205,1.178-0.411,1.775-0.584c0.407-0.119,0.823-0.214,1.234-0.318
			c0.687-0.169,1.373-0.336,2.066-0.463c0.355-0.067,0.719-0.111,1.077-0.166c0.75-0.113,1.499-0.221,2.255-0.285
			c0.329-0.026,0.664-0.031,0.995-0.05c0.79-0.043,1.583-0.082,2.375-0.069c0.253,0.001,0.501,0.028,0.752,0.037
			c0.874,0.03,1.746,0.074,2.617,0.171c0.05,0.006,0.101,0.017,0.148,0.022c3.183,0.376,6.321,1.192,9.312,2.458
			c2.997,1.278,5.774,2.974,8.261,5.013c0.03,0.026,0.063,0.048,0.094,0.073c0.679,0.56,1.318,1.163,1.951,1.774
			c0.179,0.173,0.364,0.329,0.539,0.504c0.627,0.633,1.219,1.296,1.793,1.974c0.131,0.154,0.273,0.299,0.4,0.456
			c0.457,0.558,0.876,1.15,1.3,1.736c0.234,0.329,0.489,0.651,0.711,0.988c0.182,0.273,0.338,0.563,0.512,0.841
			c0.938,1.518,1.771,3.084,2.453,4.698l0.026-0.024c0.195,0.459,0.35,0.939,0.524,1.408H980.587z"/>
		<path fill="#001E6B" d="M267.59,342.096c-10.409,0-20.221,2.53-28.884,6.978v-44.498c0-3.053-2.474-5.526-5.526-5.526h-23.445
			c-3.04,0-5.526,2.487-5.526,5.526v62.907c0,0,9.343,14.414,10.266,15.625c0.922,1.211,2.423,3.69,4.153,3.69
			s3.172-1.209,4.323-1.96c1.155-0.75,5.653-3.287,5.653-3.287s-1.326,22.087-1.442,23.529c-0.115,1.441-0.115,5.825,2.595,5.825
			c2.71,0,4.44-3.344,5.478-4.729c1.038-1.385,20.242-29.815,20.242-29.815s2.71,8.477,3.229,9.805
			c0.519,1.324,1.615,4.382,4.152,4.382s6.172-1.443,8.017-2.02s19.952-5.997,19.952-5.997s-6.92,22.494-7.381,24.106
			c-0.461,1.614-0.692,2.94-0.692,3.806s0.865,2.885,3.402,3.692s10.783,3.516,10.783,3.516s-29.468,20.186-31.313,21.511
			c-1.845,1.328-3.287,2.942-3.287,4.326s1.903,2.537,3.69,2.652s25.489-1.269,25.489-1.269s-3.518,6.285-3.921,7.15
			c-0.403,0.865-0.922,1.499-0.922,2.825s0.807,2.076,2.422,3.229c0.642,0.46,3.341,2.239,6.354,4.217
			c21.001-10.309,35.463-31.897,35.463-56.871C330.914,370.448,302.563,342.096,267.59,342.096z"/>
	</g>
</g>
</svg>
