<?xml version="1.0" encoding="utf-8"?>
<!-- Generator: Adobe Illustrator 16.0.0, SVG Export Plug-In . SVG Version: 6.00 Build 0)  -->
<!DOCTYPE svg PUBLIC "-//W3C//DTD SVG 1.1//EN" "http://www.w3.org/Graphics/SVG/1.1/DTD/svg11.dtd">
<svg version="1.1" id="Layer_1" xmlns="http://www.w3.org/2000/svg" xmlns:xlink="http://www.w3.org/1999/xlink" x="0px" y="0px"
	 width="2142px" height="500px" viewBox="0 0 2142 500" enable-background="new 0 0 2142 500" xml:space="preserve">
<g id="Circulo">
	<g>
		<path fill="#FFFFFF" d="M251.682,132.274c-33.836,0-65.682,8.785-92.682,24.151V65.132c0-59.479-0.532-59.479-50.621-59.479
			c-0.351,0-0.847,0.016-1.197,0.016C58.146,5.669,58,5.653,58,65.132v166.441c4.932,9.526,17.97,35.368,24.267,41.19
			c7.717,7.191,34.057,3.016,44.431-8.111c0,0-6.29,81.629,4.581,85.412c10.891,3.84,74.463-108.516,74.463-108.516
			s3.547,40.861,13.521,45.658c10.016,4.749,82.958-30.135,82.958-30.135s0.989-0.371,1.452,0.049
			c0.438,0.416,0.161,1.427,0.161,1.427s-29.294,75.376-23.791,84.97c5.518,9.66,46.573,10.103,46.573,10.103
			s-107.227,71.919-102.591,82.477c4.622,10.6,85.517-1.814,85.517-1.814c-10.319,11.142-12.468,37.762-4.737,44.95
			c4.649,4.286,20.37,11.552,32.295,16.713c62.869-31.533,106.313-96.54,106.313-171.674
			C443.416,218.237,357.72,132.274,251.682,132.274z M371.059,425.457c-0.029-0.157-0.052-0.322-0.039-0.467l0.256,0.232
			L371.059,425.457z"/>
	</g>
</g>
<rect x="470.622" y="86.649" fill="none" width="1677.378" height="490.293"/>
<text transform="matrix(1 0 0 1 470.6216 419.6445)" fill="#FFFFFF" font-family="'Poppins-Black'" font-size="450">ankple</text>
</svg>
