<?xml version="1.0" encoding="utf-8"?>
<!-- Generator: Adobe Illustrator 16.0.0, SVG Export Plug-In . SVG Version: 6.00 Build 0)  -->
<!DOCTYPE svg PUBLIC "-//W3C//DTD SVG 1.1//EN" "http://www.w3.org/Graphics/SVG/1.1/DTD/svg11.dtd">
<svg version="1.1" xmlns="http://www.w3.org/2000/svg" xmlns:xlink="http://www.w3.org/1999/xlink" x="0px" y="0px" width="500px"
	 height="500px" viewBox="0 0 500 500" enable-background="new 0 0 500 500" xml:space="preserve">
<g id="Layer_1" display="none">
	
		<image display="inline" overflow="visible" width="1680" height="1050" xlink:href="987C84A5.jpg"  transform="matrix(0.5902 0 0 0.5902 -220.1851 -71.0615)">
	</image>
</g>
<g id="Circulo">
	<g>
		<g>
		</g>
		<g>
		</g>
		<g>
		</g>
		<g>
		</g>
		<g>
		</g>
		<g>
		</g>
		<g>
		</g>
		<g>
		</g>
		<g>
		</g>
		<g>
		</g>
		<g>
		</g>
		<g>
		</g>
		<g>
		</g>
		<g>
		</g>
		<g>
		</g>
	</g>
	<g>
		<path fill="#01236A" d="M247.682,132.274c-33.837,0-65.682,8.785-92.682,24.151V65.132c0-59.479-0.532-59.479-50.621-59.479
			c-0.351,0-0.847,0.016-1.197,0.016C54.146,5.669,54,5.653,54,65.132v166.441c4.932,9.526,17.97,35.369,24.267,41.19
			c7.717,7.194,34.057,3.016,44.431-8.111c0,0-6.29,81.629,4.581,85.413c10.891,3.84,74.463-108.514,74.463-108.514
			s3.547,40.861,13.521,45.658c10.016,4.749,82.958-30.135,82.958-30.135s0.989-0.371,1.452,0.049
			c0.439,0.416,0.161,1.427,0.161,1.427s-29.294,75.376-23.791,84.968c5.517,9.661,46.573,10.102,46.573,10.102
			s-107.227,71.919-102.591,82.477c4.622,10.597,85.517-1.817,85.517-1.817c-10.319,11.142-12.468,37.762-4.737,44.95
			c4.649,4.289,20.37,11.552,32.297,16.713c62.868-31.533,106.313-96.54,106.313-171.672
			C439.416,218.237,353.72,132.274,247.682,132.274z M367.058,425.457c-0.03-0.157-0.051-0.322-0.039-0.467l0.255,0.235
			L367.058,425.457z"/>
	</g>
</g>
</svg>
